<svg width="35" height="35" fill="none" xmlns="http://www.w3.org/2000/svg"><path d="M17.5 1.094a6.562 6.562 0 0 0-6.563 6.562V8.75h-.907a3.577 3.577 0 0 0-3.577 3.412L5.59 30.155a3.587 3.587 0 0 0 3.577 3.751h16.668a3.585 3.585 0 0 0 3.577-3.751l-.864-17.992A3.576 3.576 0 0 0 24.97 8.75h-.907V7.656A6.563 6.563 0 0 0 17.5 1.094zm-4.375 6.562a4.375 4.375 0 0 1 8.75 0V8.75h-8.75V7.656zm13.234 4.605l.864 18.003a1.435 1.435 0 0 1-.382 1.028 1.413 1.413 0 0 1-1.007.427H9.166a1.413 1.413 0 0 1-1.007-.427 1.433 1.433 0 0 1-.382-1.028l.864-18.003a1.389 1.389 0 0 1 1.389-1.323h14.94a1.39 1.39 0 0 1 1.39 1.323z" fill="#1C4E29"/><path d="M12.425 14.427a1.094 1.094 0 1 0 0-2.188 1.094 1.094 0 0 0 0 2.188zM22.575 14.427a1.094 1.094 0 1 0 0-2.188 1.094 1.094 0 0 0 0 2.188z" fill="#1C4E29"/></svg>