<svg width="275" height="98" fill="none" xmlns="http://www.w3.org/2000/svg"><path d="M35.293 26.45v1.347c0 .438-.02.888-.062 1.346a23.954 23.954 0 0 0-2-1.063c-5.918-2.917-8.876-6.419-8.876-10.504 0-3.251 1.833-6.273 5.5-9.066 3.625 4.748 5.438 10.734 5.438 17.94zm18.44-20.945c-.293.17-.55.312-.78.442-.23.12-.45.27-.658.433-.125.088-.188.063-.188-.058 0-.167.02-.355.063-.567.041-.288.041-.517 0-.684-.542-3.043-2.917-4.568-7.126-4.568h-.688c-.25 0-.5.025-.75.066-4.167.46-8.73 2.23-13.688 5.315C26.542 2.466 22.313.753 17.229.753c-3.042 0-6.021.688-8.938 2.067-2.209 1-4 2.668-5.376 5.002-1.046 1.83-1.666 3.673-1.887 5.528a.983.983 0 0 0-.017.108c0 .017 0 .033-.004.05-.013.167-.033.463-.033.854 0 .634.05 1.539.245 2.597.1.53.242 1.097.425 1.689.196.583.417 1.196.717 1.796A12.99 12.99 0 0 0 3.4 22.232c.387.584.854 1.126 1.333 1.651.25.254.5.504.763.742.27.23.525.47.804.68.55.429 1.117.812 1.688 1.15.287.162.562.333.845.475.288.142.563.28.834.417.558.233 1.075.475 1.575.642.25.087.488.17.713.254.229.067.445.133.65.196.408.125.766.23 1.066.292.446.108.746.183.871.212-.12-.037-.42-.12-.862-.25a13.273 13.273 0 0 1-1.05-.337c-.2-.067-.413-.142-.638-.221-.22-.088-.454-.184-.696-.28-.492-.183-.996-.446-1.533-.7-.263-.146-.534-.292-.809-.442-.27-.15-.537-.333-.812-.504a15.806 15.806 0 0 1-1.605-1.192c-.266-.213-.504-.463-.758-.692a24.262 24.262 0 0 1-.708-.75c-.442-.526-.867-1.068-1.217-1.643a11.91 11.91 0 0 1-.921-1.746c-.263-.588-.45-1.18-.613-1.739a14.926 14.926 0 0 1-.337-1.613 13.363 13.363 0 0 1-.13-2.455c.01-.292.034-.52.05-.675l.026-.213.004-.016c.183-1.793.75-3.573 1.733-5.34C4.874 6.009 6.52 4.467 8.603 3.508c2.626-1.25 5.272-1.876 7.938-1.876 4.584 0 8.543 1.73 11.877 5.19-4.793 3.293-7.189 6.811-7.189 10.563 0 2.713 1.188 5.193 3.563 7.44 1.417 1.38 3.771 2.964 7.063 4.752.584.337 1.125.68 1.625 1.034s.98.7 1.438 1.033c-.833 5.42-2.688 9.813-5.563 13.19-3.167 3.796-7.271 5.88-12.313 6.256-.25.079-.376.225-.376.437.084.246.23.35.438.313 4.959-.38 9.147-2.46 12.564-6.253 3.042-3.418 5.104-7.794 6.188-13.13 2.625 2.372 3.938 4.936 3.938 7.687 0 3.005-1.438 5.652-4.313 7.945-3.126 2.5-7.293 4.143-12.501 4.935a58.322 58.322 0 0 1-3.968.47 45.55 45.55 0 0 1-3.72.155c-3.668 0-6.53-.467-8.593-1.405-2.063-.938-3.096-2.28-3.096-4.03 0-.667.167-1.389.5-2.16.333-.77.875-1.55 1.625-2.342s1.742-1.597 2.971-2.41c1.23-.812 2.759-1.592 4.592-2.346 3.917-1.58 7.5-2.372 10.751-2.372 1.042 0 2.084.104 3.125.313.875.208 1.313.145 1.313-.192 0-.121-.146-.267-.438-.434-1.416-.792-3.208-1.188-5.375-1.188-3.334 0-7.063.876-11.188 2.622-3.75 1.63-6.355 3.235-7.814 4.819C1.874 44.44.978 46.396.978 48.4c0 2.33 1.25 4.252 3.75 5.753 2.667 1.538 6.292 2.309 10.876 2.309 2.25 0 4.667-.184 7.25-.559 5.418-.838 10.21-2.713 14.377-5.627 4.584-3.21 6.875-6.586 6.875-10.133 0-3.706-2.604-7.166-7.813-10.375.084-.75.159-1.513.221-2.285.063-.77.092-1.55.092-2.346 0-7.166-1.771-13.043-5.313-17.628 3.625-2.335 7.646-3.71 12.063-4.127.375-.042.73-.075 1.063-.096.333-.02.667-.033 1-.033 3.5 0 5.25 1.046 5.25 3.126 0 .755-.25 1.626-.75 2.63-1.291 2.46-1.937 4.023-1.937 4.69 0 .246.104.375.312.375.709 0 2.605-1.667 5.688-5.002.709-.959 1.063-1.834 1.063-2.63 0-.663-.438-.976-1.313-.938z" fill="#674D21"/><path d="M1.011 13.351v0z" fill="#030404"/><path d="M11.325 27.904a21.138 21.138 0 0 0 .741 1.896c.017.037.032.072.05.108.113.247.231.491.35.716.06.112.114.222.174.322.058.101.111.197.164.284l.147.234c.043.071.087.128.12.177l.103.15-.087-.16c-.027-.053-.063-.114-.098-.188a49.124 49.124 0 0 1-.12-.248c-.043-.09-.085-.192-.132-.297-.047-.105-.089-.22-.137-.335a16.884 16.884 0 0 1-.498-1.492 21.075 21.075 0 0 1-.234-.889 18.22 18.22 0 0 1-.543-.278z" fill="#674D21"/><path d="M13.77 31.498c-.422-.306-.741-.774-.713-1.045.028-.272.393-.244.814.064.422.306.74.774.712 1.045-.028.27-.392.243-.814-.064zm-2.49 1.79c.67 1.404 2.061 2.137 3.11 1.637 1.048-.5 1.356-2.043.687-3.447-.6-1.26-1.782-1.98-2.776-1.753a1.599 1.599 0 0 0-.333.116c-1.049.5-1.356 2.042-.688 3.447z" fill="#030404"/><path d="M5.88 24.533c.17.19.343.376.523.561h.189c.24-.002.52-.007.82-.017.3-.008.62-.025.938-.046l.123-.008c.278-.02.554-.045.812-.073l.43-.053.382-.06c.118-.02.225-.043.32-.062.096-.017.178-.038.246-.054l.209-.052-.214.027c-.069.009-.152.022-.248.028-.096.007-.205.018-.323.025l-.383.018-.428.006a21.783 21.783 0 0 1-.929-.023 30.097 30.097 0 0 1-1.732-.131c-.363-.038-.63-.073-.734-.086z" fill="#674D21"/><path d="M9.658 22.706c.463-.414 1.09-.667 1.4-.566.308.101.183.519-.28.932-.464.414-1.09.668-1.399.566-.31-.1-.184-.519.28-.932zM8.39 24.75v.003c.022.092.05.181.084.268.468 1.177 2.077 1.8 3.759 1.404 1.805-.425 3.01-1.863 2.693-3.211-.317-1.349-2.038-2.098-3.843-1.673-1.803.425-3.007 1.861-2.693 3.209z" fill="#030404"/><path d="M7.615 25.935l-.006.206a23.978 23.978 0 0 0 .014 1.287c.009.235.023.482.04.731.005.044.007.087.01.13l.04.436c.018.143.03.285.051.42.02.137.035.268.058.391.021.125.04.242.061.35.024.107.045.205.062.292.018.087.041.162.056.223l.05.192a13.595 13.595 0 0 0-.026-.196c-.007-.063-.02-.139-.027-.227-.01-.088-.017-.188-.028-.296-.007-.108-.011-.227-.02-.35-.005-.124-.005-.256-.008-.391-.004-.136.001-.276.001-.418l.012-.432c0-.035.003-.07.005-.106a23.836 23.836 0 0 1 .163-1.819c-.162-.138-.32-.278-.474-.419l-.034-.004z" fill="#674D21"/><path d="M8.765 30.524c-.312-.47-.459-1.063-.328-1.327.13-.264.488-.098.8.37.311.47.458 1.063.327 1.328-.13.263-.488.097-.8-.37zm-3.193.874c.15 1.674 1.283 2.94 2.532 2.828 1.25-.112 2.142-1.558 1.992-3.231-.133-1.495-1.05-2.663-2.137-2.817a1.789 1.789 0 0 0-.395-.011c-1.25.112-2.14 1.559-1.992 3.23z" fill="#030404"/><path d="M2.375 28.468c.372-.859.64-1.822.785-2.846.255-1.783-.517-3.607-.982-5.492.174 3.204.454 4.926-.522 7.875.304-2.465.322-5.063.052-7.678-.47.19-.805.703-1.053 1.265-.527 1.193-.747 2.685-.62 4.213.105 1.265.448 2.55.98 3.698.053.115.255.64.346.672.099.036.312-.394.371-.487.24-.377.455-.785.643-1.22zM11.987 19.75a12.35 12.35 0 0 1-3.134.945c-1.97.328-4.01-.48-6.11-.949 3.555.111 5.47.378 8.711-.78-2.723.4-5.602.487-8.506.255.198-.526.758-.91 1.375-1.2 1.308-.616 2.956-.898 4.652-.796 1.405.084 2.838.43 4.123.991.129.056.716.267.754.367.042.108-.428.356-.53.424a9.68 9.68 0 0 1-1.335.744zM20.365 30.424a10.46 10.46 0 0 1-2.756.285c-1.69-.041-3.257-1.039-4.928-1.762 2.938.658 4.486 1.185 7.366.739a32.144 32.144 0 0 1-7.11-1.143c.247-.407.774-.636 1.333-.779 1.186-.303 2.6-.275 3.994.08 1.155.294 2.29.81 3.268 1.482.099.067.553.335.57.425.017.096-.414.227-.51.268a8.21 8.21 0 0 1-1.227.405z" fill="#1C4E2B"/><path d="M62.36 34.647c-3.46-.083-6.439 2.334-8.939 7.253-.709 1.334-1.063 2.521-1.063 3.563 0 1.126.396 1.688 1.188 1.688.75 0 1.729-.5 2.938-1.5 2.166-1.834 3.583-3.668 4.25-5.503.291-2.083.833-3.917 1.625-5.501zM77.922 42.9c-4.875 5.169-9.022 7.565-12.438 7.19-1.126-.125-2.168-.813-3.126-2.063-.959-1.417-1.542-3.19-1.75-5.315a36.186 36.186 0 0 1-2.406 2.97 24.113 24.113 0 0 1-2.594 2.47c-1.668 1.334-3.043 2-4.126 2-1.542 0-2.312-.978-2.312-2.938 0-1.667.584-3.397 1.75-5.19 2.708-4.126 5.75-6.981 9.126-8.565 1.458-.667 2.812-1 4.063-1 .332 0 .697.052 1.093.156.396.104.77.25 1.125.437.354.188.646.407.876.657.228.25.343.542.343.875 0 .125-.073.24-.218.344a1.872 1.872 0 0 1-.5.25 4.035 4.035 0 0 0-.532.219c-.167.084-.25.146-.25.188-1.542 2.792-2.313 5.46-2.313 8.002 0 3.169 1.23 4.752 3.688 4.752 2.583 0 5.813-2.063 9.689-6.19.29-.375.583-.562.875-.562.208 0 .312.146.312.437 0 .334-.125.626-.375.876z" fill="#674D21"/><path d="M112.364 42.65c-4.585 5.003-8.46 7.504-11.626 7.504-3.418 0-4.96-3.19-4.626-9.566-.292.291-.656.698-1.094 1.219-.437.521-.99 1.198-1.656 2.032l-3.75 5.627c-.792.916-1.5 1.25-2.125 1-.668-.167-.918-.583-.75-1.25l.187-2c.083-.667.145-1.293.188-1.877.04-.583.082-1.125.125-1.625.165-3.418-.23-5.128-1.188-5.128-.792 0-2.022.876-3.688 2.627-1.125 1.125-2.397 2.938-3.813 5.44-1.25 2.21-2 3.376-2.25 3.5-.25.126-.5.189-.75.189-.583 0-.875-.396-.875-1.189 0-.25.022-.438.062-.563.292-.625.688-1.51 1.188-2.657.5-1.146 1.103-2.553 1.813-4.22 1.75-4.043 2.625-6.503 2.625-7.378.125-.25.79-.666 2-1.25 1.333-.626 2-.459 2 .5l-2 6.127c.333-.333.74-.719 1.219-1.156a63.31 63.31 0 0 1 1.594-1.407 3.944 3.944 0 0 1 2.125-.626c1.958 0 3.063 1.21 3.313 3.627 0 .042-.022.594-.063 1.657l-.187 4.783c1.29-2.001 3.853-5.565 7.688-10.692.75-1 1.583-1.5 2.5-1.5.458 0 .688.25.688.75 0 .125-.011.25-.032.375a6.008 6.008 0 0 1-.093.438c-1.042 3.501-1.563 6.273-1.563 8.315 0 2.668.916 4.002 2.75 4.002 1.5 0 3.188-.75 5.063-2.251.333-.291.844-.77 1.531-1.438a100.72 100.72 0 0 0 2.532-2.564c.291-.29.541-.437.75-.437.166 0 .291.125.375.375.083.25.021.48-.187.688z" fill="#674D21"/><path d="M145.615 29.144a15.1 15.1 0 0 0 .062-1.345v-1.344c0-7.21-1.813-13.193-5.438-17.945-3.667 2.793-5.5 5.815-5.5 9.067 0 4.085 2.958 7.586 8.876 10.504.625.292 1.29.646 2 1.063zM141.677 7.51c3.541 4.586 5.313 10.463 5.313 17.632 0 .792-.031 1.574-.094 2.345a76.349 76.349 0 0 1-.219 2.282c5.209 3.21 7.813 6.67 7.813 10.379 0 3.543-2.292 6.92-6.875 10.129-4.168 2.917-8.96 4.793-14.376 5.627-2.584.376-5.001.563-7.251.563-4.584 0-8.21-.772-10.876-2.313-2.5-1.501-3.75-3.419-3.75-5.753 0-2 .896-3.96 2.687-5.877 1.458-1.584 4.063-3.189 7.814-4.815 4.125-1.75 7.854-2.625 11.188-2.625 2.166 0 3.959.396 5.376 1.188.291.167.437.312.437.437 0 .334-.437.397-1.313.188a15.884 15.884 0 0 0-3.124-.313c-3.251 0-6.836.793-10.752 2.376-1.834.75-3.365 1.532-4.594 2.344-1.23.814-2.219 1.617-2.969 2.408-.75.792-1.292 1.574-1.625 2.344-.334.772-.5 1.491-.5 2.158 0 1.75 1.031 3.095 3.094 4.032 2.063.938 4.927 1.407 8.594 1.407 1.208 0 2.448-.052 3.72-.156 1.27-.104 2.593-.26 3.969-.469 5.208-.792 9.375-2.438 12.501-4.94 2.875-2.291 4.313-4.939 4.313-7.94 0-2.751-1.313-5.315-3.938-7.69-1.084 5.336-3.147 9.712-6.188 13.13-3.417 3.793-7.605 5.877-12.564 6.252-.209.041-.354-.063-.437-.313 0-.209.125-.354.375-.437 5.041-.375 9.146-2.46 12.313-6.253 2.875-3.376 4.729-7.773 5.563-13.192-.459-.334-.937-.677-1.438-1.032-.5-.354-1.042-.698-1.625-1.032-3.292-1.791-5.646-3.376-7.062-4.752-2.376-2.25-3.563-4.73-3.563-7.44 0-3.752 2.395-7.274 7.188-10.567-3.334-3.46-7.293-5.19-11.876-5.19-2.668 0-5.313.626-7.938 1.876-2.085.96-3.731 2.501-4.939 4.627-1.208 2.168-1.812 4.356-1.812 6.566 0 1.834.416 3.418 1.25 4.751 1.541 2.418 3.875 3.627 7 3.627 2.792 0 4.917-1.064 6.376-3.19.125-.165.271-.228.438-.186.166.041.25.167.25.375 0 1-.959 1.897-2.876 2.688-1.75.71-3.187 1.063-4.313 1.063-3.417 0-6-1.313-7.75-3.94-.875-1.416-1.313-3.084-1.313-5.001 0-2.376.666-4.73 2-7.065 1.375-2.334 3.167-4.002 5.376-5.002 2.916-1.376 5.896-2.064 8.938-2.064 5.083 0 9.314 1.71 12.689 5.127C145.26 2.8 149.823 1.03 153.99.57c.251-.041.5-.063.751-.063h.687c4.209 0 6.584 1.522 7.126 4.565.04.166.04.396 0 .687a2.89 2.89 0 0 0-.063.563c0 .125.063.146.188.062.208-.166.427-.312.656-.437.229-.126.49-.271.781-.438.875-.041 1.313.272 1.313.938 0 .792-.354 1.667-1.063 2.626-3.084 3.335-4.98 5.002-5.688 5.002-.208 0-.312-.125-.312-.375 0-.666.646-2.23 1.937-4.69.501-1 .751-1.875.751-2.626 0-2.084-1.751-3.126-5.251-3.126-.334 0-.667.01-1 .032-.334.02-.687.052-1.063.093-4.417.417-8.438 1.793-12.063 4.127zM185.806 35.71c-.209 2.168-.897 3.836-2.063 5.002a5.09 5.09 0 0 0 1.532 2.626c.77.71 1.656 1.063 2.656 1.063 1.458 0 2.833-.77 4.126-2.313.458-.541.79-.646 1-.313.208.417.103.772-.313 1.063-1.667 1.668-3.438 2.5-5.313 2.5-1.959 0-3.5-.874-4.625-2.625-.917 2.376-2.063 4.252-3.438 5.627-1.375 1.376-2.667 2.063-3.875 2.063-1.835 0-2.751-1.375-2.751-4.126 0-.292.01-.572.032-.844.02-.27.051-.552.093-.844-.208.209-1.042 1.375-2.5 3.501-1.084 1.543-2.355 2.824-3.813 3.845-1.459 1.021-2.772 1.533-3.937 1.533-1.96 0-2.938-1.376-2.938-4.128 0-.958.167-2.208.5-3.751.416-1.876 1.312-3.917 2.688-6.127 1.083-1.751 2.228-3.168 3.437-4.252.833-.791 1.688-1.188 2.563-1.188.791 0 1.188.292 1.188.875 0 .21-.084.397-.25.563-1.917 1.918-3.876 4.961-5.876 9.129-1.209 2.626-1.813 4.523-1.813 5.69 0 1.083.438 1.625 1.313 1.625 1.708 0 3.729-1.48 6.063-4.44a32.146 32.146 0 0 0 3.094-4.814c.896-1.708 1.76-3.396 2.594-5.064.166-.375.729-.563 1.688-.563 1.041 0 1.562.397 1.562 1.188-.541.96-1 1.876-1.375 2.752-.375.875-.709 1.709-1 2.5-.459 1.376-.687 2.46-.687 3.252 0 1.167.395 1.75 1.187 1.75s1.75-.646 2.876-1.938c1.166-1.291 2.103-2.917 2.812-4.877-.709-1.458-.959-3.126-.75-5.002.208-2.709 1.041-4.064 2.5-4.064.583 0 1.052.281 1.407.844.354.563.489 1.324.406 2.283z" fill="#674D21"/><path d="M202.431 37.02c.792-1.334 1.188-2.48 1.188-3.44 0-.75-.25-1.124-.75-1.124-.875 0-2.084 1.021-3.625 3.063-1.501 2.085-2.689 4.169-3.563 6.253 3.291-1.042 5.542-2.626 6.75-4.752zm11.501 5.877c-1.5 1.834-3.875 3.586-7.125 5.253-3.584 1.875-6.71 2.813-9.376 2.813-3.875 0-5.813-2.126-5.813-6.378 0-1.541.52-3.376 1.563-5.502 1.041-2.25 2.353-4.126 3.937-5.627 1.791-1.709 3.479-2.563 5.063-2.563 2.083 0 3.125 1.021 3.125 3.063 0 1.25-.542 2.585-1.625 4.002-1.917 2.376-4.709 4.023-8.376 4.939a9.855 9.855 0 0 0-.249 2.25c0 2.836 1.312 4.253 3.938 4.253 2.083 0 4.666-.854 7.75-2.564 1.416-.791 2.646-1.573 3.688-2.345 1.041-.77 1.916-1.552 2.625-2.344.791-.834 1.188-.875 1.188-.125 0 .25-.105.542-.313.875z" fill="#674D21"/><path d="M223.557 37.02c.791-1.334 1.188-2.48 1.188-3.44 0-.75-.25-1.124-.75-1.124-.875 0-2.085 1.021-3.626 3.063-1.5 2.085-2.687 4.169-3.563 6.253 3.292-1.042 5.542-2.626 6.751-4.752zm11.501 5.877c-1.5 1.834-3.875 3.586-7.126 5.253-3.584 1.875-6.709 2.813-9.375 2.813-3.875 0-5.813-2.126-5.813-6.378 0-1.541.52-3.376 1.562-5.502 1.041-2.25 2.354-4.126 3.938-5.627 1.791-1.709 3.479-2.563 5.063-2.563 2.083 0 3.125 1.021 3.125 3.063 0 1.25-.542 2.585-1.625 4.002-1.917 2.376-4.709 4.023-8.376 4.939-.167.71-.25 1.46-.25 2.25 0 2.836 1.313 4.253 3.938 4.253 2.083 0 4.667-.854 7.751-2.564 1.416-.791 2.646-1.573 3.688-2.345 1.041-.77 1.916-1.552 2.625-2.344.791-.834 1.187-.875 1.187-.125 0 .25-.104.542-.312.875z" fill="#674D21"/><path d="M234.496 32.771h.906c.312 0 .635-.02.969-.063a4.14 4.14 0 0 1 .781-.063h.969l1.25-2.313c.541-1 1.229-2.25 2.063-3.751.458-.834 1-1.73 1.625-2.689.625-.958 1.333-2.021 2.125-3.188.833-.834 1.959-1.25 3.375-1.25 1.209 0 1.813.312 1.813.937 0 .125-.062.271-.187.437-.876 1.21-1.98 2.794-3.313 4.753a314.94 314.94 0 0 0-4.688 7.127h9.751c.625.21.937.48.937.813 0 .626-.75 1.022-2.25 1.188-.25.042-1.167.063-2.75.063-1.584 0-3.876.021-6.876.062-2.042 3.836-3.063 6.962-3.063 9.379 0 2.71 1.167 4.064 3.501 4.064 1.166 0 2.416-.375 3.75-1.126a22.168 22.168 0 0 0 2.844-2.032c.979-.813 2.01-1.802 3.094-2.97.416-.416.751-.603 1-.562.208 0 .313.146.313.437 0 .25-.105.522-.313.813-4.709 4.961-8.751 7.378-12.125 7.253-2.668-.083-4.273-1.459-4.813-4.127a12.209 12.209 0 0 1-.188-1.25 12.448 12.448 0 0 1-.063-1.25c0-2.543.708-5.419 2.126-8.63-.917.043-1.574.063-1.97.063-.396 0-.51.022-.343.063-.959-.125-1.48-.541-1.563-1.25-.125-.625.313-.938 1.313-.938z" fill="#674D21"/><path d="M256.436 48.528c-1.626-.541-3.022-1.396-4.188-2.564 0 .876.302 1.595.906 2.157.604.563 1.26.844 1.969.844.583 0 1.021-.145 1.313-.437zm8.375-.938c3.542-.876 6.584-2.751 9.126-5.627a.782.782 0 0 1 .687-.375c.251 0 .376.167.376.5 0 .334-.147.647-.438.938-3.5 3.376-6.813 5.336-9.938 5.877-2.167.375-4.188.417-6.063.125-.626 1.125-1.584 1.688-2.875 1.688-.96 0-1.835-.303-2.626-.907-.792-.603-1.292-1.343-1.5-2.22-.459-1.666-.521-2.666-.188-3 .042-.541.292-.813.75-.813.126 0 .229.042.313.125 1.208 1.46 2.751 2.563 4.626 3.314.041-.5-.042-1.146-.251-1.939a9.886 9.886 0 0 0-.593-1.5c-.23-.458-.49-.896-.782-1.313-1.584-2.167-2.271-4.355-2.062-6.565.375-4.418 3.333-7.649 8.876-9.691 1.832-.667 3.583-.896 5.25-.689 1.875.25 2.813 1.273 2.813 3.064 0 1.335-.438 2.627-1.313 3.877-.375.5-.709.813-1 .938-.292.042-.437-.083-.437-.375 0-.166.103-.459.312-.875.458-.834.687-1.542.687-2.126 0-1.042-.687-1.563-2.062-1.563-.167 0-.344.01-.531.03a7.652 7.652 0 0 0-.594.094c-4.542.835-7.585 3.46-9.126 7.878-.209.751-.312 1.398-.312 1.94 0 1.167.5 2.584 1.499 4.25 1.042 1.71 1.584 3.064 1.626 4.065v.562c0 .167-.022.334-.063.5 1.875.376 3.813.313 5.813-.187z" fill="#674D21"/><path d="M12.522 84.162c-1.176 0-2.202-.264-3.078-.792-.864-.54-1.536-1.296-2.016-2.268-.468-.972-.702-2.124-.702-3.456 0-1.332.234-2.484.702-3.456.468-.972 1.134-1.722 1.998-2.25.876-.528 1.908-.792 3.096-.792 1.2 0 2.232.264 3.096.792.876.528 1.548 1.278 2.016 2.25.48.96.72 2.106.72 3.438 0 1.332-.24 2.49-.72 3.474-.48.972-1.158 1.728-2.034 2.268-.864.528-1.89.792-3.078.792zm0-1.314c1.356 0 2.406-.456 3.15-1.368.744-.912 1.116-2.19 1.116-3.834 0-1.644-.372-2.916-1.116-3.816-.744-.912-1.794-1.368-3.15-1.368-1.332 0-2.37.456-3.114 1.368-.744.9-1.116 2.172-1.116 3.816 0 1.632.372 2.91 1.116 3.834.744.912 1.782 1.368 3.114 1.368zM21.712 84V71.31h5.023c1.368 0 2.412.318 3.132.954.732.636 1.098 1.542 1.098 2.718 0 .936-.258 1.704-.774 2.304-.504.6-1.224.99-2.16 1.17.552.192 1.026.66 1.422 1.404L31.685 84h-1.62l-2.196-4.068c-.276-.504-.594-.846-.954-1.026-.36-.18-.834-.27-1.422-.27h-2.304V84h-1.476zm1.477-6.534h3.33c1.992 0 2.988-.828 2.988-2.484 0-1.632-.996-2.448-2.988-2.448h-3.33v4.932zM34.474 84V71.31h1.476V84h-1.476zm11.121.162c-2.04 0-3.594-.576-4.662-1.728-1.068-1.152-1.602-2.742-1.602-4.77 0-1.344.24-2.502.72-3.474.48-.972 1.17-1.722 2.07-2.25.9-.528 1.986-.792 3.258-.792.9 0 1.728.138 2.484.414a5.132 5.132 0 0 1 1.926 1.17l-.576 1.188c-.576-.504-1.17-.87-1.782-1.098-.612-.228-1.302-.342-2.07-.342-1.44 0-2.544.456-3.312 1.368-.768.9-1.152 2.172-1.152 3.816 0 1.68.396 2.964 1.188 3.852.792.888 1.974 1.332 3.546 1.332 1.02 0 1.998-.174 2.934-.522v-3.762h-3.222v-1.17h4.5v5.868c-.336.18-.744.336-1.224.468-.468.132-.966.234-1.494.306a9.738 9.738 0 0 1-1.53.126zM53.58 84V71.31h1.476V84H53.58zm5.325 0V71.31h1.152l7.65 10.206V71.31h1.368V84H67.96l-7.668-10.242V84h-1.386zm12.82 0l5.598-12.69h1.26L84.181 84h-1.53l-1.404-3.24h-6.606L73.255 84h-1.53zm6.21-10.962l-2.754 6.48h5.544l-2.754-6.48h-.036zM86.783 84V71.31h1.476v11.394h6.462V84h-7.938zm21.632.162c-2.04 0-3.594-.576-4.662-1.728-1.068-1.152-1.602-2.742-1.602-4.77 0-1.344.24-2.502.72-3.474.48-.972 1.17-1.722 2.07-2.25.9-.528 1.986-.792 3.258-.792.9 0 1.728.138 2.484.414a5.132 5.132 0 0 1 1.926 1.17l-.576 1.188c-.576-.504-1.17-.87-1.782-1.098-.612-.228-1.302-.342-2.07-.342-1.44 0-2.544.456-3.312 1.368-.768.9-1.152 2.172-1.152 3.816 0 1.68.396 2.964 1.188 3.852.792.888 1.974 1.332 3.546 1.332 1.02 0 1.998-.174 2.934-.522v-3.762h-3.222v-1.17h4.5v5.868c-.336.18-.744.336-1.224.468-.468.132-.966.234-1.494.306a9.738 9.738 0 0 1-1.53.126zM116.4 84V71.31h5.022c1.368 0 2.412.318 3.132.954.732.636 1.098 1.542 1.098 2.718 0 .936-.258 1.704-.774 2.304-.504.6-1.224.99-2.16 1.17.552.192 1.026.66 1.422 1.404l2.232 4.14h-1.62l-2.196-4.068c-.276-.504-.594-.846-.954-1.026-.36-.18-.834-.27-1.422-.27h-2.304V84H116.4zm1.476-6.534h3.33c1.992 0 2.988-.828 2.988-2.484 0-1.632-.996-2.448-2.988-2.448h-3.33v4.932zM129.161 84V71.31h8.01v1.242h-6.57v4.392h6.192v1.242h-6.192v4.572h6.57V84h-8.01zm11.214 0V71.31h8.01v1.242h-6.57v4.392h6.192v1.242h-6.192v4.572h6.57V84h-8.01zm11.214 0V71.31h1.476v5.76h.036l6.156-5.76h1.89l-6.624 6.174 7.02 6.516h-1.944l-6.498-5.976h-.036V84h-1.476zm17.313 0V71.31h5.022c1.368 0 2.412.33 3.132.99.732.66 1.098 1.602 1.098 2.826 0 1.212-.366 2.154-1.098 2.826-.72.66-1.764.99-3.132.99h-3.546V84h-1.476zm1.476-6.3h3.366c1.968 0 2.952-.858 2.952-2.574 0-1.728-.984-2.592-2.952-2.592h-3.366V77.7zm10.635 6.3V71.31h5.022c1.368 0 2.412.318 3.132.954.732.636 1.098 1.542 1.098 2.718 0 .936-.258 1.704-.774 2.304-.504.6-1.224.99-2.16 1.17.552.192 1.026.66 1.422 1.404l2.232 4.14h-1.62l-2.196-4.068c-.276-.504-.594-.846-.954-1.026-.36-.18-.834-.27-1.422-.27h-2.304V84h-1.476zm1.476-6.534h3.33c1.992 0 2.988-.828 2.988-2.484 0-1.632-.996-2.448-2.988-2.448h-3.33v4.932zm16.525 6.696c-1.176 0-2.202-.264-3.078-.792-.864-.54-1.536-1.296-2.016-2.268-.468-.972-.702-2.124-.702-3.456 0-1.332.234-2.484.702-3.456.468-.972 1.134-1.722 1.998-2.25.876-.528 1.908-.792 3.096-.792 1.2 0 2.232.264 3.096.792.876.528 1.548 1.278 2.016 2.25.48.96.72 2.106.72 3.438 0 1.332-.24 2.49-.72 3.474-.48.972-1.158 1.728-2.034 2.268-.864.528-1.89.792-3.078.792zm0-1.314c1.356 0 2.406-.456 3.15-1.368.744-.912 1.116-2.19 1.116-3.834 0-1.644-.372-2.916-1.116-3.816-.744-.912-1.794-1.368-3.15-1.368-1.332 0-2.37.456-3.114 1.368-.744.9-1.116 2.172-1.116 3.816 0 1.632.372 2.91 1.116 3.834.744.912 1.782 1.368 3.114 1.368zM208.205 84V71.31h4.284c2.052 0 3.636.546 4.752 1.638 1.116 1.08 1.674 2.646 1.674 4.698 0 2.052-.558 3.624-1.674 4.716-1.116 1.092-2.7 1.638-4.752 1.638h-4.284zm1.476-1.26h2.7c3.312 0 4.968-1.698 4.968-5.094 0-3.384-1.656-5.076-4.968-5.076h-2.7v10.17zm17.607 1.422c-1.668 0-2.934-.438-3.798-1.314-.864-.888-1.296-2.178-1.296-3.87V71.31h1.476v7.596c0 2.628 1.206 3.942 3.618 3.942 2.388 0 3.582-1.314 3.582-3.942V71.31h1.476v7.668c0 1.692-.432 2.982-1.296 3.87-.852.876-2.106 1.314-3.762 1.314zm14.302 0c-1.248 0-2.316-.264-3.204-.792-.888-.528-1.572-1.278-2.052-2.25-.468-.972-.702-2.13-.702-3.474 0-1.332.234-2.484.702-3.456.48-.972 1.164-1.722 2.052-2.25.888-.528 1.956-.792 3.204-.792.876 0 1.68.138 2.412.414a5.061 5.061 0 0 1 1.89 1.206l-.576 1.206c-.552-.516-1.128-.888-1.728-1.116-.588-.24-1.242-.36-1.962-.36-1.428 0-2.52.45-3.276 1.35-.756.9-1.134 2.166-1.134 3.798 0 1.644.378 2.916 1.134 3.816.756.9 1.848 1.35 3.276 1.35.72 0 1.374-.114 1.962-.342.6-.24 1.176-.618 1.728-1.134l.576 1.206a5.378 5.378 0 0 1-1.89 1.206c-.732.276-1.536.414-2.412.414zM251.869 84V72.588h-4.608V71.31h10.71v1.278h-4.608V84h-1.494zm12.099.162c-.996 0-1.896-.126-2.7-.378a6.255 6.255 0 0 1-2.088-1.134l.522-1.188a6.72 6.72 0 0 0 1.926 1.044c.672.228 1.452.342 2.34.342 1.08 0 1.878-.198 2.394-.594.528-.408.792-.942.792-1.602 0-.528-.192-.948-.576-1.26-.372-.312-1.002-.558-1.89-.738l-1.872-.378c-1.128-.24-1.974-.63-2.538-1.17-.552-.552-.828-1.284-.828-2.196 0-.756.192-1.416.576-1.98.396-.564.942-1.002 1.638-1.314.696-.312 1.5-.468 2.412-.468a6.68 6.68 0 0 1 2.376.414c.732.264 1.35.648 1.854 1.152l-.522 1.152c-.54-.492-1.11-.846-1.71-1.062-.6-.228-1.272-.342-2.016-.342-.948 0-1.704.222-2.268.666-.564.432-.846 1.008-.846 1.728 0 .576.174 1.032.522 1.368.36.336.942.582 1.746.738l1.872.396c1.212.252 2.106.636 2.682 1.152.588.504.882 1.194.882 2.07 0 .708-.192 1.332-.576 1.872-.372.54-.912.96-1.62 1.26-.696.3-1.524.45-2.484.45z" fill="#1C4E29"/></svg>