<svg width="38" height="24" fill="none" xmlns="http://www.w3.org/2000/svg"><path d="M13.436 2.798h11.132V21.2H13.436V2.798z" fill="#FF5F00"/><path d="M14.583 12a11.799 11.799 0 0 1 1.16-5.114A11.657 11.657 0 0 1 19 2.802 11.488 11.488 0 0 0 13.088.367 11.442 11.442 0 0 0 6.8 1.477a11.611 11.611 0 0 0-4.747 4.317 11.806 11.806 0 0 0-1.762 6.208c0 2.196.61 4.347 1.762 6.208A11.611 11.611 0 0 0 6.8 22.527c1.951.96 4.13 1.345 6.287 1.11a11.488 11.488 0 0 0 5.911-2.434 11.656 11.656 0 0 1-3.256-4.086 11.799 11.799 0 0 1-1.16-5.116z" fill="#EB001B"/><path d="M36.603 19.252v-.377h.16v-.078h-.382v.078h.151v.378h.07zm.742 0v-.455h-.116l-.135.325-.135-.325h-.115v.455h.083v-.344l.126.296h.086l.125-.296v.344h.08zM37.708 12c0 2.197-.61 4.348-1.762 6.21a11.611 11.611 0 0 1-4.748 4.316 11.44 11.44 0 0 1-6.288 1.11A11.487 11.487 0 0 1 19 21.2a11.676 11.676 0 0 0 3.254-4.086 11.819 11.819 0 0 0 0-10.23A11.676 11.676 0 0 0 18.999 2.8a11.442 11.442 0 0 1 12.199-1.326 11.611 11.611 0 0 1 4.748 4.316 11.806 11.806 0 0 1 1.762 6.209V12z" fill="#F79E1B"/></svg>