<svg width="80" height="80" fill="none" xmlns="http://www.w3.org/2000/svg"><g clip-path="url(#a)" fill="#B88626"><path d="M30.82 37.656h6.928v7.032c0 2.091 2.497 3.125 3.943 1.657l8.561-8.689h17.52c1.276 0 2.31-1.05 2.31-2.343V7.186c0-1.293-1.034-2.343-2.31-2.343H30.82c-1.275 0-2.31 1.05-2.31 2.343v28.125c0 1.294 1.035 2.344 2.31 2.344zm27.714-18.75c1.275 0 2.31 1.05 2.31 2.344 0 1.294-1.035 2.344-2.31 2.344-1.274 0-2.31-1.05-2.31-2.344 0-1.294 1.036-2.344 2.31-2.344zm-9.238 0c1.275 0 2.31 1.05 2.31 2.344 0 1.294-1.035 2.344-2.31 2.344-1.275 0-2.31-1.05-2.31-2.344 0-1.294 1.035-2.344 2.31-2.344zm-9.239 0c1.275 0 2.31 1.05 2.31 2.344 0 1.294-1.035 2.344-2.31 2.344-1.274 0-2.31-1.05-2.31-2.344 0-1.294 1.036-2.344 2.31-2.344z"/><path d="M77.32 65.781H59.457V58.75a2.343 2.343 0 0 0-1.578-2.223l-13.824-4.688a2.287 2.287 0 0 0-2.014.273l-5.877 3.977c-6.225-3.012-13.613-10.51-16.581-16.826l3.918-5.965a2.38 2.38 0 0 0 .27-2.043l-4.62-14.028a2.315 2.315 0 0 0-2.19-1.602H7.723c-3.82 0-6.929 3.14-6.929 6.998 0 12.957 5.773 26.246 15.84 36.46 10.065 10.215 23.16 16.073 35.928 16.073 2.998 0 5.554-1.96 6.502-4.687H77.32c1.276 0 2.31-1.05 2.31-2.344 0-1.294-1.034-2.344-2.31-2.344z"/></g><defs><clipPath id="a"><path fill="#fff" transform="translate(.794)" d="M0 0h78.835v80H0z"/></clipPath></defs></svg>