<svg width="35" height="35" fill="none" xmlns="http://www.w3.org/2000/svg"><path d="M17.504 0h-.008C7.846 0 0 7.849 0 17.5a17.37 17.37 0 0 0 3.332 10.257L1.15 34.258l6.726-2.15A17.349 17.349 0 0 0 17.504 35C27.154 35 35 27.15 35 17.5S27.153 0 17.504 0z" fill="#4CAF50"/><path d="M27.687 24.712c-.422 1.192-2.098 2.181-3.434 2.47-.915.195-2.109.35-6.13-1.317-5.142-2.13-8.454-7.356-8.712-7.695-.248-.34-2.078-2.768-2.078-5.279s1.275-3.734 1.789-4.259c.422-.431 1.12-.628 1.79-.628.216 0 .41.011.585.02.515.022.773.052 1.112.864.422 1.017 1.45 3.528 1.573 3.787.124.258.249.608.074.947-.164.35-.309.505-.567.803-.258.297-.503.524-.76.844-.237.278-.504.575-.207 1.09.298.502 1.326 2.18 2.84 3.528 1.953 1.739 3.537 2.294 4.104 2.53.422.176.925.134 1.233-.194.392-.422.875-1.122 1.368-1.811.35-.495.791-.556 1.255-.381.473.164 2.973 1.4 3.487 1.656.514.258.853.38.978.597.122.217.122 1.234-.3 2.428z" fill="#FAFAFA"/></svg>