<svg width="80" height="80" fill="none" xmlns="http://www.w3.org/2000/svg"><path d="M48.493 40.184c-1.727 1.677-3.548 3.947-5.203 6.991-1.635-5.99-3.696-10.383-5.78-13.599C47.07 1.162.476 0 .476 0s1.36 40.513 25.695 39.583c-.05-2.713-.464-5.456-1.043-8.028a59.242 59.242 0 0 0-1.296-4.752c-1.556-4.895-3.313-8.37-3.313-8.37a130.94 130.94 0 0 1 4.732 6.897c4.774 7.454 7.38 13.252 8.592 16.314 2.99 6.52 5.676 17.242 5.676 34.766 0 1.984 1.589 3.59 3.536 3.59 1.952 0 3.538-1.606 3.538-3.59 0-5.68-.27-10.733-.759-15.24 1.128-5.502 2.83-9.406 4.591-12.172 1.157-2.24 3.29-6.077 6.164-9.994 2.56-3.484 5.716-7.034 9.286-9.568 0 0-7.32 8.223-7.794 16.274 20.221 1.07 21.007-31.214 21.007-31.214S42.08 15.78 48.493 40.184z" fill="#CB9734"/></svg>