<svg width="38" height="24" fill="none" xmlns="http://www.w3.org/2000/svg"><path d="M34.597.501h.705c.214.004.427.022.639.053.187.034.369.094.538.179a1.673 1.673 0 0 1 .778.786c.084.168.142.347.173.532.033.2.052.404.058.607v18.68a4.722 4.722 0 0 1-.058.63 1.746 1.746 0 0 1-.95 1.299c-.17.084-.352.142-.54.175-.21.033-.424.05-.638.053H2.694a4.44 4.44 0 0 1-.639-.053 1.984 1.984 0 0 1-.515-.175 1.802 1.802 0 0 1-.45-.323 1.849 1.849 0 0 1-.328-.444 1.927 1.927 0 0 1-.177-.532 4.122 4.122 0 0 1-.054-.63V2.662c.002-.211.02-.422.054-.63.028-.178.082-.35.158-.513A1.847 1.847 0 0 1 1.54.733c.17-.082.352-.14.539-.175.204-.03.41-.048.615-.053h31.903V.501z" fill="#fff"/><path d="M34.597 0H2.694a4.47 4.47 0 0 0-.723.068 2.382 2.382 0 0 0-.681.22A2.267 2.267 0 0 0 .07 1.945a4.82 4.82 0 0 0-.07.714v18.695c.005.236.026.47.065.703a2.284 2.284 0 0 0 1.22 1.655c.217.105.448.177.686.213.239.042.48.066.723.072h32.62c.24-.007.479-.03.715-.072.236-.039.465-.113.678-.22a2.286 2.286 0 0 0 1.224-1.656c.04-.232.06-.467.061-.702V2.65a4.333 4.333 0 0 0-.061-.707 2.343 2.343 0 0 0-.208-.672 2.259 2.259 0 0 0-.42-.57 2.24 2.24 0 0 0-.596-.413 2.358 2.358 0 0 0-.678-.22A4.517 4.517 0 0 0 35.313 0h-.716zm0 .501h.705c.214.004.427.022.639.053.187.034.369.094.538.179a1.675 1.675 0 0 1 .778.786c.084.168.142.347.173.532.033.2.052.404.058.607v18.68a4.725 4.725 0 0 1-.058.63 1.746 1.746 0 0 1-.95 1.3 1.99 1.99 0 0 1-.54.174c-.21.033-.424.05-.638.053H2.694a4.425 4.425 0 0 1-.638-.053 1.991 1.991 0 0 1-.516-.175 1.8 1.8 0 0 1-.45-.323 1.847 1.847 0 0 1-.328-.444 1.926 1.926 0 0 1-.177-.532 4.124 4.124 0 0 1-.054-.63V2.662c.002-.211.02-.422.054-.63.028-.178.082-.35.158-.513A1.847 1.847 0 0 1 1.54.733c.17-.082.352-.14.539-.175.204-.03.41-.048.615-.053h31.903V.501z" fill="#030404"/><path d="M32.064 9.03l-1.54 4.09c-.094.253-.183.507-.265.76-.038.121-.077.235-.115.345h-.027c-.035-.114-.077-.235-.116-.357-.08-.243-.165-.478-.254-.702L28.134 9.03h-.873l2.332 5.92c.038.073.061.151.07.232a.75.75 0 0 1-.07.236 4.243 4.243 0 0 1-.496.911 5.571 5.571 0 0 1-.509.604 2.91 2.91 0 0 1-.546.429 5.747 5.747 0 0 1-.52.266l-.084.038.28.683.093-.034c.073-.026.212-.091.423-.19.253-.133.487-.298.697-.49.225-.193.424-.414.593-.657.183-.272.35-.555.5-.846.166-.316.335-.68.497-1.075.162-.395.339-.843.52-1.318l1.886-4.709h-.863zm-6.378 4.348a1.303 1.303 0 0 1-.061.346 1.748 1.748 0 0 1-.22.43 1.563 1.563 0 0 1-.354.379c-.15.115-.32.203-.5.262a2.056 2.056 0 0 1-.655.099 1.266 1.266 0 0 1-.416-.084 1.08 1.08 0 0 1-.361-.213 1.02 1.02 0 0 1-.254-.38 1.317 1.317 0 0 1-.097-.539 1.2 1.2 0 0 1 .278-.831c.199-.218.448-.385.727-.486.313-.112.639-.182.97-.21.289-.026.574-.04.84-.04h.103v1.267zm.832 1.257V11.43a4.63 4.63 0 0 0-.089-.884 2.261 2.261 0 0 0-.339-.82 1.842 1.842 0 0 0-.685-.612 2.368 2.368 0 0 0-1.155-.228c-.325 0-.648.044-.962.13-.322.09-.626.232-.9.42l-.062.058.277.638.1-.065c.219-.144.457-.257.708-.334.25-.077.509-.117.77-.118.28-.014.558.048.805.179.184.109.336.263.442.448.1.179.165.374.193.577.028.183.044.369.046.554v.072c-1.213 0-2.16.194-2.787.593-.31.182-.566.442-.74.754a1.984 1.984 0 0 0-.253 1.02c0 .222.04.443.12.652.077.225.203.43.37.602.166.172.368.306.592.393.27.11.559.163.85.156a2.326 2.326 0 0 0 1.282-.345 2.41 2.41 0 0 0 .447-.342 2.06 2.06 0 0 0 .154-.171h.03l.077.718h.79l-.024-.114a4.827 4.827 0 0 1-.057-.726zm-6.325-4.063a2.72 2.72 0 0 1-1.77.524c-.204 0-.385 0-.582-.023a2.577 2.577 0 0 1-.412-.06V7.246c.108 0 .243-.038.385-.054a8.01 8.01 0 0 1 .712-.03c.316-.004.631.036.936.118.257.072.5.19.716.345.198.154.356.353.458.581.113.267.168.554.162.843a1.853 1.853 0 0 1-.624 1.52l.02.003zm.75-3.357a2.569 2.569 0 0 0-.98-.562 4.463 4.463 0 0 0-1.394-.197 9.361 9.361 0 0 0-1.024.053 17.05 17.05 0 0 0-.85.118h-.082v8.836h.817v-3.721c.31.05.624.073.939.072a4.64 4.64 0 0 0 1.29-.175 2.88 2.88 0 0 0 1.03-.531 2.62 2.62 0 0 0 .69-.885c.174-.385.261-.802.254-1.223a2.743 2.743 0 0 0-.181-1.025 2.387 2.387 0 0 0-.508-.76zm-8.16 3.688c.004-.382.106-.756.297-1.088a2.27 2.27 0 0 1 .793-.811 2.338 2.338 0 0 0-.804-.703 2.373 2.373 0 0 0-1.036-.277c-.77-.076-1.54.456-1.925.456s-1.008-.452-1.64-.44a2.476 2.476 0 0 0-1.206.35 2.434 2.434 0 0 0-.872.895c-.886 1.519-.227 3.767.639 4.997.423.604.924 1.28 1.586 1.253.662-.026.877-.406 1.647-.406s.986.406 1.66.38c.673-.027 1.12-.615 1.539-1.22.288-.426.515-.89.673-1.378-.399-.168-.74-.448-.98-.805a2.174 2.174 0 0 1-.37-1.204zm-1.455-3.688a2.16 2.16 0 0 0 .524-1.583 2.285 2.285 0 0 0-1.482.76 2.06 2.06 0 0 0-.527 1.518 1.865 1.865 0 0 0 1.485-.695z" fill="#030404"/></svg>