<svg width="38" height="24" fill="none" xmlns="http://www.w3.org/2000/svg"><path fill-rule="evenodd" clip-rule="evenodd" d="M34.596 0H2.693a4.511 4.511 0 0 0-.723.068A2.356 2.356 0 0 0 .712.703a2.257 2.257 0 0 0-.643 1.241C.03 2.18.005 2.42 0 2.658V21.35c.004.237.026.473.065.707.04.232.115.458.224.668.217.427.567.773 1 .987.214.105.444.177.68.213.24.042.481.066.724.072h32.622c.24-.007.479-.031.715-.072a2.357 2.357 0 0 0 1.258-.634 2.286 2.286 0 0 0 .635-1.234c.04-.234.06-.47.062-.707V2.651a4.344 4.344 0 0 0-.062-.707 2.346 2.346 0 0 0-.223-.672 2.247 2.247 0 0 0-.993-.983 2.356 2.356 0 0 0-.677-.22A4.55 4.55 0 0 0 35.315 0h-.693" fill="#3C4043"/><path fill-rule="evenodd" clip-rule="evenodd" d="M34.596.801h.696c.198.002.396.019.592.05.16.025.314.075.458.148.14.069.27.159.385.266a1.581 1.581 0 0 1 .42.828c.024.187.036.376.034.565V21.33c0 .196-.017.392-.05.585a1.475 1.475 0 0 1-.416.817 1.59 1.59 0 0 1-.385.265c-.143.071-.296.121-.453.149-.197.03-.395.046-.593.049H2.693a4.287 4.287 0 0 1-.581-.03 1.499 1.499 0 0 1-.98-.596 1.474 1.474 0 0 1-.266-.635 3.956 3.956 0 0 1-.05-.585V2.67c.002-.195.018-.39.05-.584.026-.156.076-.308.15-.448.139-.274.364-.497.642-.634.143-.073.296-.123.454-.149.192-.03.386-.046.58-.049h31.904" fill="#FFFFFE"/><path d="M18.296 12.555v3.417h-1.085V7.531h2.874a2.599 2.599 0 0 1 1.842.732 2.446 2.446 0 0 1 .123 3.448l-.123.122a2.58 2.58 0 0 1-1.854.722h-1.777zm0-3.988v2.95h1.816a1.433 1.433 0 0 0 1.07-.436 1.509 1.509 0 0 0-.024-2.096 1.475 1.475 0 0 0-1.035-.418h-1.827zM25.213 10.01c.69-.04 1.368.183 1.896.623a2.275 2.275 0 0 1 .693 1.766v3.562h-1.035v-.771h-.046a2.053 2.053 0 0 1-.762.728 2.086 2.086 0 0 1-1.027.26 2.327 2.327 0 0 1-1.593-.566 1.757 1.757 0 0 1-.643-1.428 1.717 1.717 0 0 1 .678-1.428 2.838 2.838 0 0 1 1.808-.532 3.282 3.282 0 0 1 1.589.35v-.247a1.265 1.265 0 0 0-.443-.965 1.596 1.596 0 0 0-1.046-.399 1.66 1.66 0 0 0-.817.193c-.251.133-.463.329-.614.567l-.954-.6a2.596 2.596 0 0 1 1.001-.871c.405-.2.855-.292 1.307-.268l.008.026zm-1.397 4.178a.867.867 0 0 0 .354.706c.235.192.53.297.835.296a1.723 1.723 0 0 0 1.216-.505 1.596 1.596 0 0 0 .538-1.192 2.18 2.18 0 0 0-1.412-.38c-.393-.012-.779.1-1.104.319a.95.95 0 0 0-.427.77v-.014z" fill="#3C4043"/><path fill-rule="evenodd" clip-rule="evenodd" d="M33.75 10.196l-3.62 8.317h-1.116l1.342-2.91-2.373-5.407h1.177l1.715 4.15h.024l1.673-4.15h1.177z" fill="#3C4043"/><path fill-rule="evenodd" clip-rule="evenodd" d="M13.918 11.814c.004-.33-.019-.658-.069-.984H9.271v1.865h2.616a2.219 2.219 0 0 1-.332.835 2.25 2.25 0 0 1-.637.638v1.212h1.562a4.763 4.763 0 0 0 1.099-1.634 4.713 4.713 0 0 0 .34-1.932z" fill="#4285F4"/><path fill-rule="evenodd" clip-rule="evenodd" d="M9.271 16.553a4.616 4.616 0 0 0 3.208-1.173l-1.561-1.212a2.878 2.878 0 0 1-1.647.468 2.92 2.92 0 0 1-1.694-.564 2.86 2.86 0 0 1-1.037-1.438H4.947v1.253a4.788 4.788 0 0 0 1.777 1.943 4.875 4.875 0 0 0 2.547.723z" fill="#34A853"/><path fill-rule="evenodd" clip-rule="evenodd" d="M6.54 12.634a2.896 2.896 0 0 1 0-1.857V9.532H4.947a4.813 4.813 0 0 0 0 4.348l1.593-1.246z" fill="#FBBC04"/><path fill-rule="evenodd" clip-rule="evenodd" d="M9.271 8.776a2.619 2.619 0 0 1 1.854.718l1.39-1.39A4.677 4.677 0 0 0 9.27 6.847c-.9.002-1.781.252-2.545.721a4.796 4.796 0 0 0-1.779 1.937l1.593 1.276a2.857 2.857 0 0 1 1.035-1.44 2.918 2.918 0 0 1 1.696-.565z" fill="#EA4335"/></svg>