<svg width="683" height="43" fill="none" xmlns="http://www.w3.org/2000/svg"><g clip-path="url(#a)" fill="#D7D7BD"><path d="M666.258 24.712v-6.32H655.72v15.7h20.497V9.025H645.39v28.587h-6.247V9.025h-30.827v25.067h20.497v-15.7h-10.538v6.32h4.254v3.06h-7.93V15.344h18.261v22.267h-57.219V15.345h18.26v12.426h-7.93v-3.059h4.254v-6.32h-10.538v15.7h20.498V9.025h-30.828v28.587h-6.246V9.025h-30.828v25.067h20.497v-15.7h-10.537v6.32h4.254v3.06h-7.93V15.344h18.26v22.267h-57.22V15.345h18.261v12.426h-7.93v-3.059h4.254v-6.32h-10.538v15.7h20.498V9.025h-30.828v28.587h-6.246V9.025h-30.829v25.067h20.497v-15.7h-10.534v6.32h4.25v3.06h-7.929V15.344h18.261v22.267h-57.22V15.345h18.262v12.426h-7.929v-3.059h4.25v-6.32h-10.534v15.7h20.497V9.025h-30.83v28.587h-6.244V9.025h-30.83v25.067h20.497v-15.7h-10.534v6.32h4.25v3.06H386.5V15.344h18.262v22.267h-57.221V15.345h18.262v12.426h-7.929v-3.059h4.251v-6.32H351.59v15.7h20.497V9.025h-30.83v28.587h-6.244V9.025h-30.83v25.067h20.497v-15.7h-10.534v6.32h4.25v3.06h-7.929V15.344h18.262v22.267h-57.221V15.345h18.262v12.426h-7.929v-3.059h4.251v-6.32h-10.535v15.7h20.497V9.025h-30.83v28.587h-6.244V9.025h-30.829v25.067h20.496v-15.7h-10.534v6.32h4.251v3.06h-7.93V15.344h18.263v22.267h-57.222V15.345h18.263v12.426h-7.93v-3.059h4.251v-6.32h-10.534v15.7h20.496V9.025h-30.829v28.587h-6.245V9.025h-30.829v25.067h20.497v-15.7h-10.534v6.32h4.25v3.06h-7.93V15.344h18.263v22.267h-57.221V15.345h18.262v12.426h-7.93v-3.059h4.251v-6.32h-10.534v15.7h20.496V9.025h-30.829v28.587h-6.244V9.025h-30.83v25.067h20.497v-15.7H86.048v6.32h4.25v3.06h-7.93V15.344h18.263v22.267H43.41V15.345h18.262v12.426h-7.93v-3.059h4.252v-6.32H47.459v15.7h20.497V9.025h-30.83v28.587h-6.244V9.025H.052v25.067H20.55v-15.7H10.015v6.32h4.25v3.06h-7.93V15.344h18.263v22.267H0v6.32h682.99v-6.32h-31.317V15.345h18.26v12.426h-7.93v-3.059h4.255zM682.99-.96H0v6.32h682.99V-.96z"/></g><defs><clipPath id="a"><path fill="#fff" d="M0 0h683v43H0z"/></clipPath></defs></svg>