<svg width="275" height="57" fill="none" xmlns="http://www.w3.org/2000/svg"><path d="M35.293 26.45v1.347c0 .438-.02.888-.062 1.346a23.927 23.927 0 0 0-2-1.063c-5.918-2.917-8.876-6.419-8.876-10.504 0-3.251 1.833-6.273 5.5-9.066 3.625 4.748 5.438 10.734 5.438 17.94zm18.44-20.945c-.293.17-.55.312-.78.442-.23.12-.45.27-.658.433-.125.088-.188.063-.188-.058 0-.167.02-.355.063-.567.041-.288.041-.517 0-.684-.542-3.043-2.917-4.568-7.126-4.568h-.688c-.25 0-.5.025-.75.066-4.167.46-8.73 2.23-13.688 5.315C26.542 2.466 22.313.753 17.229.753c-3.042 0-6.021.688-8.938 2.067-2.209 1-4 2.668-5.376 5.002-1.046 1.83-1.666 3.673-1.887 5.528a.983.983 0 0 0-.017.108c0 .017 0 .033-.004.05-.013.167-.033.463-.033.855 0 .633.05 1.538.245 2.596.1.53.242 1.097.425 1.689.196.583.417 1.196.717 1.796A12.99 12.99 0 0 0 3.4 22.232c.387.584.854 1.126 1.333 1.651.25.254.5.504.763.742.27.23.525.471.804.68.55.429 1.117.812 1.688 1.15.287.162.562.333.845.475.288.142.563.28.834.417.558.233 1.075.475 1.575.642.25.087.488.17.713.254.229.067.445.134.65.196.408.125.766.23 1.066.292.446.108.746.183.871.212-.12-.037-.42-.12-.862-.25a13.32 13.32 0 0 1-1.05-.337c-.2-.067-.413-.142-.638-.221-.22-.088-.454-.184-.696-.28-.492-.183-.996-.446-1.533-.7-.263-.146-.534-.292-.809-.442-.27-.15-.537-.333-.812-.504a15.805 15.805 0 0 1-1.605-1.192c-.266-.213-.504-.463-.758-.692-.242-.242-.475-.496-.708-.75-.442-.526-.867-1.068-1.217-1.643a11.915 11.915 0 0 1-.921-1.746c-.263-.588-.45-1.18-.613-1.738a14.927 14.927 0 0 1-.337-1.614 13.362 13.362 0 0 1-.13-2.455c.01-.292.034-.52.05-.675l.026-.213.004-.016c.183-1.793.75-3.573 1.733-5.34C4.874 6.009 6.52 4.467 8.603 3.508c2.626-1.25 5.272-1.876 7.938-1.876 4.584 0 8.543 1.73 11.877 5.19-4.793 3.293-7.189 6.811-7.189 10.562 0 2.714 1.188 5.194 3.563 7.441 1.417 1.38 3.771 2.964 7.063 4.752.584.338 1.125.68 1.625 1.034s.98.7 1.438 1.034c-.833 5.418-2.688 9.812-5.563 13.188-3.167 3.797-7.271 5.882-12.313 6.257-.25.079-.376.225-.376.438.084.245.23.35.438.312 4.959-.38 9.147-2.46 12.564-6.252 3.042-3.419 5.104-7.795 6.188-13.13 2.625 2.371 3.938 4.935 3.938 7.686 0 3.005-1.438 5.652-4.313 7.945-3.126 2.5-7.293 4.143-12.501 4.935a58.322 58.322 0 0 1-3.968.47 45.55 45.55 0 0 1-3.72.155c-3.668 0-6.53-.467-8.593-1.405-2.063-.938-3.096-2.28-3.096-4.03 0-.667.167-1.388.5-2.16.333-.77.875-1.55 1.625-2.342s1.742-1.597 2.971-2.41c1.23-.812 2.759-1.592 4.592-2.346 3.917-1.58 7.5-2.372 10.751-2.372 1.042 0 2.084.104 3.125.313.875.208 1.313.145 1.313-.192 0-.121-.146-.267-.438-.434-1.416-.792-3.208-1.188-5.375-1.188-3.334 0-7.063.876-11.188 2.622-3.75 1.63-6.355 3.235-7.814 4.819C1.874 44.44.978 46.396.978 48.4c0 2.33 1.25 4.252 3.75 5.753 2.667 1.538 6.292 2.309 10.876 2.309 2.25 0 4.667-.184 7.25-.559 5.418-.838 10.21-2.713 14.377-5.627 4.584-3.21 6.875-6.586 6.875-10.133 0-3.706-2.604-7.166-7.813-10.375.084-.75.159-1.513.221-2.284a29 29 0 0 0 .092-2.347c0-7.166-1.771-13.043-5.313-17.628 3.625-2.335 7.646-3.71 12.063-4.127.375-.042.73-.075 1.063-.096.333-.02.667-.033 1-.033 3.5 0 5.25 1.046 5.25 3.126 0 .755-.25 1.626-.75 2.63-1.291 2.46-1.937 4.023-1.937 4.69 0 .246.104.375.312.375.709 0 2.605-1.667 5.688-5.002.709-.959 1.063-1.834 1.063-2.63 0-.663-.438-.976-1.313-.938z" fill="#674D21"/><path d="M1.011 13.351v0z" fill="#030404"/><path d="M11.325 27.904a27.283 27.283 0 0 0 .22.624 21.77 21.77 0 0 0 .521 1.272c.017.036.032.072.05.108.113.246.231.491.35.716.06.112.114.222.174.322.058.1.111.197.164.284l.147.234c.043.071.087.128.12.177l.103.15-.087-.16c-.027-.053-.063-.114-.098-.189a59.595 59.595 0 0 1-.12-.247c-.043-.09-.085-.192-.132-.297-.047-.105-.089-.22-.137-.335a16.884 16.884 0 0 1-.498-1.492 21.075 21.075 0 0 1-.234-.889c-.184-.09-.365-.183-.543-.278z" fill="#674D21"/><path d="M13.77 31.499c-.422-.307-.741-.775-.713-1.046.028-.271.393-.244.813.064.423.306.741.774.713 1.045-.028.271-.392.243-.814-.063zm-2.49 1.789c.67 1.404 2.061 2.137 3.11 1.637 1.048-.5 1.356-2.043.687-3.447-.6-1.26-1.782-1.98-2.776-1.753a1.598 1.598 0 0 0-.333.116c-1.049.5-1.356 2.042-.688 3.447z" fill="#030404"/><path d="M5.88 24.533c.17.19.343.376.523.561h.189c.24-.003.52-.007.82-.017a26.453 26.453 0 0 0 1.873-.127l.43-.053.382-.06c.118-.02.225-.043.32-.062.096-.017.178-.038.246-.054l.209-.052-.214.027c-.069.009-.152.022-.248.028-.096.007-.205.018-.323.025l-.383.018-.428.006a21.604 21.604 0 0 1-.929-.023 30.097 30.097 0 0 1-1.732-.132c-.363-.037-.63-.072-.734-.085z" fill="#674D21"/><path d="M9.658 22.706c.463-.414 1.09-.667 1.4-.566.308.101.183.519-.28.932-.464.414-1.09.668-1.399.566-.31-.1-.184-.519.28-.932zM8.39 24.75v.003c.022.092.05.181.084.268.468 1.177 2.077 1.8 3.759 1.404 1.805-.425 3.01-1.863 2.693-3.211-.317-1.349-2.038-2.098-3.843-1.673-1.803.425-3.007 1.86-2.693 3.209z" fill="#030404"/><path d="M7.615 25.935l-.006.206a23.983 23.983 0 0 0 .014 1.287c.009.235.023.482.04.731.005.044.007.087.01.13l.04.436c.018.143.03.285.051.42.02.137.035.268.058.391.021.125.04.242.061.35.024.107.045.205.062.292.018.087.041.162.056.223l.05.192a13.595 13.595 0 0 0-.026-.196c-.007-.063-.02-.139-.027-.227-.01-.088-.017-.188-.028-.296-.007-.108-.011-.227-.02-.35-.005-.124-.005-.256-.008-.391-.004-.136.001-.276.001-.418l.012-.432c0-.035.003-.07.005-.106a23.843 23.843 0 0 1 .163-1.819c-.162-.138-.32-.278-.474-.419l-.034-.004z" fill="#674D21"/><path d="M8.765 30.524c-.312-.47-.459-1.063-.328-1.327.13-.264.488-.098.8.37.311.47.458 1.063.327 1.328-.13.263-.488.097-.8-.37zm-3.193.874c.15 1.674 1.283 2.94 2.532 2.828 1.25-.111 2.142-1.557 1.992-3.231-.133-1.495-1.05-2.663-2.137-2.817a1.789 1.789 0 0 0-.395-.01c-1.25.11-2.14 1.558-1.992 3.23z" fill="#030404"/><path d="M2.375 28.469c.372-.86.64-1.822.785-2.847.255-1.783-.517-3.607-.982-5.492.174 3.204.454 4.926-.522 7.875.304-2.465.322-5.063.052-7.678-.47.19-.805.703-1.053 1.265-.527 1.193-.747 2.685-.62 4.213a11.09 11.09 0 0 0 .98 3.698c.053.115.255.64.346.672.099.036.312-.394.371-.487.24-.377.455-.785.643-1.22zM11.987 19.75c-.943.436-2.002.757-3.134.945-1.97.328-4.01-.48-6.11-.949 3.555.111 5.47.378 8.711-.78-2.723.4-5.602.487-8.506.255.198-.526.758-.91 1.375-1.2 1.308-.616 2.956-.898 4.652-.796 1.405.084 2.838.43 4.123.991.129.056.716.267.754.367.042.108-.428.356-.53.424a9.68 9.68 0 0 1-1.335.744zM20.365 30.424a10.46 10.46 0 0 1-2.756.285c-1.69-.041-3.257-1.039-4.928-1.762 2.938.658 4.486 1.185 7.366.739a32.138 32.138 0 0 1-7.11-1.143c.247-.407.774-.636 1.333-.78 1.186-.302 2.6-.274 3.994.08 1.155.295 2.29.811 3.268 1.482.099.067.553.336.57.425.017.097-.414.228-.51.268a8.21 8.21 0 0 1-1.227.406z" fill="#1C4E2B"/><path d="M62.36 34.647c-3.46-.083-6.439 2.334-8.939 7.253-.709 1.334-1.063 2.521-1.063 3.563 0 1.126.396 1.688 1.188 1.688.75 0 1.729-.5 2.938-1.5 2.166-1.834 3.583-3.668 4.25-5.503.291-2.083.833-3.917 1.625-5.501zM77.922 42.9c-4.875 5.169-9.022 7.565-12.438 7.19-1.126-.125-2.168-.813-3.126-2.063-.959-1.417-1.542-3.19-1.75-5.315a36.223 36.223 0 0 1-2.406 2.97 24.114 24.114 0 0 1-2.594 2.47c-1.668 1.334-3.043 2-4.126 2-1.542 0-2.312-.978-2.312-2.938 0-1.667.584-3.397 1.75-5.19 2.708-4.126 5.75-6.981 9.126-8.565 1.458-.667 2.812-1 4.063-1 .332 0 .697.052 1.093.155.396.105.77.25 1.125.438.354.188.646.407.876.657.228.25.343.542.343.875 0 .125-.073.24-.218.344a1.872 1.872 0 0 1-.5.25 4.035 4.035 0 0 0-.532.219c-.167.084-.25.146-.25.188-1.542 2.792-2.313 5.46-2.313 8.002 0 3.169 1.23 4.752 3.688 4.752 2.583 0 5.813-2.063 9.689-6.19.29-.375.583-.562.875-.562.208 0 .312.146.312.437 0 .334-.125.625-.375.876z" fill="#674D21"/><path d="M112.364 42.65c-4.585 5.003-8.46 7.504-11.626 7.504-3.418 0-4.96-3.19-4.626-9.567-.292.292-.656.7-1.094 1.22-.437.521-.99 1.198-1.656 2.031l-3.75 5.628c-.792.916-1.5 1.25-2.125 1-.668-.167-.918-.583-.75-1.25l.187-2c.083-.667.145-1.293.188-1.877.04-.583.082-1.125.125-1.626.165-3.417-.23-5.127-1.188-5.127-.792 0-2.022.876-3.688 2.627-1.125 1.125-2.397 2.938-3.813 5.44-1.25 2.21-2 3.376-2.25 3.5-.25.126-.5.189-.75.189-.583 0-.875-.396-.875-1.189 0-.25.022-.438.062-.563.292-.625.688-1.51 1.188-2.657.5-1.146 1.103-2.553 1.813-4.22 1.75-4.043 2.625-6.503 2.625-7.378.125-.25.79-.666 2-1.25 1.333-.626 2-.459 2 .5l-2 6.127c.333-.333.74-.719 1.219-1.157a63.31 63.31 0 0 1 1.594-1.406 3.944 3.944 0 0 1 2.125-.626c1.958 0 3.063 1.21 3.313 3.626 0 .043-.022.595-.063 1.658l-.187 4.782c1.29-2 3.853-5.564 7.688-10.69.75-1.002 1.583-1.502 2.5-1.502.458 0 .688.25.688.75 0 .126-.011.25-.032.376a6.008 6.008 0 0 1-.093.438c-1.042 3.501-1.563 6.273-1.563 8.315 0 2.668.916 4.002 2.75 4.002 1.5 0 3.188-.75 5.063-2.251.333-.291.844-.77 1.531-1.438a100.72 100.72 0 0 0 2.532-2.564c.291-.29.541-.437.75-.437.166 0 .291.125.375.375.083.25.021.48-.187.687z" fill="#674D21"/><path d="M145.615 29.144c.041-.459.062-.907.062-1.345v-1.344c0-7.21-1.813-13.193-5.438-17.944-3.667 2.792-5.5 5.814-5.5 9.066 0 4.085 2.958 7.586 8.876 10.504.625.292 1.29.646 2 1.063zM141.677 7.51c3.541 4.586 5.313 10.463 5.313 17.632 0 .792-.031 1.574-.094 2.345a76.31 76.31 0 0 1-.219 2.282c5.209 3.21 7.813 6.67 7.813 10.379 0 3.543-2.292 6.92-6.875 10.129-4.168 2.917-8.96 4.793-14.376 5.627-2.584.376-5.001.563-7.251.563-4.584 0-8.21-.772-10.876-2.313-2.5-1.501-3.75-3.419-3.75-5.753 0-2 .896-3.96 2.687-5.877 1.458-1.584 4.063-3.188 7.814-4.815 4.125-1.75 7.854-2.625 11.188-2.625 2.166 0 3.959.396 5.376 1.188.291.167.437.312.437.437 0 .334-.437.397-1.313.188a15.884 15.884 0 0 0-3.124-.313c-3.251 0-6.836.793-10.752 2.376-1.834.75-3.365 1.532-4.594 2.345-1.23.813-2.219 1.616-2.969 2.407-.75.792-1.292 1.574-1.625 2.344-.334.773-.5 1.491-.5 2.158 0 1.75 1.031 3.095 3.094 4.032 2.063.938 4.927 1.407 8.594 1.407 1.208 0 2.448-.052 3.72-.156 1.27-.104 2.593-.26 3.969-.469 5.208-.792 9.375-2.438 12.501-4.94 2.875-2.291 4.313-4.939 4.313-7.94 0-2.751-1.313-5.315-3.938-7.69-1.084 5.336-3.147 9.712-6.188 13.13-3.417 3.793-7.605 5.877-12.564 6.252-.209.041-.354-.062-.437-.313 0-.209.125-.354.375-.437 5.041-.375 9.146-2.46 12.313-6.253 2.875-3.376 4.729-7.773 5.563-13.192-.459-.334-.937-.677-1.438-1.032-.5-.354-1.042-.698-1.625-1.032-3.292-1.791-5.646-3.376-7.062-4.752-2.376-2.25-3.563-4.73-3.563-7.44 0-3.752 2.395-7.274 7.188-10.567-3.334-3.46-7.293-5.19-11.876-5.19-2.668 0-5.313.626-7.938 1.877-2.085.959-3.731 2.5-4.939 4.626-1.208 2.168-1.812 4.356-1.812 6.566 0 1.834.416 3.418 1.25 4.752 1.541 2.417 3.875 3.626 7 3.626 2.792 0 4.917-1.063 6.376-3.19.125-.165.271-.228.438-.186.166.041.25.167.25.375 0 1-.959 1.897-2.876 2.688-1.75.71-3.187 1.063-4.313 1.063-3.417 0-6-1.313-7.75-3.94-.875-1.416-1.313-3.083-1.313-5.001 0-2.376.666-4.73 2-7.065 1.375-2.334 3.167-4.002 5.376-5.002 2.916-1.376 5.896-2.064 8.938-2.064 5.083 0 9.314 1.71 12.689 5.128C145.26 2.8 149.823 1.029 153.99.57c.251-.041.5-.063.751-.063h.687c4.209 0 6.584 1.522 7.126 4.565.04.166.04.396 0 .687a2.89 2.89 0 0 0-.063.563c0 .125.063.146.188.062.208-.166.427-.312.656-.437.229-.125.49-.27.781-.438.875-.04 1.313.272 1.313.938 0 .792-.354 1.668-1.063 2.626-3.084 3.335-4.98 5.002-5.688 5.002-.208 0-.312-.125-.312-.375 0-.666.646-2.23 1.937-4.69.501-1 .751-1.875.751-2.626 0-2.083-1.751-3.126-5.251-3.126-.334 0-.667.01-1 .032-.334.021-.687.052-1.063.094-4.417.416-8.438 1.792-12.063 4.126zM185.806 35.71c-.209 2.168-.897 3.836-2.063 5.002a5.09 5.09 0 0 0 1.532 2.626c.77.71 1.656 1.063 2.656 1.063 1.458 0 2.833-.77 4.126-2.314.458-.54.791-.645 1-.312.208.417.103.772-.313 1.063-1.667 1.668-3.438 2.5-5.313 2.5-1.959 0-3.5-.874-4.625-2.625-.917 2.376-2.063 4.252-3.438 5.627-1.375 1.376-2.667 2.063-3.875 2.063-1.835 0-2.751-1.375-2.751-4.126 0-.292.01-.573.032-.844.02-.27.051-.552.093-.844-.208.209-1.042 1.375-2.5 3.5-1.084 1.544-2.355 2.825-3.813 3.846-1.459 1.021-2.772 1.532-3.937 1.532-1.96 0-2.938-1.375-2.938-4.127 0-.958.167-2.208.5-3.751.416-1.876 1.312-3.917 2.688-6.127 1.083-1.751 2.228-3.168 3.437-4.252.833-.791 1.688-1.188 2.563-1.188.791 0 1.188.292 1.188.875 0 .21-.084.397-.25.563-1.917 1.918-3.876 4.961-5.876 9.129-1.209 2.626-1.813 4.523-1.813 5.69 0 1.083.438 1.625 1.313 1.625 1.708 0 3.729-1.48 6.063-4.44a32.146 32.146 0 0 0 3.094-4.814c.896-1.708 1.76-3.396 2.594-5.064.166-.375.729-.563 1.688-.563 1.041 0 1.562.397 1.562 1.188-.541.96-1 1.876-1.375 2.752-.375.875-.709 1.709-1 2.5-.459 1.376-.687 2.46-.687 3.251 0 1.168.395 1.752 1.187 1.752s1.75-.647 2.876-1.94c1.166-1.29 2.103-2.916 2.812-4.876-.709-1.458-.959-3.126-.75-5.002.208-2.709 1.041-4.064 2.5-4.064.583 0 1.052.281 1.407.844.354.563.489 1.324.406 2.282z" fill="#674D21"/><path d="M202.431 37.02c.792-1.334 1.188-2.48 1.188-3.44 0-.75-.25-1.124-.75-1.124-.875 0-2.084 1.021-3.625 3.063-1.501 2.085-2.689 4.169-3.563 6.253 3.291-1.042 5.542-2.626 6.75-4.752zm11.501 5.877c-1.5 1.834-3.875 3.586-7.125 5.253-3.584 1.875-6.71 2.813-9.376 2.813-3.875 0-5.813-2.126-5.813-6.378 0-1.541.52-3.376 1.563-5.502 1.041-2.25 2.353-4.126 3.937-5.627 1.791-1.709 3.479-2.563 5.063-2.563 2.083 0 3.125 1.021 3.125 3.063 0 1.25-.542 2.585-1.625 4.002-1.917 2.376-4.709 4.023-8.376 4.939a9.855 9.855 0 0 0-.249 2.25c0 2.836 1.312 4.253 3.938 4.253 2.083 0 4.666-.854 7.75-2.564 1.416-.791 2.646-1.573 3.688-2.345 1.041-.77 1.916-1.552 2.625-2.344.791-.834 1.188-.875 1.188-.125 0 .25-.105.542-.313.875z" fill="#674D21"/><path d="M223.557 37.02c.791-1.334 1.188-2.48 1.188-3.44 0-.75-.25-1.124-.75-1.124-.875 0-2.085 1.021-3.626 3.063-1.5 2.085-2.687 4.169-3.563 6.253 3.292-1.042 5.542-2.626 6.751-4.752zm11.501 5.877c-1.5 1.834-3.875 3.586-7.126 5.253-3.584 1.875-6.709 2.813-9.375 2.813-3.875 0-5.813-2.126-5.813-6.378 0-1.541.52-3.376 1.562-5.502 1.041-2.25 2.354-4.126 3.938-5.627 1.791-1.709 3.479-2.563 5.063-2.563 2.083 0 3.125 1.021 3.125 3.063 0 1.25-.542 2.585-1.625 4.002-1.917 2.376-4.709 4.023-8.376 4.939-.167.71-.25 1.46-.25 2.25 0 2.836 1.313 4.253 3.938 4.253 2.083 0 4.667-.854 7.751-2.564 1.416-.791 2.646-1.573 3.688-2.345 1.041-.77 1.916-1.552 2.625-2.344.791-.834 1.187-.875 1.187-.125 0 .25-.104.542-.312.875z" fill="#674D21"/><path d="M234.496 32.771h.906c.312 0 .635-.02.969-.063a4.15 4.15 0 0 1 .781-.062h.969c.291-.541.708-1.313 1.25-2.313.541-1 1.229-2.251 2.063-3.752.458-.834 1-1.73 1.625-2.689.625-.958 1.333-2.021 2.125-3.188.833-.834 1.959-1.25 3.375-1.25 1.209 0 1.813.312 1.813.937 0 .125-.062.271-.187.437-.876 1.21-1.98 2.794-3.313 4.753a315.136 315.136 0 0 0-4.688 7.127h9.751c.625.21.937.48.937.813 0 .626-.75 1.022-2.25 1.188-.25.042-1.167.063-2.75.063-1.584 0-3.876.021-6.876.062-2.042 3.836-3.063 6.962-3.063 9.379 0 2.71 1.167 4.064 3.501 4.064 1.166 0 2.416-.375 3.75-1.126a22.168 22.168 0 0 0 2.844-2.032c.979-.813 2.01-1.802 3.094-2.97.416-.416.751-.603 1-.562.208 0 .313.146.313.437 0 .25-.105.522-.313.813-4.709 4.961-8.751 7.378-12.125 7.253-2.668-.083-4.273-1.458-4.813-4.127a12.213 12.213 0 0 1-.188-1.25 12.448 12.448 0 0 1-.063-1.25c0-2.542.708-5.419 2.126-8.629-.917.042-1.574.063-1.97.063-.396 0-.51.021-.343.062-.959-.125-1.48-.541-1.563-1.25-.125-.625.313-.938 1.313-.938z" fill="#674D21"/><path d="M256.436 48.528c-1.626-.541-3.022-1.396-4.188-2.564 0 .876.302 1.595.906 2.157.604.563 1.26.844 1.969.844.583 0 1.021-.145 1.313-.437zm8.375-.938c3.542-.876 6.584-2.751 9.126-5.627a.782.782 0 0 1 .687-.375c.251 0 .376.167.376.5 0 .334-.147.646-.438.937-3.5 3.377-6.813 5.337-9.938 5.878-2.167.375-4.188.417-6.063.125-.626 1.125-1.584 1.688-2.875 1.688-.96 0-1.835-.303-2.626-.907-.792-.603-1.292-1.343-1.5-2.22-.459-1.666-.521-2.666-.188-3 .042-.541.292-.813.75-.813.126 0 .229.042.313.125 1.208 1.46 2.751 2.563 4.626 3.314.041-.5-.042-1.146-.251-1.939a9.895 9.895 0 0 0-.593-1.5c-.23-.458-.49-.896-.782-1.313-1.584-2.167-2.271-4.355-2.062-6.565.375-4.418 3.333-7.649 8.876-9.691 1.832-.667 3.583-.897 5.25-.689 1.875.25 2.813 1.273 2.813 3.064 0 1.335-.438 2.627-1.313 3.877-.375.5-.709.813-1 .938-.292.042-.437-.083-.437-.376 0-.166.103-.458.312-.875.458-.833.687-1.541.687-2.125 0-1.042-.687-1.564-2.062-1.564-.167 0-.344.011-.531.031a7.604 7.604 0 0 0-.594.094c-4.542.835-7.585 3.46-9.126 7.878-.209.751-.312 1.398-.312 1.939 0 1.167.5 2.585 1.499 4.251 1.042 1.71 1.584 3.064 1.626 4.064v.563c0 .167-.022.334-.063.5 1.875.376 3.813.313 5.813-.187z" fill="#674D21"/></svg>