<svg width="80" height="80" fill="none" xmlns="http://www.w3.org/2000/svg"><g clip-path="url(#a)"><path d="M74.374 38.444c-.248-.053-.481-.103-.69-.158-2.355-.621-3.43-.962-4.225-2.52l-3.011-6.186c-.968-1.896-3.467-3.438-5.57-3.438h-5.362v-7.145c0-1.282-1.028-2.326-2.292-2.326l-37.34.038c-1.23 0-2.158.992-2.158 2.308v2.112H4.161c-1.976 0-3.583 1.63-3.583 3.635S2.185 28.4 4.161 28.4h9.565v3.484H7.463c-1.975 0-3.582 1.63-3.582 3.635s1.607 3.636 3.582 3.636h6.263v3.484h-2.96c-1.975 0-3.583 1.63-3.583 3.635s1.608 3.636 3.583 3.636h2.96v3.644c0 1.283 1.028 2.326 2.292 2.326h3.884c.605 4.208 4.184 7.45 8.495 7.45 4.312 0 7.89-3.242 8.495-7.45h15.72c.08 0 .165-.005.248-.01.6 4.212 4.18 7.46 8.496 7.46 4.312 0 7.89-3.242 8.495-7.45h5.579c2.196 0 3.983-1.813 3.983-4.041v-6.858c0-5.465-3.033-6.11-5.04-6.537zM61.356 51.45c1.721 0 3.122 1.42 3.122 3.167 0 1.747-1.4 3.168-3.122 3.168-1.72 0-3.12-1.421-3.12-3.168 0-1.746 1.4-3.167 3.12-3.167zm-5.84-13.499v-8.436h4.097c1.575 0 3.517 1.2 4.238 2.611l2.68 5.506c.056.11.115.217.176.319h-11.19zM31.52 54.617c0 1.746-1.4 3.167-3.122 3.167-1.72 0-3.12-1.42-3.12-3.167 0-1.746 1.4-3.167 3.12-3.167 1.722 0 3.122 1.42 3.122 3.167z" fill="#CB9734"/></g><defs><clipPath id="a"><path fill="#fff" transform="translate(.578)" d="M0 0h78.835v80H0z"/></clipPath></defs></svg>