<svg width="50" height="50" fill="none" xmlns="http://www.w3.org/2000/svg"><path d="M49.984 0H0v49.984h49.984V0z"/><path d="M32.683 30.481a3.29 3.29 0 0 0-3.287 3.286 3.29 3.29 0 0 0 3.287 3.287 3.29 3.29 0 0 0 3.286-3.287 3.29 3.29 0 0 0-3.286-3.286zm0 4.601a1.316 1.316 0 0 1 0-2.63 1.316 1.316 0 0 1 0 2.63zM37.962 17.778a.984.984 0 0 0-.777-.378H17.9l-.887-3.713a.986.986 0 0 0-.96-.757H12.8a.986.986 0 1 0 0 1.972h2.475L18.48 28.31a.986.986 0 0 0 .959.757h15.348a.986.986 0 0 0 .957-.749l2.4-9.695a.987.987 0 0 0-.181-.845zm-3.947 9.317H20.216l-1.846-7.723h17.555l-1.91 7.723zM20.753 30.481a3.29 3.29 0 0 0-3.287 3.286 3.29 3.29 0 0 0 3.287 3.287 3.29 3.29 0 0 0 3.286-3.287 3.29 3.29 0 0 0-3.286-3.286zm0 4.601a1.316 1.316 0 0 1 0-2.63 1.316 1.316 0 0 1 0 2.63z" fill="#fff"/></svg>