<svg width="82" height="24" fill="none" xmlns="http://www.w3.org/2000/svg"><path d="M30.067 23.302L34.232.355h6.508l-4.035 22.947h-6.638z" fill="#3C58BF"/><path d="M30.067 23.302L35.403.355h5.337l-4.035 22.947h-6.638z" fill="#293688"/><path d="M60.264.61C58.962.1 56.879-.41 54.276-.41c-6.508 0-11.194 3.187-11.194 7.776 0 3.443 3.255 5.227 5.858 6.375 2.603 1.147 3.384 1.912 3.384 2.932 0 1.53-2.083 2.294-3.905 2.294-2.603 0-4.035-.382-6.248-1.274l-.91-.383-.912 5.227c1.562.637 4.426 1.275 7.42 1.275 6.898 0 11.453-3.187 11.453-8.032 0-2.677-1.692-4.716-5.597-6.374-2.343-1.147-3.774-1.785-3.774-2.932 0-1.02 1.171-2.04 3.774-2.04 2.213 0 3.775.383 4.946.893l.651.255L60.263.61z" fill="#3C58BF"/><path d="M60.264.61C58.962.1 56.879-.41 54.276-.41c-6.508 0-10.022 3.187-10.022 7.776 0 3.443 2.083 5.227 4.686 6.375 2.603 1.147 3.384 1.912 3.384 2.932 0 1.53-2.083 2.294-3.905 2.294-2.603 0-4.035-.382-6.248-1.274l-.91-.383-.912 5.227c1.562.637 4.426 1.275 7.42 1.275 6.898 0 11.453-3.187 11.453-8.032 0-2.677-1.692-4.716-5.597-6.374-2.343-1.147-3.774-1.785-3.774-2.932 0-1.02 1.171-2.04 3.774-2.04 2.213 0 3.775.383 4.946.893l.651.255L60.263.61z" fill="#293688"/><path d="M71.457.355c-1.562 0-2.733.127-3.384 1.657l-9.762 21.29h7.029l1.301-3.825h8.33l.781 3.825H82L76.533.355h-5.076zm-2.993 15.298c.39-1.148 2.603-6.757 2.603-6.757s.52-1.402.91-2.294l.391 2.167s1.302 5.736 1.562 7.011h-5.467v-.127z" fill="#3C58BF"/><path d="M73.019.355c-1.562 0-2.733.127-3.384 1.657L58.31 23.302h7.029l1.301-3.825h8.33l.781 3.825H82L76.533.355H73.02zm-4.556 15.298c.521-1.275 2.604-6.757 2.604-6.757s.52-1.402.91-2.294l.391 2.167s1.302 5.736 1.562 7.011h-5.467v-.127z" fill="#293688"/><path d="M18.092 16.418l-.65-3.315C16.27 9.28 12.494 5.072 8.33 3.033l5.857 20.396h7.029L31.759.482H24.73l-6.638 15.936z" fill="#3C58BF"/><path d="M18.092 16.418l-.65-3.315C16.27 9.28 12.494 5.072 8.33 3.033l5.857 20.396h7.029L31.759.482h-5.727l-7.94 15.936z" fill="#293688"/><path d="M0 .355L1.171.61c8.33 1.912 14.058 6.757 16.27 12.493L15.098 2.267C14.708.737 13.536.355 12.105.355H0z" fill="#FFBC00"/><path d="M0 .355c8.33 1.912 15.229 6.884 17.441 12.62l-2.212-9.05c-.39-1.53-1.692-2.423-3.124-2.423L0 .355z" fill="#F7981D"/><path d="M0 .355c8.33 1.912 15.229 6.884 17.441 12.62L15.88 8.005c-.39-1.53-.91-3.06-2.733-3.697L0 .355z" fill="#ED7C00"/><path d="M24.6 15.653l-4.425-4.335-2.083 4.845-.52-3.187C16.4 9.15 12.624 4.944 8.46 2.905l5.857 20.397h7.029l3.254-7.65zM36.705 23.302l-5.597-5.61-1.041 5.61h6.638zM51.673 15.398c.52.51.781.892.65 1.402 0 1.53-2.082 2.295-3.904 2.295-2.603 0-4.035-.383-6.248-1.275l-.91-.383-.912 5.227c1.562.638 4.426 1.275 7.42 1.275 4.164 0 7.549-1.147 9.5-3.187l-5.596-5.354zM59.222 23.302h6.118l1.301-3.825h8.33l.781 3.825H82l-2.213-9.306-7.81-7.394.391 2.04s1.302 5.736 1.562 7.01h-5.467c.521-1.274 2.604-6.756 2.604-6.756s.52-1.402.91-2.294" fill="#051244"/></svg>