<svg width="80" height="80" viewBox="0 0 80 80" fill="none" xmlns="http://www.w3.org/2000/svg">

    <path d="M48.4929 40.1835C46.7661 41.8605 44.9451 44.1307 43.2901 47.1754C41.655 41.1842 39.5937 36.792 37.5101 33.5764C47.0708 1.16153 0.476242 0 0.476242 0C0.476242 0 1.8364 40.5129 26.1705 39.5827C26.121 36.8699 25.7072 34.127 25.1275 31.555C24.7484 29.8781 24.2975 28.2791 23.8318 26.8033C22.2759 21.9082 20.5193 18.4337 20.5193 18.4337C22.2932 20.8523 23.864 23.1603 25.2514 25.33C30.0255 32.7844 32.6319 38.582 33.8434 41.6442C36.8337 48.1634 39.5194 58.8862 39.5194 76.4098C39.5194 78.3935 41.1075 80 43.0548 80C45.0071 80 46.5927 78.3935 46.5927 76.4098C46.5927 70.7304 46.3226 65.6769 45.8345 61.1691C46.9618 55.6681 48.6639 51.7637 50.4254 48.9981C51.5824 46.758 53.7155 42.9214 56.5894 39.0044C59.1487 35.5198 62.305 31.9698 65.8751 29.4356C65.8751 29.4356 58.5541 37.6593 58.0809 45.7096C78.3023 46.7806 79.0877 14.4965 79.0877 14.4965C79.0877 14.4965 42.0811 15.7788 48.4929 40.1835Z" fill="#CB9734"/>
</svg>
