<svg width="50" height="50" viewBox="0 0 50 50" fill="none" xmlns="http://www.w3.org/2000/svg">
<path d="M49.9843 0H0V49.9843H49.9843V0Z"/>
<path d="M25.3289 13.8158H12.5V35.8553H25.3289" stroke="white" stroke-width="2" stroke-linecap="round" stroke-linejoin="round"/>
<path d="M18.4211 24C17.8688 24 17.4211 24.4477 17.4211 25C17.4211 25.5523 17.8688 26 18.4211 26V24ZM37.5492 25.7071C37.9398 25.3166 37.9398 24.6834 37.5492 24.2929L31.1853 17.9289C30.7948 17.5384 30.1616 17.5384 29.7711 17.9289C29.3805 18.3195 29.3805 18.9526 29.7711 19.3431L35.4279 25L29.7711 30.6569C29.3805 31.0474 29.3805 31.6805 29.7711 32.0711C30.1616 32.4616 30.7948 32.4616 31.1853 32.0711L37.5492 25.7071ZM18.4211 26H36.8421V24H18.4211V26Z" fill="white"/>
</svg>
