<svg width="82" height="24" viewBox="0 0 82 24" fill="none" xmlns="http://www.w3.org/2000/svg">
    <path d="M30.0667 23.3018L34.2317 0.35498H40.7397L36.7048 23.3018H30.0667Z" fill="#3C58BF"/>
    <path d="M30.0667 23.3018L35.4032 0.35498H40.7397L36.7048 23.3018H30.0667Z" fill="#293688"/>
    <path d="M60.2635 0.609944C58.9619 0.100015 56.8794 -0.409912 54.2762 -0.409912C47.7683 -0.409912 43.0825 2.77714 43.0825 7.36649C43.0825 10.8085 46.3365 12.5933 48.9397 13.7406C51.5429 14.8879 52.3238 15.6528 52.3238 16.6727C52.3238 18.2025 50.2413 18.9674 48.4191 18.9674C45.8159 18.9674 44.3841 18.5849 42.1714 17.6925L41.2603 17.3101L40.3492 22.5369C41.9111 23.1743 44.7746 23.8117 47.7683 23.8117C54.6667 23.8117 59.2222 20.6246 59.2222 15.7803C59.2222 13.1032 57.5302 11.0635 53.6254 9.40621C51.2825 8.25887 49.8508 7.62146 49.8508 6.47412C49.8508 5.45426 51.0222 4.43441 53.6254 4.43441C55.8381 4.43441 57.4 4.81685 58.5714 5.32678L59.2222 5.58175L60.2635 0.609944Z" fill="#3C58BF"/>
    <path d="M60.2635 0.609944C58.9619 0.100015 56.8794 -0.409912 54.2762 -0.409912C47.7683 -0.409912 44.254 2.77714 44.254 7.36649C44.254 10.8085 46.3365 12.5933 48.9397 13.7406C51.5429 14.8879 52.3238 15.6528 52.3238 16.6727C52.3238 18.2025 50.2413 18.9674 48.4191 18.9674C45.8159 18.9674 44.3841 18.5849 42.1714 17.6925L41.2603 17.3101L40.3492 22.5369C41.9111 23.1743 44.7746 23.8117 47.7683 23.8117C54.6667 23.8117 59.2222 20.6246 59.2222 15.7803C59.2222 13.1032 57.5302 11.0635 53.6254 9.40621C51.2825 8.25887 49.8508 7.62146 49.8508 6.47412C49.8508 5.45426 51.0222 4.43441 53.6254 4.43441C55.8381 4.43441 57.4 4.81685 58.5714 5.32678L59.2222 5.58175L60.2635 0.609944Z" fill="#293688"/>
    <path d="M71.4571 0.35498C69.8952 0.35498 68.7238 0.482464 68.073 2.01225L58.3111 23.3018H65.3397L66.6413 19.4773H74.9714L75.7524 23.3018H82L76.5333 0.35498H71.4571V0.35498ZM68.4635 15.6528C68.854 14.5055 71.0667 8.89628 71.0667 8.89628C71.0667 8.89628 71.5873 7.49398 71.9778 6.60161L72.3682 8.7688C72.3682 8.7688 73.6698 14.5055 73.9301 15.7803H68.4635V15.6528Z" fill="#3C58BF"/>
    <path d="M73.019 0.35498C71.4571 0.35498 70.2857 0.482464 69.6349 2.01225L58.3111 23.3018H65.3397L66.6413 19.4773H74.9714L75.7524 23.3018H82L76.5333 0.35498H73.019V0.35498ZM68.4635 15.6528C68.9841 14.378 71.0667 8.89628 71.0667 8.89628C71.0667 8.89628 71.5873 7.49398 71.9778 6.60161L72.3682 8.7688C72.3682 8.7688 73.6698 14.5055 73.9301 15.7803H68.4635V15.6528Z" fill="#293688"/>
    <path d="M18.0921 16.4177L17.4413 13.1031C16.2698 9.27869 12.4952 5.07178 8.33015 3.03206L14.1873 23.4292H21.2159L31.7587 0.482422H24.7302L18.0921 16.4177Z" fill="#3C58BF"/>
    <path d="M18.0921 16.4177L17.4413 13.1031C16.2698 9.27869 12.4952 5.07178 8.33015 3.03206L14.1873 23.4292H21.2159L31.7587 0.482422H26.0317L18.0921 16.4177Z" fill="#293688"/>
    <path d="M0 0.35498L1.17143 0.609946C9.50159 2.52218 15.2286 7.3665 17.4413 13.1032L15.0984 2.26721C14.7079 0.737427 13.5365 0.35498 12.1048 0.35498H0V0.35498Z" fill="#FFBC00"/>
    <path d="M0 0.35498C8.33016 2.26721 15.2286 7.23902 17.4413 12.9757L15.2286 3.92448C14.8381 2.3947 13.5365 1.50232 12.1048 1.50232L0 0.35498Z" fill="#F7981D"/>
    <path d="M0 0.35498C8.33016 2.26721 15.2286 7.23902 17.4413 12.9757L15.8794 8.00391C15.4889 6.47412 14.9683 4.94434 13.146 4.30693L0 0.35498Z" fill="#ED7C00"/>
    <path d="M24.6 15.6528L20.1746 11.3184L18.0921 16.1627L17.5714 12.9756C16.4 9.15117 12.6254 4.94425 8.46031 2.90454L14.3175 23.3017H21.346L24.6 15.6528Z" fill="#051244"/>
    <path d="M36.7048 23.3016L31.1079 17.6924L30.0667 23.3016H36.7048Z" fill="#051244"/>
    <path d="M51.673 15.3977C52.1937 15.9076 52.454 16.2901 52.3238 16.8C52.3238 18.3298 50.2413 19.0947 48.4191 19.0947C45.8159 19.0947 44.3841 18.7122 42.1714 17.8199L41.2603 17.4374L40.3492 22.6642C41.9111 23.3016 44.7746 23.939 47.7683 23.939C51.9333 23.939 55.3175 22.7917 57.2699 20.752L51.673 15.3977Z" fill="#051244"/>
    <path d="M59.2222 23.3017H65.3397L66.6413 19.4773H74.9714L75.7524 23.3017H82L79.7873 13.9955L71.9778 6.60156L72.3683 8.64127C72.3683 8.64127 73.6698 14.378 73.9302 15.6528H68.4635C68.9841 14.378 71.0667 8.89624 71.0667 8.89624C71.0667 8.89624 71.5873 7.49394 71.9778 6.60156" fill="#051244"/>
</svg>
