<svg width="38" height="24" viewBox="0 0 38 24" fill="none" xmlns="http://www.w3.org/2000/svg">
<path d="M34.5972 0.501221H35.3017C35.5156 0.504939 35.7291 0.522699 35.9406 0.554385C36.1281 0.587926 36.3096 0.648043 36.4795 0.732866C36.6452 0.814127 36.7961 0.921917 36.926 1.05185C37.06 1.18989 37.1717 1.34743 37.2571 1.51894C37.3405 1.68699 37.3988 1.86606 37.4303 2.05059C37.4626 2.2517 37.4819 2.45465 37.488 2.65818V21.3379C37.4829 21.5491 37.4636 21.7597 37.4303 21.9683C37.3732 22.3379 37.1978 22.6799 36.9299 22.9443C36.7969 23.0734 36.6451 23.1822 36.4795 23.267C36.3094 23.3506 36.1279 23.4094 35.9406 23.4417C35.7292 23.4747 35.5157 23.4925 35.3017 23.4949H2.69448C2.48046 23.4926 2.26689 23.4748 2.0555 23.4417C1.87619 23.4074 1.7026 23.3486 1.5397 23.267C1.37353 23.1831 1.2216 23.0742 1.08933 22.9443C0.95842 22.8131 0.848137 22.6633 0.762145 22.5C0.677446 22.3321 0.617806 22.153 0.585079 21.9683C0.55099 21.7598 0.532975 21.5491 0.531189 21.3379V2.66198C0.532975 2.45081 0.55099 2.24008 0.585079 2.0316C0.613453 1.85435 0.666564 1.68182 0.742899 1.51894C0.828891 1.35557 0.939174 1.20581 1.07009 1.07464C1.20676 0.936292 1.36537 0.820854 1.5397 0.732866C1.71054 0.650968 1.89181 0.592209 2.0786 0.558183C2.28253 0.527486 2.48824 0.509728 2.69448 0.505018H34.5972V0.501221Z" fill="white"/>
<path d="M34.5972 0H2.69449C2.45177 0.0031036 2.20973 0.025966 1.97083 0.0683544C1.73367 0.107106 1.50391 0.181381 1.28951 0.288608C0.860307 0.504453 0.511334 0.848729 0.292545 1.27215C0.184404 1.4839 0.109144 1.71048 0.0692869 1.9443C0.0284859 2.18028 0.00532782 2.4189 0 2.65823L0 21.3532C0.00460243 21.5886 0.0264721 21.8234 0.0654376 22.0557C0.104744 22.2884 0.180041 22.5139 0.288695 22.7241C0.396447 22.9362 0.538117 23.1298 0.708266 23.2975C0.877579 23.4644 1.07242 23.6041 1.28566 23.7114C1.50171 23.8164 1.73277 23.8881 1.97083 23.9241C2.2099 23.9658 2.45179 23.9899 2.69449 23.9962H35.3132C35.5533 23.9893 35.7926 23.9652 36.0292 23.9241C36.2651 23.8853 36.4936 23.811 36.7066 23.7038C37.1393 23.4896 37.4903 23.1433 37.7075 22.7165C37.8161 22.5063 37.8914 22.2808 37.9307 22.0481C37.9703 21.8159 37.9909 21.581 37.9923 21.3456V2.65063C37.9911 2.41394 37.9705 2.17773 37.9307 1.9443C37.8957 1.71129 37.8257 1.48474 37.7229 1.27215C37.6141 1.06178 37.4725 0.869567 37.3033 0.702532C37.1287 0.533329 36.9271 0.393501 36.7066 0.288608C36.4936 0.181415 36.2651 0.107132 36.0292 0.0683544C35.7928 0.0265788 35.5533 0.00371961 35.3132 0L34.986 0H34.5972ZM34.5972 0.501266H35.3017C35.5156 0.504984 35.7291 0.522745 35.9406 0.55443C36.1281 0.587972 36.3096 0.648088 36.4795 0.732911C36.6452 0.814172 36.7961 0.921962 36.9261 1.0519C37.06 1.18994 37.1717 1.34748 37.2571 1.51899C37.3405 1.68704 37.3988 1.86611 37.4303 2.05063C37.4626 2.25175 37.4819 2.45469 37.488 2.65823V21.338C37.4829 21.5491 37.4636 21.7597 37.4303 21.9684C37.3732 22.338 37.1978 22.6799 36.9299 22.9443C36.7969 23.0735 36.6451 23.1823 36.4795 23.2671C36.3094 23.3506 36.1279 23.4095 35.9406 23.4418C35.7292 23.4747 35.5157 23.4925 35.3017 23.4949H2.69449C2.48047 23.4927 2.2669 23.4749 2.05551 23.4418C1.8762 23.4074 1.70261 23.3486 1.53971 23.2671C1.37354 23.1832 1.22161 23.0743 1.08934 22.9443C0.958431 22.8131 0.848147 22.6634 0.762156 22.5C0.677456 22.3321 0.617816 22.1531 0.585089 21.9684C0.551 21.7599 0.532985 21.5491 0.531199 21.338V2.66203C0.532985 2.45086 0.551 2.24013 0.585089 2.03165C0.613463 1.85439 0.666574 1.68187 0.742909 1.51899C0.828901 1.35562 0.939184 1.20586 1.0701 1.07468C1.20677 0.936337 1.36538 0.820899 1.53971 0.732911C1.71055 0.651013 1.89182 0.592254 2.07861 0.558228C2.28254 0.527531 2.48825 0.509773 2.69449 0.505063H34.5972V0.501266Z" fill="#030404"/>
<path d="M32.0644 9.03033L30.5247 13.1202C30.4298 13.3734 30.3412 13.6265 30.2591 13.8797C30.2206 14.0012 30.1821 14.1151 30.1436 14.2253H30.1167C30.082 14.1113 30.0397 13.9898 30.0012 13.8683C29.9204 13.6253 29.8357 13.3898 29.7472 13.1658L28.1343 9.03033H27.2605L29.5932 14.9506C29.631 15.0227 29.6545 15.1014 29.6625 15.1822C29.6525 15.2639 29.6291 15.3434 29.5932 15.4177C29.4658 15.7402 29.2991 16.0463 29.0966 16.3291C28.9419 16.5419 28.7721 16.7437 28.5885 16.9329C28.4244 17.097 28.2409 17.2411 28.0419 17.362C27.8734 17.4593 27.7 17.548 27.5223 17.6278L27.4376 17.6658L27.7186 18.3493L27.811 18.3151C27.8841 18.2886 28.0227 18.224 28.2344 18.1253C28.4867 17.9916 28.7208 17.827 28.9311 17.6354C29.156 17.4419 29.3552 17.2212 29.5239 16.9784C29.7074 16.7061 29.8745 16.4233 30.0243 16.1316C30.1898 15.8164 30.3592 15.4518 30.5209 15.0569C30.6825 14.662 30.8596 14.2139 31.0405 13.7392L32.9267 9.03033H32.0644ZM25.6862 13.3784C25.6814 13.4958 25.6606 13.612 25.6246 13.724C25.5717 13.8763 25.4979 14.0207 25.4052 14.1531C25.3094 14.2983 25.1897 14.4266 25.051 14.5329C24.9005 14.6476 24.7313 14.7362 24.5506 14.7949C24.3394 14.8629 24.1184 14.8962 23.8963 14.8936C23.7539 14.8893 23.6133 14.8611 23.4805 14.8101C23.3469 14.7634 23.224 14.6911 23.1187 14.5974C23.0062 14.4913 22.9193 14.3615 22.8647 14.2177C22.7951 14.0464 22.7623 13.8628 22.7684 13.6784C22.7525 13.3768 22.8513 13.0802 23.0456 12.8468C23.2446 12.6291 23.4943 12.4623 23.7731 12.3607C24.0857 12.2491 24.4118 12.1789 24.7431 12.1518C25.0318 12.1253 25.3166 12.1101 25.5822 12.1101H25.6862V13.367V13.3784ZM26.5176 14.6354V11.4303C26.5166 11.1333 26.4869 10.837 26.4291 10.5455C26.3716 10.2529 26.2566 9.97419 26.0903 9.72526C25.918 9.46762 25.6823 9.25728 25.4052 9.11387C25.0462 8.94206 24.6487 8.86363 24.2504 8.88602C23.9252 8.88634 23.6015 8.92977 23.2881 9.01514C22.9665 9.10606 22.6622 9.24846 22.3874 9.43666L22.3258 9.49362L22.6029 10.1316L22.703 10.067C22.9216 9.92264 23.1601 9.81009 23.4113 9.73286C23.6605 9.65584 23.92 9.61616 24.1811 9.61514C24.4607 9.60136 24.7389 9.66307 24.9856 9.79362C25.1698 9.90286 25.3223 10.0572 25.4283 10.2417C25.5277 10.4209 25.593 10.6165 25.6207 10.8189C25.6494 11.0024 25.6649 11.1877 25.6669 11.3734V11.4455C24.4544 11.4455 23.5075 11.6392 22.8801 12.0379C22.5698 12.2199 22.3143 12.4801 22.1397 12.7918C21.9652 13.1035 21.8779 13.4554 21.8869 13.8113C21.8875 14.0343 21.9279 14.2554 22.0063 14.4645C22.0841 14.6892 22.2105 14.8945 22.3767 15.0663C22.5428 15.238 22.7448 15.3722 22.9686 15.4594C23.2381 15.5691 23.5278 15.6221 23.8193 15.6151C24.0572 15.6173 24.2943 15.5866 24.5237 15.524C24.7271 15.4657 24.9214 15.3801 25.1011 15.2696C25.263 15.1733 25.4128 15.0586 25.5476 14.9278C25.6021 14.8737 25.6535 14.8167 25.7016 14.7569H25.7324L25.8094 15.4746H26.5985L26.5754 15.3607C26.5379 15.1207 26.5186 14.8782 26.5176 14.6354ZM20.1933 10.5721C19.6842 10.9473 19.057 11.1329 18.4226 11.0961C18.2186 11.0961 18.0377 11.0961 17.8414 11.0734C17.7026 11.0643 17.5649 11.0439 17.4295 11.0126V7.24552C17.5373 7.24552 17.672 7.20754 17.8144 7.19235C17.9568 7.17716 18.2532 7.16197 18.5265 7.16197C18.8424 7.15815 19.1572 7.19777 19.4619 7.27969C19.7194 7.35212 19.9619 7.46913 20.1779 7.62526C20.3765 7.77896 20.5338 7.97849 20.6359 8.20628C20.7488 8.47309 20.8039 8.76025 20.7976 9.04931C20.8169 9.33255 20.7709 9.61642 20.6628 9.87954C20.5548 10.1427 20.3877 10.3782 20.174 10.5683L20.1933 10.5721ZM20.9439 7.21514C20.6634 6.9577 20.328 6.76564 19.9623 6.65311C19.5116 6.51406 19.0411 6.44739 18.5689 6.45564C18.2268 6.45465 17.885 6.4724 17.545 6.50881C17.237 6.54298 16.9522 6.58476 16.6943 6.62653H16.6134V15.4632H17.4295V11.7417C17.74 11.7912 18.0542 11.8154 18.3687 11.8139C18.8048 11.8165 19.239 11.7577 19.6582 11.6392C20.0353 11.5334 20.3864 11.3525 20.6898 11.1075C20.9813 10.8649 21.2163 10.5631 21.3788 10.2227C21.5535 9.83849 21.6403 9.421 21.6329 8.99995C21.6386 8.64998 21.5773 8.30209 21.452 7.97463C21.3335 7.69168 21.161 7.43384 20.9439 7.21514ZM12.7834 10.9025C12.7874 10.5209 12.8894 10.1466 13.0799 9.81454C13.2704 9.48247 13.5432 9.2035 13.8728 9.00374C13.6636 8.71131 13.3887 8.47066 13.0694 8.30068C12.7502 8.13069 12.3954 8.03599 12.0328 8.024C11.263 7.94805 10.4931 8.47969 10.1082 8.47969C9.72325 8.47969 9.09967 8.02779 8.46839 8.03919C8.04203 8.05052 7.62605 8.17138 7.26152 8.38982C6.89699 8.60826 6.59652 8.91672 6.38978 9.28476C5.50445 10.8037 6.16267 13.0518 7.02876 14.2822C7.45218 14.886 7.95258 15.562 8.61466 15.5354C9.27673 15.5088 9.49229 15.1291 10.2621 15.1291C11.032 15.1291 11.2476 15.5354 11.9212 15.5088C12.5948 15.4822 13.0413 14.8936 13.4609 14.2898C13.7491 13.8633 13.9758 13.3994 14.1345 12.9113C13.7352 12.7431 13.3945 12.4633 13.1544 12.1063C12.9143 11.7493 12.7853 11.3309 12.7834 10.9025ZM11.3284 7.21514C11.7085 6.77647 11.8968 6.20699 11.8519 5.63159C11.2782 5.69026 10.7485 5.96173 10.3699 6.39109C10.1837 6.59674 10.0411 6.83709 9.95055 7.09797C9.85997 7.35885 9.82326 7.63498 9.84258 7.91007C10.1279 7.91556 10.4105 7.85565 10.6684 7.73506C10.9262 7.61447 11.1521 7.43649 11.3284 7.21514Z" fill="#030404"/>
</svg>
