<svg width="35" height="35" viewBox="0 0 35 35" fill="none" xmlns="http://www.w3.org/2000/svg">
<path d="M17.5 1.09375C15.7595 1.09375 14.0903 1.78515 12.8596 3.01586C11.6289 4.24657 10.9375 5.91577 10.9375 7.65625V8.75H10.0297C9.1089 8.74903 8.22319 9.10324 7.55698 9.7389C6.89076 10.3745 6.49538 11.2427 6.45314 12.1625L5.58908 30.1547C5.56693 30.6385 5.64298 31.1218 5.81263 31.5754C5.98229 32.0291 6.24205 32.4437 6.57624 32.7942C6.91044 33.1448 7.31216 33.424 7.75718 33.6151C8.2022 33.8063 8.68132 33.9053 9.16564 33.9062H25.8344C26.3187 33.9053 26.7978 33.8063 27.2429 33.6151C27.6879 33.424 28.0896 33.1448 28.4238 32.7942C28.758 32.4437 29.0178 32.0291 29.1874 31.5754C29.3571 31.1218 29.4331 30.6385 29.411 30.1547L28.5469 12.1625C28.5047 11.2427 28.1093 10.3745 27.4431 9.7389C26.7769 9.10324 25.8911 8.74903 24.9703 8.75H24.0625V7.65625C24.0625 5.91577 23.3711 4.24657 22.1404 3.01586C20.9097 1.78515 19.2405 1.09375 17.5 1.09375ZM13.125 7.65625C13.125 6.49593 13.586 5.38313 14.4064 4.56266C15.2269 3.74219 16.3397 3.28125 17.5 3.28125C18.6603 3.28125 19.7731 3.74219 20.5936 4.56266C21.4141 5.38313 21.875 6.49593 21.875 7.65625V8.75H13.125V7.65625ZM26.3594 12.2609L27.2235 30.2641C27.2303 30.4522 27.2 30.6398 27.1344 30.8162C27.0687 30.9926 26.9689 31.1544 26.8407 31.2922C26.7097 31.4266 26.5533 31.5336 26.3805 31.6069C26.2077 31.6801 26.0221 31.7181 25.8344 31.7188H9.16564C8.97798 31.7181 8.79232 31.6801 8.61954 31.6069C8.44676 31.5336 8.29032 31.4266 8.15939 31.2922C8.03118 31.1544 7.93137 30.9926 7.86569 30.8162C7.8 30.6398 7.76972 30.4522 7.77658 30.2641L8.64064 12.2609C8.65752 11.904 8.81129 11.5673 9.06998 11.3209C9.32868 11.0744 9.6724 10.9371 10.0297 10.9375H24.9703C25.3276 10.9371 25.6714 11.0744 25.9301 11.3209C26.1888 11.5673 26.3425 11.904 26.3594 12.2609Z" fill="#1C4E29"/>
<path d="M12.425 14.4266C13.0291 14.4266 13.5188 13.9369 13.5188 13.3328C13.5188 12.7288 13.0291 12.2391 12.425 12.2391C11.821 12.2391 11.3313 12.7288 11.3313 13.3328C11.3313 13.9369 11.821 14.4266 12.425 14.4266Z" fill="#1C4E29"/>
<path d="M22.5751 14.4266C23.1791 14.4266 23.6688 13.9369 23.6688 13.3328C23.6688 12.7288 23.1791 12.2391 22.5751 12.2391C21.971 12.2391 21.4813 12.7288 21.4813 13.3328C21.4813 13.9369 21.971 14.4266 22.5751 14.4266Z" fill="#1C4E29"/>
</svg>
