<svg width="38" height="24" viewBox="0 0 38 24" fill="none" xmlns="http://www.w3.org/2000/svg">
<path fill-rule="evenodd" clip-rule="evenodd" d="M34.5955 0H2.69285C2.4503 0.00330864 2.20842 0.0261695 1.96963 0.0683544C1.73385 0.107132 1.50551 0.181415 1.29257 0.288608C1.07769 0.394909 0.881549 0.534672 0.711683 0.702532C0.542566 0.869567 0.401071 1.06178 0.292367 1.27215C0.184292 1.4839 0.109078 1.71048 0.0692448 1.9443C0.0284686 2.18028 0.00532458 2.4189 0 2.65823L0 21.3494C0.0044273 21.5861 0.0262842 21.8221 0.0653979 22.0557C0.104681 22.2884 0.179931 22.5139 0.28852 22.7241C0.505529 23.1509 0.856323 23.4972 1.28872 23.7114C1.5033 23.8163 1.73296 23.8881 1.96963 23.9241C2.20859 23.9656 2.45031 23.9897 2.69285 23.9962H35.3148C35.5548 23.9891 35.7939 23.965 36.0304 23.9241C36.2661 23.8853 36.4945 23.811 36.7074 23.7038C36.9217 23.5965 37.1177 23.4569 37.2883 23.2899C37.455 23.1239 37.5939 22.933 37.6999 22.7241C37.8085 22.5139 37.8838 22.2884 37.9231 22.0557C37.9628 21.8223 37.9834 21.5861 37.9846 21.3494V2.65063C37.9834 2.41394 37.9628 2.17773 37.9231 1.9443C37.8832 1.71048 37.808 1.4839 37.6999 1.27215C37.4834 0.848531 37.1357 0.504027 36.7074 0.288608C36.4945 0.181415 36.2661 0.107132 36.0304 0.0683544C35.7941 0.0267416 35.5548 0.00388369 35.3148 0L34.6224 0" fill="#3C4043"/>
<path fill-rule="evenodd" clip-rule="evenodd" d="M34.5955 0.80127H35.2918C35.4902 0.803099 35.6882 0.819601 35.8842 0.850637C36.0437 0.875972 36.1982 0.925952 36.342 0.998738C36.4828 1.06805 36.6125 1.15763 36.7267 1.26456C36.8359 1.37653 36.9268 1.50465 36.996 1.64431C37.0682 1.7855 37.1188 1.93652 37.146 2.09241C37.1711 2.27997 37.1827 2.46905 37.1806 2.65823V21.3304C37.1805 21.5264 37.1638 21.722 37.1306 21.9152C37.0827 22.2238 36.9373 22.5095 36.7151 22.7317C36.6009 22.8386 36.4713 22.9282 36.3304 22.9975C36.1872 23.0682 36.0343 23.1181 35.8765 23.1456C35.6804 23.1757 35.4825 23.1922 35.2841 23.1949H2.69285C2.49875 23.198 2.30466 23.1878 2.11197 23.1646C1.9542 23.1371 1.8013 23.0872 1.65803 23.0165C1.4495 22.9097 1.2692 22.7562 1.13159 22.5682C0.99397 22.3803 0.902862 22.1631 0.865562 21.9342C0.834431 21.7407 0.817716 21.5453 0.815552 21.3494V2.66962C0.817716 2.47374 0.834431 2.27828 0.865562 2.08481C0.891617 1.92864 0.942238 1.77745 1.01559 1.63671C1.15495 1.36253 1.38028 1.14011 1.65803 1.00254C1.8006 0.930124 1.95376 0.880154 2.11197 0.854434C2.30415 0.824279 2.49828 0.807781 2.69285 0.805067H34.5955" fill="#FFFFFE"/>
<path d="M18.296 12.5546V15.9723H17.2112V7.53052H20.0848C20.4259 7.52585 20.7645 7.58825 21.0808 7.71409C21.3972 7.83992 21.685 8.02666 21.9275 8.26343C22.4011 8.70793 22.6792 9.318 22.7022 9.96267C22.7253 10.6073 22.4913 11.2352 22.0506 11.7115L21.9275 11.833C21.6824 12.0688 21.3923 12.254 21.0739 12.3779C20.7556 12.5018 20.4154 12.5618 20.0733 12.5546H18.296ZM18.296 8.56723V11.5179H20.1118C20.3111 11.5235 20.5095 11.4876 20.6938 11.4123C20.8781 11.3371 21.0442 11.2242 21.1812 11.0812C21.4509 10.7957 21.599 10.4188 21.5947 10.0285C21.5904 9.63819 21.4341 9.26451 21.1581 8.98495C20.8827 8.71621 20.5106 8.56603 20.1233 8.56723H18.296Z" fill="#3C4043"/>
<path d="M25.2128 10.0103C25.9025 9.97003 26.5815 10.193 27.1093 10.6331C27.3463 10.8612 27.5307 11.1369 27.6502 11.4416C27.7697 11.7463 27.8214 12.0728 27.8018 12.3989V15.9609H26.767V15.19H26.7208C26.5354 15.494 26.2729 15.745 25.9592 15.9181C25.6455 16.0913 25.2914 16.1807 24.932 16.1774C24.3477 16.1947 23.7785 15.9924 23.3394 15.6116C23.1292 15.4376 22.962 15.2185 22.8507 14.9711C22.7393 14.7236 22.6867 14.4543 22.6969 14.1837C22.6876 13.9098 22.744 13.6377 22.8617 13.3895C22.9794 13.1413 23.1549 12.9242 23.374 12.7559C23.8967 12.3784 24.5353 12.1906 25.182 12.2242C25.7331 12.2056 26.2799 12.3259 26.7708 12.5736V12.3268C26.7711 12.1441 26.7317 11.9636 26.6554 11.7972C26.5791 11.6308 26.4676 11.4825 26.3284 11.3622C26.0405 11.1078 25.6684 10.966 25.2821 10.9635C24.9973 10.9567 24.7156 11.0232 24.4647 11.1563C24.2138 11.2895 24.0023 11.4847 23.851 11.723L22.897 11.123C23.1485 10.7517 23.4936 10.4515 23.8983 10.2518C24.303 10.0521 24.7533 9.95967 25.2051 9.98371L25.2128 10.0103ZM23.8164 14.1875C23.8155 14.3243 23.847 14.4595 23.9085 14.5821C23.9699 14.7048 24.0596 14.8115 24.1703 14.8938C24.4049 15.0858 24.7003 15.1906 25.0051 15.19C25.2315 15.1898 25.4557 15.145 25.6644 15.0583C25.8731 14.9716 26.0622 14.8447 26.2207 14.685C26.3906 14.535 26.5264 14.3512 26.6192 14.1457C26.7121 13.9402 26.7598 13.7176 26.7593 13.4926C26.3478 13.2076 25.8485 13.0732 25.3475 13.1128C24.9545 13.1012 24.568 13.2129 24.2434 13.4318C24.1143 13.5166 24.008 13.6311 23.9337 13.7653C23.8593 13.8996 23.819 14.0497 23.8164 14.2027V14.1875Z" fill="#3C4043"/>
<path fill-rule="evenodd" clip-rule="evenodd" d="M33.7492 10.1963L30.1292 18.5127H29.0136L30.3562 15.6039L27.9826 10.1963H29.1598L30.8755 14.3469H30.8986L32.572 10.1963H33.7492Z" fill="#3C4043"/>
<path fill-rule="evenodd" clip-rule="evenodd" d="M13.9182 11.8139C13.9222 11.4847 13.899 11.1558 13.849 10.8303H9.27112V12.6949H11.887C11.8346 12.9924 11.7216 13.2763 11.555 13.5295C11.3884 13.7827 11.1716 14 10.9176 14.1683V15.3797H12.4795C12.9566 14.9163 13.3309 14.3599 13.5786 13.7461C13.8262 13.1322 13.9419 12.4742 13.9182 11.8139Z" fill="#4285F4"/>
<path fill-rule="evenodd" clip-rule="evenodd" d="M9.2711 16.5533C10.4539 16.5858 11.6036 16.1653 12.4794 15.3798L10.9176 14.1685C10.4303 14.4871 9.85546 14.6502 9.2711 14.6355C8.66021 14.6289 8.06709 14.4318 7.57653 14.0723C7.08597 13.7129 6.7231 13.2096 6.53977 12.6343H4.94714V13.8874C5.34412 14.6858 5.95948 15.3586 6.72361 15.8297C7.48775 16.3008 8.37017 16.5514 9.2711 16.5533Z" fill="#34A853"/>
<path fill-rule="evenodd" clip-rule="evenodd" d="M6.5398 12.6343C6.33596 12.0316 6.33596 11.3799 6.5398 10.7773V9.53174H4.94717C4.60551 10.2068 4.42764 10.9511 4.42764 11.7058C4.42764 12.4604 4.60551 13.2047 4.94717 13.8798L6.5398 12.6343Z" fill="#FBBC04"/>
<path fill-rule="evenodd" clip-rule="evenodd" d="M9.2711 8.77604C9.61286 8.76891 9.95267 8.82866 10.2709 8.95185C10.5892 9.07504 10.8796 9.25922 11.1253 9.49376L12.5141 8.10389C11.6393 7.28527 10.4764 6.83452 9.2711 6.84693C8.37118 6.84895 7.48968 7.09882 6.72579 7.56844C5.9619 8.03806 5.34591 8.70878 4.94714 9.50516L6.53977 10.7811C6.7219 10.2048 7.08436 9.70032 7.57509 9.34007C8.06582 8.97983 8.65958 8.78237 9.2711 8.77604Z" fill="#EA4335"/>
</svg>
