<svg width="683" height="43" viewBox="0 0 683 43" fill="none" xmlns="http://www.w3.org/2000/svg">
<g clip-path="url(#clip0_20_411)">
<path d="M666.258 24.7122V18.3918H655.72V34.0918H676.217V9.02475H645.39V37.6123H639.143V9.02475H608.316V34.0918H628.813V18.3918H618.275V24.7122H622.529V27.7713H614.599V15.3452H632.86V37.6123H575.641V15.3452H593.901V27.7713H585.971V24.7122H590.225V18.3918H579.687V34.0918H600.185V9.02475H569.357V37.6123H563.111V9.02475H532.283V34.0918H552.78V18.3918H542.243V24.7122H546.497V27.7713H538.567V15.3452H556.827V37.6123H499.607V15.3452H517.868V27.7713H509.938V24.7122H514.192V18.3918H503.654V34.0918H524.152V9.02475H493.324V37.6123H487.078V9.02475H456.249V34.0918H476.746V18.3918H466.212V24.7122H470.462V27.7713H462.533V15.3452H480.794V37.6123H423.574V15.3452H441.836V27.7713H433.907V24.7122H438.157V18.3918H427.623V34.0918H448.12V9.02475H417.29V37.6123H411.046V9.02475H380.216V34.0918H400.713V18.3918H390.179V24.7122H394.429V27.7713H386.5V15.3452H404.762V37.6123H347.541V15.3452H365.803V27.7713H357.874V24.7122H362.125V18.3918H351.59V34.0918H372.087V9.02475H341.257V37.6123H335.013V9.02475H304.183V34.0918H324.68V18.3918H314.146V24.7122H318.396V27.7713H310.467V15.3452H328.729V37.6123H271.508V15.3452H289.77V27.7713H281.841V24.7122H286.092V18.3918H275.557V34.0918H296.054V9.02475H265.224V37.6123H258.98V9.02475H228.151V34.0918H248.647V18.3918H238.113V24.7122H242.364V27.7713H234.434V15.3452H252.697V37.6123H195.475V15.3452H213.738V27.7713H205.808V24.7122H210.059V18.3918H199.525V34.0918H220.021V9.02475H189.192V37.6123H182.947V9.02475H152.118V34.0918H172.615V18.3918H162.081V24.7122H166.331V27.7713H158.401V15.3452H176.664V37.6123H119.443V15.3452H137.705V27.7713H129.775V24.7122H134.026V18.3918H123.492V34.0918H143.988V9.02475H113.159V37.6123H106.915V9.02475H76.0849V34.0918H96.5818V18.3918H86.0478V24.7122H90.2979V27.7713H82.3686V15.3452H100.631V37.6123H43.4098V15.3452H61.6721V27.7713H53.7425V24.7122H57.9935V18.3918H47.4588V34.0918H67.9557V9.02475H37.1259V37.6123H30.8818V9.02475H0.0521948V34.0918H20.5489V18.3918H10.0149V24.7122H14.2652V27.7713H6.33587V15.3452H24.5981V37.6123H0V43.9327H682.99V37.6123H651.673V15.3452H669.933V27.7713H662.003V24.7122H666.257H666.258Z" fill="#D7D7BD"/>
<path d="M682.99 -0.959625H0V5.36077H682.99V-0.959625Z" fill="#D7D7BD"/>
</g>
<defs>
<clipPath id="clip0_20_411">
<rect width="683" height="43" fill="white"/>
</clipPath>
</defs>
</svg>
