<svg width="275" height="98" viewBox="0 0 275 98" fill="none" xmlns="http://www.w3.org/2000/svg">
<path d="M35.2931 26.4506V27.797C35.2931 28.2347 35.2723 28.6849 35.2306 29.1434C34.5223 28.7266 33.8555 28.3723 33.2305 28.0805C27.3133 25.1626 24.3547 21.6612 24.3547 17.5762C24.3547 14.3249 26.1882 11.3029 29.8552 8.51007C33.4805 13.2578 35.2931 19.2436 35.2931 26.4506ZM53.7322 5.5047C53.4402 5.67562 53.1822 5.81734 52.953 5.94654C52.7238 6.06742 52.503 6.2175 52.2946 6.38006C52.1696 6.46759 52.1071 6.44258 52.1071 6.3217C52.1071 6.15498 52.1279 5.96738 52.1696 5.75482C52.2113 5.46718 52.2113 5.23794 52.1696 5.07118C51.6279 2.02829 49.2527 0.502686 45.044 0.502686H44.3564C44.1064 0.502686 43.8564 0.527688 43.6064 0.569368C39.4394 1.02831 34.8765 2.79987 29.9177 5.88402C26.5424 2.46597 22.3128 0.752802 17.2291 0.752802C14.1871 0.752802 11.2077 1.44057 8.29079 2.82029C6.08227 3.82069 4.29044 5.48802 2.91534 7.82231C1.8694 9.6522 1.24851 11.4946 1.02766 13.3495C1.01934 13.387 1.01518 13.4204 1.01099 13.4579C1.01099 13.4746 1.01099 13.4912 1.00683 13.5079C0.994345 13.6747 0.973511 13.9706 0.973511 14.3624C0.973511 14.996 1.0235 15.9006 1.21936 16.9593C1.31936 17.4887 1.46104 18.0556 1.64439 18.6475C1.84024 19.2311 2.06109 19.8438 2.36112 20.4441C2.65282 21.0485 2.99452 21.6529 3.39871 22.2323C3.78624 22.8158 4.25296 23.3577 4.73214 23.883C4.98218 24.1372 5.23218 24.3873 5.49474 24.6249C5.76557 24.8542 6.01977 25.0959 6.29897 25.3044C6.849 25.7337 7.41573 26.1172 7.9866 26.4548C8.27415 26.6174 8.54914 26.7883 8.8325 26.93C9.12004 27.0717 9.39507 27.2093 9.66591 27.3468C10.2243 27.5803 10.741 27.822 11.2411 27.9888C11.4911 28.0763 11.7286 28.1597 11.9536 28.243C12.1828 28.3097 12.3995 28.3764 12.6037 28.4389C13.012 28.564 13.3704 28.6682 13.6704 28.7307C14.1163 28.8391 14.4163 28.9141 14.5413 28.9433C14.4205 28.9058 14.1205 28.8224 13.6788 28.6932C13.3829 28.6182 13.0329 28.4973 12.6287 28.3556C12.4286 28.2889 12.2162 28.2139 11.9911 28.1347C11.7703 28.0471 11.5369 27.9513 11.2952 27.8554C10.8035 27.672 10.2993 27.4094 9.76176 27.1551C9.49924 27.0092 9.22837 26.8633 8.95337 26.7132C8.6825 26.5632 8.41582 26.3798 8.14079 26.2089C7.59492 25.8546 7.05321 25.4544 6.53649 25.0167C6.26978 24.8042 6.03225 24.554 5.77809 24.3248C5.5364 24.083 5.30304 23.8288 5.06967 23.5745C4.62797 23.0493 4.20294 22.5074 3.85293 21.9322C3.48621 21.3653 3.18618 20.7734 2.93198 20.1856C2.66947 19.5979 2.48196 19.006 2.31945 18.4474C2.16942 17.8805 2.05693 17.3387 1.98192 16.8343C1.84024 15.8214 1.82357 14.971 1.85276 14.3791C1.86108 14.0873 1.88607 13.8581 1.90274 13.7038C1.91526 13.5913 1.92358 13.5204 1.92774 13.4912C1.9319 13.4788 1.9319 13.4746 1.9319 13.4746C2.11527 11.6822 2.68198 9.90231 3.66539 8.13495C4.87385 6.00907 6.51982 4.4672 8.60333 3.50806C11.2285 2.25757 13.8746 1.63232 16.5415 1.63232C21.1252 1.63232 25.0839 3.36217 28.4176 6.8219C23.6255 10.1149 21.2294 13.633 21.2294 17.3845C21.2294 20.0981 22.417 22.5782 24.7922 24.825C26.209 26.2047 28.5634 27.7887 31.8554 29.5769C32.4387 29.9145 32.9805 30.2563 33.4805 30.6107C33.9805 30.965 34.4597 31.3109 34.9181 31.6444C34.0847 37.0632 32.2304 41.4567 29.3551 44.8331C26.1882 48.6304 22.0837 50.7146 17.0416 51.0897C16.7915 51.1689 16.6665 51.3148 16.6665 51.5274C16.7499 51.7734 16.8957 51.8776 17.1041 51.84C22.0628 51.4607 26.2507 49.3807 29.6677 45.5875C32.7096 42.1695 34.7723 37.7927 35.8557 32.4572C38.4809 34.829 39.7935 37.3926 39.7935 40.1437C39.7935 43.1491 38.3559 45.7959 35.4807 48.0885C32.3554 50.5895 28.1884 52.2319 22.9796 53.0239C21.6045 53.2323 20.2835 53.3907 19.0125 53.4949C17.7416 53.5991 16.4999 53.6491 15.2914 53.6491C11.6244 53.6491 8.76168 53.1823 6.699 52.2444C4.63633 51.3065 3.60289 49.9643 3.60289 48.2136C3.60289 47.5466 3.76956 46.8255 4.10293 46.0544C4.43631 45.2832 4.97802 44.5037 5.72807 43.7118C6.47815 42.9198 7.46988 42.1153 8.69917 41.3025C9.92843 40.4897 11.4577 39.7102 13.2912 38.9557C17.2082 37.3759 20.7919 36.5839 24.0422 36.5839C25.0839 36.5839 26.1257 36.6881 27.1674 36.8965C28.0425 37.1049 28.4801 37.0424 28.4801 36.7048C28.4801 36.5839 28.3342 36.438 28.0425 36.2713C26.6257 35.4793 24.8339 35.0833 22.667 35.0833C19.3334 35.0833 15.6039 35.9586 11.4786 37.7052C7.72824 39.335 5.12386 40.9398 3.66539 42.5238C1.87359 44.4412 0.977671 46.3962 0.977671 48.4012C0.977671 50.7313 2.22776 52.6529 4.72798 54.1539C7.3949 55.6916 11.0202 56.4627 15.6039 56.4627C17.8541 56.4627 20.271 56.2793 22.8546 55.9042C28.2717 55.0663 33.0638 53.1906 37.2308 50.2769C41.8145 47.0673 44.1064 43.6909 44.1064 40.1437C44.1064 36.438 41.502 32.9783 36.2932 29.7687C36.3766 29.0183 36.4516 28.2555 36.5141 27.4844C36.5766 26.7132 36.6058 25.9338 36.6058 25.1376C36.6058 17.9722 34.8348 12.0948 31.2928 7.50967C34.9181 5.17542 38.9393 3.79985 43.3563 3.38301C43.7314 3.34133 44.0856 3.30798 44.4189 3.28714C44.7523 3.2663 45.0857 3.25381 45.419 3.25381C48.9193 3.25381 50.6695 4.30006 50.6695 6.38006C50.6695 7.13454 50.4195 8.00571 49.9194 9.01027C48.6276 11.4696 47.9818 13.0327 47.9818 13.6997C47.9818 13.9456 48.0859 14.0748 48.2943 14.0748C49.0027 14.0748 50.8987 12.4075 53.9823 9.0728C54.6907 8.11407 55.0449 7.23874 55.0449 6.44258C55.0449 5.77982 54.6073 5.46718 53.7322 5.5047Z" fill="#674D21"/>
<path d="M1.01132 13.3513C1.01129 13.3535 1.01128 13.3554 1.01126 13.3576C1.01129 13.3535 1.01131 13.3513 1.01131 13.3513H1.01132Z" fill="#030404"/>
<path d="M11.3254 27.9041C11.3346 27.9316 11.3533 27.9866 11.3796 28.0629C11.4175 28.1758 11.4746 28.3367 11.545 28.5281C11.6171 28.719 11.7013 28.9407 11.7988 29.1762C11.8805 29.3776 11.9717 29.5893 12.0663 29.8002C12.0826 29.8365 12.0984 29.872 12.1151 29.9082C12.2293 30.1546 12.3472 30.3992 12.4655 30.6243C12.5264 30.736 12.5801 30.8457 12.6397 30.9457C12.6985 31.047 12.7514 31.1433 12.8039 31.2296C12.8577 31.3159 12.9068 31.3946 12.951 31.4642C12.9939 31.5351 13.0377 31.5918 13.0702 31.641C13.1285 31.7269 13.1652 31.779 13.1744 31.7911C13.1673 31.7785 13.136 31.721 13.0873 31.6302C13.0598 31.5785 13.0235 31.5172 12.9885 31.4426C12.9527 31.3692 12.9126 31.2867 12.8685 31.195C12.826 31.1045 12.7839 31.0032 12.7372 30.8982C12.6897 30.7927 12.648 30.6785 12.6001 30.563C12.508 30.3288 12.4193 30.0762 12.3334 29.8232C12.323 29.7915 12.3126 29.7586 12.3026 29.7265C12.2301 29.5035 12.1618 29.2821 12.1022 29.0712C12.0322 28.8303 11.973 28.6039 11.9234 28.4101C11.9026 28.3284 11.8838 28.2513 11.8676 28.1825C11.6838 28.0921 11.5025 27.9987 11.3254 27.9041Z" fill="#674D21"/>
<path d="M13.7693 31.4985C13.348 31.1918 13.0288 30.7236 13.0572 30.4527C13.0855 30.1813 13.4497 30.2093 13.8706 30.5165C14.2927 30.8228 14.611 31.2914 14.5831 31.5619C14.5548 31.8328 14.191 31.8049 13.7693 31.4985ZM11.2803 33.2876C11.9491 34.6915 13.3414 35.4247 14.3894 34.9249C15.4382 34.4255 15.7457 32.882 15.0769 31.4777C14.4769 30.2184 13.2951 29.4986 12.3013 29.7249C12.2213 29.7432 12.1421 29.7679 12.065 29.7987C12.0321 29.8116 12 29.8254 11.9679 29.8408C10.9191 30.3402 10.6119 31.8828 11.2803 33.2876Z" fill="#030404"/>
<path d="M5.88094 24.5334C6.04927 24.7223 6.22305 24.9094 6.40265 25.0941C6.46223 25.0941 6.52557 25.0937 6.59185 25.0937C6.83228 25.0916 7.11144 25.0874 7.41192 25.0774C7.71108 25.0687 8.03152 25.052 8.3503 25.0312C8.39072 25.0287 8.43201 25.0257 8.47326 25.0228C8.75075 25.0036 9.02662 24.9782 9.28539 24.9503C9.43417 24.9319 9.57793 24.914 9.71461 24.8969C9.85002 24.8753 9.97796 24.8557 10.0967 24.8373C10.2147 24.8169 10.3222 24.7936 10.4176 24.7752C10.513 24.7581 10.5951 24.7369 10.6626 24.7206C10.7809 24.6906 10.8551 24.6731 10.8718 24.6689C10.8547 24.6714 10.7793 24.6806 10.658 24.6964C10.5893 24.7048 10.5059 24.7181 10.4096 24.7244C10.3138 24.7314 10.2046 24.7423 10.0867 24.7494C9.96753 24.7552 9.8392 24.7606 9.70377 24.7669C9.5675 24.7681 9.42416 24.7702 9.27582 24.7727C8.99289 24.7715 8.69158 24.7656 8.38906 24.7519C8.37408 24.7515 8.36115 24.751 8.34697 24.7502C8.03197 24.7352 7.7161 24.7156 7.42107 24.6923C7.1252 24.6693 6.85017 24.6422 6.61518 24.6185C6.25182 24.5805 5.98594 24.5464 5.88094 24.5334Z" fill="#674D21"/>
<path d="M9.65816 22.7056C10.1215 22.2921 10.7482 22.0387 11.0574 22.1395C11.3658 22.2412 11.2408 22.6589 10.7774 23.0724C10.3141 23.4859 9.68731 23.7398 9.37897 23.6381C9.06975 23.5372 9.19479 23.1195 9.65816 22.7056ZM8.3897 24.751C8.38928 24.7523 8.39011 24.7527 8.39011 24.7544C8.41178 24.8465 8.43972 24.9353 8.4739 25.022C8.94226 26.1991 10.5511 26.8218 12.233 26.4259C14.0381 26.0011 15.2432 24.563 14.9257 23.2146C14.6094 21.8661 12.8884 21.117 11.0833 21.5422C9.27979 21.9674 8.07552 23.403 8.3897 24.751Z" fill="#030404"/>
<path d="M7.61506 25.9353C7.61506 25.9353 7.61254 26.0103 7.60921 26.1408C7.60713 26.27 7.60463 26.4543 7.60588 26.6748C7.60796 26.8961 7.61129 27.1529 7.62339 27.428C7.63171 27.6627 7.64588 27.9103 7.6638 28.1591C7.66755 28.2025 7.66963 28.2458 7.67341 28.2892C7.68672 28.4351 7.70048 28.5814 7.71341 28.7248C7.73088 28.8677 7.74381 29.0099 7.76423 29.1449C7.78423 29.2816 7.79883 29.413 7.82174 29.5363C7.84341 29.6614 7.86257 29.7781 7.88341 29.8857C7.90674 29.9932 7.92757 30.0912 7.94549 30.1778C7.96342 30.265 7.98633 30.3404 8.00134 30.4013C8.02925 30.5097 8.04717 30.5772 8.05133 30.5926C8.04966 30.5772 8.04009 30.5072 8.02467 30.3971C8.0176 30.3337 8.00425 30.2583 7.9976 30.1699C7.98883 30.082 7.98051 29.9823 7.97049 29.8736C7.96258 29.7656 7.95884 29.6472 7.9509 29.5234C7.94466 29.4 7.94508 29.2683 7.94175 29.1328C7.93842 28.997 7.943 28.8565 7.943 28.7148C7.94716 28.5722 7.9509 28.428 7.95468 28.2833C7.95593 28.2479 7.95801 28.2121 7.95967 28.177C7.97298 27.924 7.98841 27.6731 8.00841 27.4359C8.02966 27.1666 8.05718 26.9153 8.08093 26.7006C8.09594 26.5722 8.1105 26.4568 8.12301 26.358C7.96092 26.2196 7.8034 26.0804 7.64921 25.939L7.61506 25.9353Z" fill="#674D21"/>
<path d="M8.76472 30.5242C8.45346 30.0548 8.30635 29.4608 8.43721 29.197C8.5672 28.9327 8.92515 29.0986 9.23686 29.5672C9.54812 30.0365 9.69482 30.6301 9.56438 30.8948C9.43397 31.1582 9.0756 30.9919 8.76472 30.5242ZM5.57193 31.3979C5.72155 33.0715 6.85499 34.3374 8.10425 34.2257C9.35313 34.1144 10.2457 32.6684 10.0961 30.9948C9.96316 29.5 9.04516 28.3317 7.95924 28.1782C7.86256 28.1641 7.7638 28.1582 7.66338 28.1603C7.63086 28.1616 7.59755 28.1637 7.5642 28.167C6.31494 28.2787 5.42318 29.7256 5.57193 31.3979Z" fill="#030404"/>
<path d="M2.37483 28.4685C2.74734 27.609 3.01447 26.6465 3.16031 25.6223C3.41492 23.8387 2.64317 22.0146 2.17772 20.1301C2.35188 23.3343 2.63236 25.0559 1.6556 28.0046C1.95979 25.5402 1.97771 22.9417 1.7085 20.3273C1.23764 20.5161 0.903437 21.0297 0.655096 21.5924C0.12753 22.785 -0.0916575 24.2772 0.0350416 25.8049C0.140043 27.0704 0.482569 28.3551 1.01471 29.5027C1.06803 29.6177 1.26971 30.1425 1.3614 30.1754C1.45974 30.2109 1.67269 29.7811 1.73228 29.6878C1.97185 29.3109 2.18688 28.9028 2.37483 28.4685Z" fill="#1C4E2B"/>
<path d="M11.9872 19.7509C11.0442 20.1857 9.9845 20.5067 8.85317 20.6951C6.88381 21.0231 4.84239 20.2144 2.7422 19.7464C6.29752 19.8572 8.21228 20.124 11.4542 18.9652C8.73146 19.3658 5.85249 19.4529 2.94846 19.2215C3.14557 18.6947 3.70645 18.3108 4.32317 18.0206C5.63119 17.4054 7.27927 17.1232 8.97526 17.2249C10.3804 17.3087 11.813 17.6555 13.0981 18.2161C13.2269 18.2724 13.8136 18.4825 13.8523 18.583C13.8944 18.6913 13.4236 18.9385 13.3215 19.0069C12.9102 19.2824 12.4635 19.5313 11.9872 19.7509Z" fill="#1C4E2B"/>
<path d="M20.3648 30.4242C19.5114 30.6351 18.5797 30.7331 17.6091 30.7093C15.9198 30.6677 14.3522 29.6702 12.6808 28.9466C15.6186 29.6052 17.1674 30.1324 20.0469 29.686C17.72 29.5851 15.3131 29.1983 12.9363 28.543C13.1838 28.1362 13.7109 27.907 14.2701 27.764C15.4556 27.4609 16.8703 27.4893 18.2638 27.844C19.4185 28.1379 20.5536 28.6543 21.5324 29.3255C21.6307 29.3926 22.085 29.661 22.1012 29.7506C22.1187 29.8473 21.6883 29.9778 21.5924 30.0186C21.2065 30.182 20.7957 30.3175 20.3648 30.4242Z" fill="#1C4E2B"/>
<path d="M62.3594 34.6466C58.8999 34.5637 55.9213 36.9813 53.4211 41.8996C52.7122 43.2339 52.3585 44.4214 52.3585 45.4631C52.3585 46.5886 52.7539 47.1513 53.5457 47.1513C54.2961 47.1513 55.275 46.6511 56.4838 45.6507C58.6503 43.817 60.0671 41.9834 60.7342 40.1484C61.0251 38.0647 61.5672 36.231 62.3594 34.6466ZM77.9232 42.8996C73.0478 48.0687 68.9008 50.4651 65.4846 50.09C64.3595 49.9649 63.3173 49.2772 62.3594 48.0266C61.4001 46.6098 60.8171 44.8379 60.6092 42.712C59.8171 43.7962 59.0153 44.7862 58.2027 45.6819C57.3902 46.579 56.5251 47.4014 55.6088 48.1521C53.9415 49.4864 52.5664 50.1525 51.4834 50.1525C49.9412 50.1525 49.1707 49.1738 49.1707 47.2143C49.1707 45.5473 49.7549 43.817 50.9209 42.0242C53.629 37.898 56.6713 35.043 60.0466 33.4587C61.5047 32.7921 62.8594 32.4583 64.1095 32.4583C64.4425 32.4583 64.8071 32.5108 65.2034 32.6146C65.5988 32.7188 65.9738 32.8642 66.3284 33.0523C66.6822 33.2398 66.9739 33.4587 67.2035 33.7088C67.4319 33.9584 67.5473 34.2511 67.5473 34.5837C67.5473 34.7092 67.4739 34.8242 67.3285 34.928C67.1819 35.0326 67.016 35.1156 66.8285 35.1781C66.641 35.2406 66.4635 35.3136 66.2972 35.3969C66.1301 35.4807 66.0472 35.5432 66.0472 35.5845C64.505 38.3773 63.7345 41.0455 63.7345 43.5873C63.7345 46.7557 64.9633 48.3393 67.4223 48.3393C70.0054 48.3393 73.2353 46.276 77.1106 42.1497C77.4019 41.7741 77.6936 41.5869 77.9857 41.5869C78.1936 41.5869 78.2982 41.7333 78.2982 42.0242C78.2982 42.3585 78.1732 42.6495 77.9232 42.8996Z" fill="#674D21"/>
<path d="M112.364 42.6505C107.779 47.6525 103.904 50.1536 100.738 50.1536C97.3203 50.1536 95.778 46.9648 96.1122 40.5876C95.8201 40.8794 95.4559 41.2862 95.0184 41.8069C94.5808 42.3283 94.0279 43.0053 93.362 43.8385L89.6117 49.4658C88.8195 50.382 88.1115 50.7163 87.4865 50.4662C86.8193 50.2991 86.5693 49.883 86.7364 49.2157L86.9239 47.2153C87.0069 46.5488 87.0694 45.9235 87.1115 45.3391C87.1523 44.756 87.1944 44.2137 87.2365 43.7135C87.4023 40.2963 87.0069 38.5864 86.0489 38.5864C85.2567 38.5864 84.027 39.4622 82.361 41.2129C81.2359 42.3379 79.9642 44.1511 78.5482 46.6521C77.2981 48.8622 76.548 50.0289 76.298 50.1536C76.048 50.2786 75.7979 50.3416 75.5479 50.3416C74.965 50.3416 74.6729 49.9456 74.6729 49.1532C74.6729 48.9031 74.6945 48.7155 74.7354 48.5904C75.0271 47.9652 75.4229 47.0798 75.923 45.9331C76.423 44.7872 77.0264 43.3804 77.7356 41.7127C79.4858 37.6702 80.3609 35.2101 80.3609 34.3351C80.4859 34.085 81.1518 33.6686 82.361 33.0846C83.6941 32.4593 84.3612 32.6261 84.3612 33.5844L82.361 39.7123C82.694 39.3788 83.1003 38.9932 83.5799 38.5556C84.0583 38.1175 84.5896 37.6485 85.1738 37.1487C85.8397 36.7323 86.5489 36.5235 87.299 36.5235C89.257 36.5235 90.3618 37.7327 90.6118 40.1495C90.6118 40.1921 90.5901 40.7439 90.5493 41.8069C90.5072 42.8694 90.4447 44.4638 90.3618 46.5896C91.6527 44.5888 94.2154 41.0253 98.0499 35.8982C98.8 34.8974 99.633 34.3976 100.55 34.3976C101.008 34.3976 101.238 34.6477 101.238 35.1475C101.238 35.273 101.227 35.398 101.206 35.5227C101.185 35.6481 101.154 35.7945 101.113 35.9608C100.071 39.4622 99.55 42.2341 99.55 44.2762C99.55 46.9444 100.466 48.2778 102.3 48.2778C103.8 48.2778 105.488 47.5279 107.363 46.0269C107.696 45.736 108.207 45.2562 108.894 44.5888C109.582 43.9227 110.426 43.0678 111.426 42.0253C111.717 41.7344 111.967 41.588 112.176 41.588C112.342 41.588 112.467 41.7127 112.551 41.9632C112.634 42.2129 112.572 42.4425 112.364 42.6505Z" fill="#674D21"/>
<path d="M145.615 29.1438C145.656 28.6853 145.677 28.2372 145.677 27.7991V26.4548C145.677 19.2444 143.864 13.262 140.239 8.51048C136.572 11.3033 134.739 14.3253 134.739 17.5766C134.739 21.662 137.697 25.1635 143.615 28.0809C144.24 28.3727 144.905 28.7274 145.615 29.1438ZM141.677 7.51007C145.218 12.0957 146.99 17.973 146.99 25.1418C146.99 25.9342 146.959 26.7157 146.896 27.4865C146.834 28.2584 146.76 29.0187 146.677 29.7691C151.886 32.9791 154.49 36.4388 154.49 40.1478C154.49 43.6913 152.198 47.0677 147.615 50.2769C143.447 53.1939 138.655 55.0697 133.239 55.9042C130.655 56.2798 128.238 56.4669 125.988 56.4669C121.404 56.4669 117.778 55.6949 115.112 54.1535C112.612 52.6528 111.362 50.7354 111.362 48.4011C111.362 46.4003 112.258 44.4416 114.049 42.5238C115.507 40.9402 118.112 39.3354 121.863 37.7094C125.988 35.959 129.717 35.0837 133.051 35.0837C135.217 35.0837 137.01 35.4801 138.427 36.2717C138.718 36.4388 138.864 36.5843 138.864 36.709C138.864 37.0432 138.427 37.1057 137.551 36.8969C136.51 36.6885 135.468 36.5843 134.427 36.5843C131.176 36.5843 127.591 37.3767 123.675 38.9598C121.841 39.7106 120.31 40.4921 119.081 41.3045C117.851 42.1178 116.862 42.9206 116.112 43.7118C115.362 44.5042 114.82 45.2857 114.487 46.0565C114.153 46.8284 113.987 47.547 113.987 48.2136C113.987 49.9643 115.018 51.3086 117.081 52.2464C119.144 53.1843 122.008 53.6532 125.675 53.6532C126.883 53.6532 128.123 53.6007 129.395 53.497C130.665 53.3927 131.988 53.2364 133.364 53.028C138.572 52.2356 142.739 50.5895 145.865 48.0885C148.74 45.7968 150.178 43.149 150.178 40.1478C150.178 37.3967 148.865 34.8332 146.24 32.4576C145.156 37.7935 143.093 42.1703 140.052 45.5875C136.635 49.3811 132.447 51.4649 127.488 51.84C127.279 51.8813 127.134 51.7775 127.051 51.5274C127.051 51.3182 127.176 51.1731 127.426 51.0897C132.467 50.7146 136.572 48.6308 139.739 44.8372C142.614 41.4608 144.468 37.0641 145.302 31.6448C144.843 31.3113 144.365 30.9679 143.864 30.6127C143.364 30.2592 142.822 29.9154 142.239 29.581C138.947 27.7895 136.593 26.2051 135.177 24.8292C132.801 22.5786 131.614 20.0989 131.614 17.3886C131.614 13.6371 134.009 10.1153 138.802 6.82231C135.468 3.36258 131.509 1.6327 126.926 1.6327C124.258 1.6327 121.613 2.25797 118.988 3.50846C116.903 4.4676 115.257 6.00947 114.049 8.13532C112.841 10.3029 112.237 12.4912 112.237 14.7005C112.237 16.535 112.653 18.1185 113.487 19.4524C115.028 21.87 117.362 23.0788 120.487 23.0788C123.279 23.0788 125.404 22.0155 126.863 19.8897C126.988 19.7238 127.134 19.6612 127.301 19.7025C127.467 19.7442 127.551 19.8696 127.551 20.0776C127.551 21.0776 126.592 21.9747 124.675 22.7662C122.925 23.4753 121.488 23.8292 120.362 23.8292C116.945 23.8292 114.362 22.5161 112.612 19.8897C111.737 18.4732 111.299 16.8055 111.299 14.8876C111.299 12.5121 111.965 10.1574 113.299 7.82271C114.674 5.48884 116.466 3.8211 118.675 2.8207C121.591 1.44472 124.571 0.756953 127.613 0.756953C132.696 0.756953 136.927 2.46679 140.302 5.88443C145.26 2.79986 149.823 1.02871 153.99 0.569773C154.241 0.528509 154.49 0.506836 154.741 0.506836H155.428C159.637 0.506836 162.012 2.02911 162.554 5.07159C162.594 5.23834 162.594 5.468 162.554 5.75897C162.512 5.9682 162.491 6.1558 162.491 6.32211C162.491 6.44673 162.554 6.46841 162.679 6.38421C162.887 6.21832 163.106 6.07157 163.335 5.94695C163.564 5.82149 163.825 5.67602 164.116 5.50885C164.991 5.468 165.429 5.78064 165.429 6.44673C165.429 7.23915 165.075 8.11448 164.366 9.0732C161.282 12.4083 159.386 14.0752 158.678 14.0752C158.47 14.0752 158.366 13.9498 158.366 13.7001C158.366 13.0335 159.012 11.4704 160.303 9.01068C160.804 8.00986 161.054 7.13491 161.054 6.38421C161.054 4.30046 159.303 3.25796 155.803 3.25796C155.469 3.25796 155.136 3.26878 154.803 3.28962C154.469 3.31088 154.116 3.34215 153.74 3.38342C149.323 3.80026 145.302 5.17624 141.677 7.51007Z" fill="#674D21"/>
<path d="M185.806 35.7105C185.597 37.878 184.909 39.5458 183.743 40.7125C183.993 41.755 184.503 42.6299 185.275 43.3381C186.045 44.0476 186.931 44.401 187.931 44.401C189.389 44.401 190.764 43.6303 192.057 42.0876C192.515 41.5466 192.847 41.4424 193.057 41.775C193.265 42.1923 193.16 42.5465 192.744 42.8379C191.077 44.5057 189.306 45.3389 187.431 45.3389C185.472 45.3389 183.931 44.4636 182.806 42.7129C181.889 45.0888 180.743 46.9646 179.368 48.3401C177.993 49.7161 176.701 50.4034 175.493 50.4034C173.658 50.4034 172.742 49.0279 172.742 46.2768C172.742 45.9854 172.752 45.7045 172.774 45.4327C172.794 45.1622 172.825 44.8808 172.867 44.5886C172.659 44.7979 171.825 45.9642 170.367 48.09C169.283 49.6327 168.012 50.9136 166.554 51.9353C165.095 52.9561 163.782 53.4676 162.617 53.4676C160.657 53.4676 159.679 52.0916 159.679 49.3405C159.679 48.3822 159.846 47.1317 160.179 45.589C160.595 43.7133 161.491 41.6716 162.867 39.462C163.95 37.7109 165.095 36.2945 166.304 35.2099C167.137 34.4187 167.992 34.0223 168.867 34.0223C169.658 34.0223 170.055 34.3141 170.055 34.8972C170.055 35.1065 169.971 35.2941 169.805 35.46C167.888 37.3782 165.929 40.4211 163.929 44.5886C162.72 47.2151 162.116 49.1117 162.116 50.2784C162.116 51.3622 162.554 51.9045 163.429 51.9045C165.137 51.9045 167.158 50.4243 169.492 47.4648C170.658 45.9642 171.69 44.3602 172.586 42.6503C173.482 40.9417 174.346 39.254 175.18 37.5862C175.346 37.2111 175.909 37.0231 176.868 37.0231C177.909 37.0231 178.43 37.4199 178.43 38.2115C177.889 39.1706 177.43 40.0872 177.055 40.9626C176.68 41.8379 176.346 42.672 176.055 43.4632C175.596 44.8387 175.368 45.9233 175.368 46.7145C175.368 47.882 175.763 48.4656 176.555 48.4656C177.347 48.4656 178.305 47.8195 179.431 46.5269C180.597 45.2356 181.534 43.6099 182.243 41.6503C181.534 40.1919 181.284 38.5241 181.493 36.6483C181.701 33.9394 182.534 32.5842 183.993 32.5842C184.576 32.5842 185.045 32.8652 185.4 33.4279C185.754 33.9911 185.889 34.7518 185.806 35.7105Z" fill="#674D21"/>
<path d="M202.431 37.0196C203.223 35.6862 203.619 34.5403 203.619 33.5807C203.619 32.8309 203.369 32.4557 202.869 32.4557C201.994 32.4557 200.785 33.4774 199.244 35.519C197.743 37.604 196.555 39.6878 195.681 41.7716C198.972 40.7303 201.223 39.1459 202.431 37.0196ZM213.932 42.897C212.432 44.7315 210.057 46.4826 206.807 48.1495C203.223 50.0253 200.097 50.9632 197.431 50.9632C193.556 50.9632 191.618 48.8369 191.618 44.5852C191.618 43.0437 192.138 41.2093 193.181 39.0834C194.222 36.8325 195.534 34.9567 197.118 33.4561C198.909 31.7475 200.597 30.8926 202.181 30.8926C204.264 30.8926 205.306 31.9142 205.306 33.9559C205.306 35.2064 204.764 36.5411 203.681 37.9575C201.764 40.3339 198.972 41.9808 195.305 42.897C195.139 43.6065 195.056 44.3568 195.056 45.1479C195.056 47.9832 196.368 49.4001 198.994 49.4001C201.077 49.4001 203.66 48.5459 206.744 46.8361C208.16 46.0449 209.39 45.2634 210.432 44.4914C211.473 43.7207 212.348 42.9391 213.057 42.1471C213.848 41.3135 214.245 41.2718 214.245 42.0216C214.245 42.2718 214.14 42.5639 213.932 42.897Z" fill="#674D21"/>
<path d="M223.557 37.0196C224.348 35.6862 224.745 34.5403 224.745 33.5807C224.745 32.8309 224.495 32.4557 223.995 32.4557C223.12 32.4557 221.91 33.4774 220.369 35.519C218.869 37.604 217.682 39.6878 216.806 41.7716C220.098 40.7303 222.348 39.1459 223.557 37.0196ZM235.058 42.897C233.558 44.7315 231.183 46.4826 227.932 48.1495C224.348 50.0253 221.223 50.9632 218.557 50.9632C214.682 50.9632 212.744 48.8369 212.744 44.5852C212.744 43.0437 213.264 41.2093 214.306 39.0834C215.347 36.8325 216.66 34.9567 218.244 33.4561C220.035 31.7475 221.723 30.8926 223.307 30.8926C225.39 30.8926 226.432 31.9142 226.432 33.9559C226.432 35.2064 225.89 36.5411 224.807 37.9575C222.89 40.3339 220.098 41.9808 216.431 42.897C216.264 43.6065 216.181 44.3568 216.181 45.1479C216.181 47.9832 217.494 49.4001 220.119 49.4001C222.202 49.4001 224.786 48.5459 227.87 46.8361C229.286 46.0449 230.516 45.2634 231.558 44.4914C232.599 43.7207 233.474 42.9391 234.183 42.1471C234.974 41.3135 235.37 41.2718 235.37 42.0216C235.37 42.2718 235.266 42.5639 235.058 42.897Z" fill="#674D21"/>
<path d="M234.496 32.771H235.402C235.714 32.771 236.037 32.7502 236.371 32.7081C236.579 32.6672 236.84 32.6455 237.152 32.6455H238.121C238.412 32.1045 238.829 31.3329 239.371 30.3325C239.912 29.3321 240.6 28.0816 241.434 26.581C241.892 25.7473 242.434 24.8516 243.059 23.892C243.684 22.9337 244.392 21.8708 245.184 20.7036C246.017 19.8704 247.143 19.4531 248.559 19.4531C249.768 19.4531 250.372 19.7658 250.372 20.391C250.372 20.5156 250.31 20.6623 250.185 20.8283C249.309 22.0379 248.205 23.6219 246.872 25.5806C245.537 27.5401 243.975 29.9161 242.184 32.7081H251.935C252.56 32.9173 252.872 33.1878 252.872 33.5213C252.872 34.1465 252.122 34.5429 250.622 34.7093C250.372 34.751 249.455 34.7718 247.872 34.7718C246.288 34.7718 243.996 34.7931 240.996 34.8339C238.954 38.6696 237.933 41.7959 237.933 44.2127C237.933 46.9225 239.1 48.2768 241.434 48.2768C242.6 48.2768 243.85 47.9017 245.184 47.1513C246.1 46.6099 247.048 45.9321 248.028 45.1193C249.007 44.3065 250.038 43.3169 251.122 42.1497C251.538 41.7334 251.873 41.5458 252.122 41.587C252.33 41.587 252.435 41.7334 252.435 42.0243C252.435 42.2744 252.33 42.5457 252.122 42.8371C247.413 47.7983 243.371 50.2151 239.997 50.09C237.329 50.0071 235.724 48.6315 235.184 45.9634C235.099 45.5474 235.037 45.1301 234.996 44.7129C234.954 44.2969 234.933 43.8796 234.933 43.4624C234.933 40.9205 235.641 38.0444 237.059 34.8339C236.142 34.8764 235.485 34.8964 235.089 34.8964C234.693 34.8964 234.579 34.9181 234.746 34.9594C233.787 34.8339 233.266 34.4179 233.183 33.7089C233.058 33.0836 233.496 32.771 234.496 32.771Z" fill="#674D21"/>
<path d="M256.436 48.5277C254.81 47.9867 253.414 47.1318 252.248 45.9642C252.248 46.8396 252.55 47.5586 253.154 48.1213C253.758 48.6841 254.414 48.9654 255.123 48.9654C255.706 48.9654 256.144 48.82 256.436 48.5277ZM264.811 47.5899C268.353 46.7145 271.395 44.8388 273.937 41.963C274.103 41.7125 274.333 41.5879 274.624 41.5879C274.875 41.5879 275 41.755 275 42.0876C275 42.422 274.853 42.7346 274.562 43.0255C271.062 46.4019 267.749 48.3619 264.624 48.9029C262.457 49.2781 260.436 49.3202 258.561 49.0279C257.935 50.1534 256.977 50.7162 255.686 50.7162C254.726 50.7162 253.851 50.4135 253.06 49.8095C252.268 49.2059 251.768 48.4656 251.56 47.5899C251.101 45.9234 251.039 44.923 251.372 44.5887C251.414 44.0476 251.664 43.7759 252.122 43.7759C252.248 43.7759 252.351 43.8179 252.435 43.9009C253.643 45.3602 255.186 46.4644 257.061 47.2152C257.102 46.7145 257.019 46.0688 256.81 45.2765C256.644 44.735 256.445 44.2352 256.217 43.7759C255.987 43.3177 255.727 42.8801 255.435 42.4628C253.851 40.2961 253.164 38.1077 253.373 35.8981C253.748 31.48 256.706 28.2492 262.249 26.2067C264.081 25.5402 265.832 25.3105 267.499 25.5185C269.374 25.7686 270.312 26.7907 270.312 28.5822C270.312 29.9169 269.874 31.2087 268.999 32.4592C268.624 32.959 268.29 33.2716 267.999 33.3971C267.707 33.4388 267.562 33.3141 267.562 33.0215C267.562 32.8556 267.665 32.5634 267.874 32.1466C268.332 31.3129 268.561 30.6047 268.561 30.0207C268.561 28.979 267.874 28.4576 266.499 28.4576C266.332 28.4576 266.155 28.4684 265.968 28.4884C265.78 28.5101 265.582 28.5414 265.374 28.5822C260.832 29.4167 257.789 32.0428 256.248 36.4604C256.039 37.2111 255.936 37.8576 255.936 38.3991C255.936 39.5666 256.436 40.9839 257.435 42.6504C258.477 44.3602 259.019 45.7141 259.061 46.7145V47.2773C259.061 47.4444 259.039 47.6115 258.998 47.7775C260.873 48.153 262.811 48.0901 264.811 47.5899Z" fill="#674D21"/>
<path d="M12.5219 84.162C11.3459 84.162 10.3199 83.898 9.44385 83.37C8.57985 82.83 7.90785 82.074 7.42785 81.102C6.95985 80.13 6.72585 78.978 6.72585 77.646C6.72585 76.314 6.95985 75.162 7.42785 74.19C7.89585 73.218 8.56185 72.468 9.42585 71.94C10.3019 71.412 11.3339 71.148 12.5219 71.148C13.7219 71.148 14.7539 71.412 15.6179 71.94C16.4939 72.468 17.1659 73.218 17.6339 74.19C18.1139 75.15 18.3539 76.296 18.3539 77.628C18.3539 78.96 18.1139 80.118 17.6339 81.102C17.1539 82.074 16.4759 82.83 15.5999 83.37C14.7359 83.898 13.7099 84.162 12.5219 84.162ZM12.5219 82.848C13.8779 82.848 14.9279 82.392 15.6719 81.48C16.4159 80.568 16.7879 79.29 16.7879 77.646C16.7879 76.002 16.4159 74.73 15.6719 73.83C14.9279 72.918 13.8779 72.462 12.5219 72.462C11.1899 72.462 10.1519 72.918 9.40785 73.83C8.66385 74.73 8.29185 76.002 8.29185 77.646C8.29185 79.278 8.66385 80.556 9.40785 81.48C10.1519 82.392 11.1899 82.848 12.5219 82.848ZM21.7127 84V71.31H26.7347C28.1027 71.31 29.1467 71.628 29.8667 72.264C30.5987 72.9 30.9647 73.806 30.9647 74.982C30.9647 75.918 30.7067 76.686 30.1907 77.286C29.6867 77.886 28.9667 78.276 28.0307 78.456C28.5827 78.648 29.0567 79.116 29.4527 79.86L31.6847 84H30.0647L27.8687 79.932C27.5927 79.428 27.2747 79.086 26.9147 78.906C26.5547 78.726 26.0807 78.636 25.4927 78.636H23.1887V84H21.7127ZM23.1887 77.466H26.5187C28.5107 77.466 29.5067 76.638 29.5067 74.982C29.5067 73.35 28.5107 72.534 26.5187 72.534H23.1887V77.466ZM34.4737 84V71.31H35.9497V84H34.4737ZM45.5952 84.162C43.5552 84.162 42.0012 83.586 40.9332 82.434C39.8652 81.282 39.3312 79.692 39.3312 77.664C39.3312 76.32 39.5712 75.162 40.0512 74.19C40.5312 73.218 41.2212 72.468 42.1212 71.94C43.0212 71.412 44.1072 71.148 45.3792 71.148C46.2792 71.148 47.1072 71.286 47.8632 71.562C48.6192 71.826 49.2612 72.216 49.7892 72.732L49.2132 73.92C48.6372 73.416 48.0432 73.05 47.4312 72.822C46.8192 72.594 46.1292 72.48 45.3612 72.48C43.9212 72.48 42.8172 72.936 42.0492 73.848C41.2812 74.748 40.8972 76.02 40.8972 77.664C40.8972 79.344 41.2932 80.628 42.0852 81.516C42.8772 82.404 44.0592 82.848 45.6312 82.848C46.6512 82.848 47.6292 82.674 48.5652 82.326V78.564H45.3432V77.394H49.8432V83.262C49.5072 83.442 49.0992 83.598 48.6192 83.73C48.1512 83.862 47.6532 83.964 47.1252 84.036C46.5972 84.12 46.0872 84.162 45.5952 84.162ZM53.5797 84V71.31H55.0557V84H53.5797ZM58.9052 84V71.31H60.0572L67.7072 81.516V71.31H69.0752V84H67.9592L60.2912 73.758V84H58.9052ZM71.7254 84L77.3234 71.31H78.5834L84.1814 84H82.6514L81.2474 80.76H74.6414L73.2554 84H71.7254ZM77.9354 73.038L75.1814 79.518H80.7254L77.9714 73.038H77.9354ZM86.7827 84V71.31H88.2587V82.704H94.7207V84H86.7827ZM108.415 84.162C106.375 84.162 104.821 83.586 103.753 82.434C102.685 81.282 102.151 79.692 102.151 77.664C102.151 76.32 102.391 75.162 102.871 74.19C103.351 73.218 104.041 72.468 104.941 71.94C105.841 71.412 106.927 71.148 108.199 71.148C109.099 71.148 109.927 71.286 110.683 71.562C111.439 71.826 112.081 72.216 112.609 72.732L112.033 73.92C111.457 73.416 110.863 73.05 110.251 72.822C109.639 72.594 108.949 72.48 108.181 72.48C106.741 72.48 105.637 72.936 104.869 73.848C104.101 74.748 103.717 76.02 103.717 77.664C103.717 79.344 104.113 80.628 104.905 81.516C105.697 82.404 106.879 82.848 108.451 82.848C109.471 82.848 110.449 82.674 111.385 82.326V78.564H108.163V77.394H112.663V83.262C112.327 83.442 111.919 83.598 111.439 83.73C110.971 83.862 110.473 83.964 109.945 84.036C109.417 84.12 108.907 84.162 108.415 84.162ZM116.4 84V71.31H121.422C122.79 71.31 123.834 71.628 124.554 72.264C125.286 72.9 125.652 73.806 125.652 74.982C125.652 75.918 125.394 76.686 124.878 77.286C124.374 77.886 123.654 78.276 122.718 78.456C123.27 78.648 123.744 79.116 124.14 79.86L126.372 84H124.752L122.556 79.932C122.28 79.428 121.962 79.086 121.602 78.906C121.242 78.726 120.768 78.636 120.18 78.636H117.876V84H116.4ZM117.876 77.466H121.206C123.198 77.466 124.194 76.638 124.194 74.982C124.194 73.35 123.198 72.534 121.206 72.534H117.876V77.466ZM129.161 84V71.31H137.171V72.552H130.601V76.944H136.793V78.186H130.601V82.758H137.171V84H129.161ZM140.375 84V71.31H148.385V72.552H141.815V76.944H148.007V78.186H141.815V82.758H148.385V84H140.375ZM151.589 84V71.31H153.065V77.07H153.101L159.257 71.31H161.147L154.523 77.484L161.543 84H159.599L153.101 78.024H153.065V84H151.589ZM168.902 84V71.31H173.924C175.292 71.31 176.336 71.64 177.056 72.3C177.788 72.96 178.154 73.902 178.154 75.126C178.154 76.338 177.788 77.28 177.056 77.952C176.336 78.612 175.292 78.942 173.924 78.942H170.378V84H168.902ZM170.378 77.7H173.744C175.712 77.7 176.696 76.842 176.696 75.126C176.696 73.398 175.712 72.534 173.744 72.534H170.378V77.7ZM181.013 84V71.31H186.035C187.403 71.31 188.447 71.628 189.167 72.264C189.899 72.9 190.265 73.806 190.265 74.982C190.265 75.918 190.007 76.686 189.491 77.286C188.987 77.886 188.267 78.276 187.331 78.456C187.883 78.648 188.357 79.116 188.753 79.86L190.985 84H189.365L187.169 79.932C186.893 79.428 186.575 79.086 186.215 78.906C185.855 78.726 185.381 78.636 184.793 78.636H182.489V84H181.013ZM182.489 77.466H185.819C187.811 77.466 188.807 76.638 188.807 74.982C188.807 73.35 187.811 72.534 185.819 72.534H182.489V77.466ZM199.014 84.162C197.838 84.162 196.812 83.898 195.936 83.37C195.072 82.83 194.4 82.074 193.92 81.102C193.452 80.13 193.218 78.978 193.218 77.646C193.218 76.314 193.452 75.162 193.92 74.19C194.388 73.218 195.054 72.468 195.918 71.94C196.794 71.412 197.826 71.148 199.014 71.148C200.214 71.148 201.246 71.412 202.11 71.94C202.986 72.468 203.658 73.218 204.126 74.19C204.606 75.15 204.846 76.296 204.846 77.628C204.846 78.96 204.606 80.118 204.126 81.102C203.646 82.074 202.968 82.83 202.092 83.37C201.228 83.898 200.202 84.162 199.014 84.162ZM199.014 82.848C200.37 82.848 201.42 82.392 202.164 81.48C202.908 80.568 203.28 79.29 203.28 77.646C203.28 76.002 202.908 74.73 202.164 73.83C201.42 72.918 200.37 72.462 199.014 72.462C197.682 72.462 196.644 72.918 195.9 73.83C195.156 74.73 194.784 76.002 194.784 77.646C194.784 79.278 195.156 80.556 195.9 81.48C196.644 82.392 197.682 82.848 199.014 82.848ZM208.205 84V71.31H212.489C214.541 71.31 216.125 71.856 217.241 72.948C218.357 74.028 218.915 75.594 218.915 77.646C218.915 79.698 218.357 81.27 217.241 82.362C216.125 83.454 214.541 84 212.489 84H208.205ZM209.681 82.74H212.381C215.693 82.74 217.349 81.042 217.349 77.646C217.349 74.262 215.693 72.57 212.381 72.57H209.681V82.74ZM227.288 84.162C225.62 84.162 224.354 83.724 223.49 82.848C222.626 81.96 222.194 80.67 222.194 78.978V71.31H223.67V78.906C223.67 81.534 224.876 82.848 227.288 82.848C229.676 82.848 230.87 81.534 230.87 78.906V71.31H232.346V78.978C232.346 80.67 231.914 81.96 231.05 82.848C230.198 83.724 228.944 84.162 227.288 84.162ZM241.59 84.162C240.342 84.162 239.274 83.898 238.386 83.37C237.498 82.842 236.814 82.092 236.334 81.12C235.866 80.148 235.632 78.99 235.632 77.646C235.632 76.314 235.866 75.162 236.334 74.19C236.814 73.218 237.498 72.468 238.386 71.94C239.274 71.412 240.342 71.148 241.59 71.148C242.466 71.148 243.27 71.286 244.002 71.562C244.746 71.838 245.376 72.24 245.892 72.768L245.316 73.974C244.764 73.458 244.188 73.086 243.588 72.858C243 72.618 242.346 72.498 241.626 72.498C240.198 72.498 239.106 72.948 238.35 73.848C237.594 74.748 237.216 76.014 237.216 77.646C237.216 79.29 237.594 80.562 238.35 81.462C239.106 82.362 240.198 82.812 241.626 82.812C242.346 82.812 243 82.698 243.588 82.47C244.188 82.23 244.764 81.852 245.316 81.336L245.892 82.542C245.376 83.058 244.746 83.46 244.002 83.748C243.27 84.024 242.466 84.162 241.59 84.162ZM251.869 84V72.588H247.261V71.31H257.971V72.588H253.363V84H251.869ZM263.968 84.162C262.972 84.162 262.072 84.036 261.268 83.784C260.464 83.52 259.768 83.142 259.18 82.65L259.702 81.462C260.314 81.93 260.956 82.278 261.628 82.506C262.3 82.734 263.08 82.848 263.968 82.848C265.048 82.848 265.846 82.65 266.362 82.254C266.89 81.846 267.154 81.312 267.154 80.652C267.154 80.124 266.962 79.704 266.578 79.392C266.206 79.08 265.576 78.834 264.688 78.654L262.816 78.276C261.688 78.036 260.842 77.646 260.278 77.106C259.726 76.554 259.45 75.822 259.45 74.91C259.45 74.154 259.642 73.494 260.026 72.93C260.422 72.366 260.968 71.928 261.664 71.616C262.36 71.304 263.164 71.148 264.076 71.148C264.928 71.148 265.72 71.286 266.452 71.562C267.184 71.826 267.802 72.21 268.306 72.714L267.784 73.866C267.244 73.374 266.674 73.02 266.074 72.804C265.474 72.576 264.802 72.462 264.058 72.462C263.11 72.462 262.354 72.684 261.79 73.128C261.226 73.56 260.944 74.136 260.944 74.856C260.944 75.432 261.118 75.888 261.466 76.224C261.826 76.56 262.408 76.806 263.212 76.962L265.084 77.358C266.296 77.61 267.19 77.994 267.766 78.51C268.354 79.014 268.648 79.704 268.648 80.58C268.648 81.288 268.456 81.912 268.072 82.452C267.7 82.992 267.16 83.412 266.452 83.712C265.756 84.012 264.928 84.162 263.968 84.162Z" fill="#1C4E29"/>
</svg>
