<svg width="275" height="57" viewBox="0 0 275 57" fill="none" xmlns="http://www.w3.org/2000/svg">
<path d="M35.2931 26.4507V27.7971C35.2931 28.2347 35.2723 28.6849 35.2306 29.1435C34.5223 28.7266 33.8555 28.3723 33.2305 28.0805C27.3133 25.1627 24.3547 21.6613 24.3547 17.5763C24.3547 14.325 26.1882 11.3029 29.8552 8.51012C33.4805 13.2579 35.2931 19.2436 35.2931 26.4507ZM53.7322 5.50475C53.4402 5.67567 53.1822 5.81739 52.953 5.94659C52.7238 6.06747 52.503 6.21755 52.2946 6.38011C52.1696 6.46764 52.1071 6.44263 52.1071 6.32175C52.1071 6.15503 52.1279 5.96743 52.1696 5.75487C52.2113 5.46723 52.2113 5.23799 52.1696 5.07123C51.6279 2.02834 49.2527 0.502735 45.044 0.502735H44.3564C44.1064 0.502735 43.8564 0.527737 43.6064 0.569418C39.4394 1.02836 34.8765 2.79992 29.9177 5.88407C26.5424 2.46602 22.3128 0.752852 17.2291 0.752852C14.1871 0.752852 11.2077 1.44062 8.29079 2.82034C6.08227 3.82074 4.29044 5.48807 2.91534 7.82236C1.8694 9.65225 1.24851 11.4947 1.02766 13.3496C1.01934 13.3871 1.01518 13.4205 1.01099 13.458C1.01099 13.4746 1.01099 13.4913 1.00683 13.508C0.994345 13.6747 0.973511 13.9707 0.973511 14.3625C0.973511 14.9961 1.0235 15.9006 1.21936 16.9594C1.31936 17.4887 1.46104 18.0556 1.64439 18.6476C1.84024 19.2311 2.06109 19.8439 2.36112 20.4441C2.65282 21.0485 2.99452 21.6529 3.39871 22.2323C3.78624 22.8159 4.25296 23.3578 4.73214 23.883C4.98218 24.1373 5.23218 24.3874 5.49474 24.625C5.76557 24.8542 6.01977 25.096 6.29897 25.3044C6.849 25.7337 7.41573 26.1172 7.9866 26.4549C8.27415 26.6174 8.54914 26.7883 8.8325 26.9301C9.12004 27.0718 9.39507 27.2093 9.66591 27.3469C10.2243 27.5803 10.741 27.8221 11.2411 27.9888C11.4911 28.0763 11.7286 28.1597 11.9536 28.2431C12.1828 28.3098 12.3995 28.3765 12.6037 28.439C13.012 28.5641 13.3704 28.6683 13.6704 28.7308C14.1163 28.8391 14.4163 28.9142 14.5413 28.9434C14.4205 28.9059 14.1205 28.8225 13.6788 28.6933C13.3829 28.6182 13.0329 28.4973 12.6287 28.3556C12.4286 28.2889 12.2162 28.2139 11.9911 28.1347C11.7703 28.0472 11.5369 27.9513 11.2952 27.8554C10.8035 27.672 10.2993 27.4094 9.76176 27.1551C9.49924 27.0093 9.22837 26.8634 8.95337 26.7133C8.6825 26.5633 8.41582 26.3798 8.14079 26.2089C7.59492 25.8546 7.05321 25.4545 6.53649 25.0168C6.26978 24.8042 6.03225 24.5541 5.77809 24.3248C5.5364 24.0831 5.30304 23.8288 5.06967 23.5745C4.62797 23.0493 4.20294 22.5074 3.85293 21.9322C3.48621 21.3653 3.18618 20.7734 2.93198 20.1857C2.66947 19.5979 2.48196 19.006 2.31945 18.4475C2.16942 17.8806 2.05693 17.3387 1.98192 16.8343C1.84024 15.8214 1.82357 14.9711 1.85276 14.3792C1.86108 14.0874 1.88607 13.8581 1.90274 13.7039C1.91526 13.5913 1.92358 13.5205 1.92774 13.4913C1.9319 13.4788 1.9319 13.4746 1.9319 13.4746C2.11527 11.6822 2.68198 9.90236 3.66539 8.135C4.87385 6.00911 6.51982 4.46724 8.60333 3.50811C11.2285 2.25762 13.8746 1.63237 16.5415 1.63237C21.1252 1.63237 25.0839 3.36222 28.4176 6.82195C23.6255 10.1149 21.2294 13.633 21.2294 17.3845C21.2294 20.0981 22.417 22.5783 24.7922 24.8251C26.209 26.2048 28.5634 27.7887 31.8554 29.5769C32.4387 29.9146 32.9805 30.2564 33.4805 30.6107C33.9805 30.965 34.4597 31.311 34.9181 31.6445C34.0847 37.0633 32.2304 41.4567 29.3551 44.8331C26.1882 48.6305 22.0837 50.7147 17.0416 51.0898C16.7915 51.169 16.6665 51.3149 16.6665 51.5275C16.7499 51.7734 16.8957 51.8776 17.1041 51.8401C22.0628 51.4608 26.2507 49.3808 29.6677 45.5876C32.7096 42.1695 34.7723 37.7928 35.8557 32.4573C38.4809 34.8291 39.7935 37.3926 39.7935 40.1437C39.7935 43.1491 38.3559 45.796 35.4807 48.0886C32.3554 50.5896 28.1884 52.2319 22.9796 53.0239C21.6045 53.2323 20.2835 53.3907 19.0125 53.4949C17.7416 53.5991 16.4999 53.6491 15.2914 53.6491C11.6244 53.6491 8.76168 53.1823 6.699 52.2444C4.63633 51.3065 3.60289 49.9643 3.60289 48.2136C3.60289 47.5467 3.76956 46.8256 4.10293 46.0544C4.43631 45.2833 4.97802 44.5038 5.72807 43.7118C6.47815 42.9198 7.46988 42.1153 8.69917 41.3025C9.92843 40.4897 11.4577 39.7102 13.2912 38.9557C17.2082 37.3759 20.7919 36.5839 24.0422 36.5839C25.0839 36.5839 26.1257 36.6882 27.1674 36.8966C28.0425 37.105 28.4801 37.0425 28.4801 36.7048C28.4801 36.5839 28.3342 36.438 28.0425 36.2713C26.6257 35.4793 24.8339 35.0833 22.667 35.0833C19.3334 35.0833 15.6039 35.9587 11.4786 37.7052C7.72824 39.3351 5.12386 40.9399 3.66539 42.5238C1.87359 44.4413 0.977671 46.3962 0.977671 48.4012C0.977671 50.7313 2.22776 52.6529 4.72798 54.154C7.3949 55.6916 11.0202 56.4628 15.6039 56.4628C17.8541 56.4628 20.271 56.2794 22.8546 55.9042C28.2717 55.0664 33.0638 53.1906 37.2308 50.277C41.8145 47.0673 44.1064 43.691 44.1064 40.1437C44.1064 36.438 41.502 32.9783 36.2932 29.7687C36.3766 29.0184 36.4516 28.2556 36.5141 27.4845C36.5766 26.7133 36.6058 25.9338 36.6058 25.1377C36.6058 17.9723 34.8348 12.0949 31.2928 7.50972C34.9181 5.17547 38.9393 3.7999 43.3563 3.38306C43.7314 3.34138 44.0856 3.30803 44.4189 3.28719C44.7523 3.26634 45.0857 3.25386 45.419 3.25386C48.9193 3.25386 50.6695 4.30011 50.6695 6.38011C50.6695 7.13459 50.4195 8.00576 49.9194 9.01032C48.6276 11.4697 47.9818 13.0328 47.9818 13.6997C47.9818 13.9457 48.0859 14.0749 48.2943 14.0749C49.0027 14.0749 50.8987 12.4075 53.9823 9.07285C54.6907 8.11412 55.0449 7.23879 55.0449 6.44263C55.0449 5.77987 54.6073 5.46723 53.7322 5.50475Z" fill="#674D21"/>
<path d="M1.01133 13.3512C1.0113 13.3534 1.01128 13.3553 1.01127 13.3575C1.0113 13.3534 1.01131 13.3512 1.01131 13.3512H1.01133Z" fill="#030404"/>
<path d="M11.3254 27.904C11.3346 27.9315 11.3534 27.9865 11.3796 28.0628C11.4176 28.1757 11.4746 28.3366 11.5451 28.528C11.6172 28.7189 11.7013 28.9406 11.7988 29.1761C11.8805 29.3775 11.9717 29.5892 12.0663 29.8001C12.0826 29.8364 12.0984 29.8719 12.1151 29.9081C12.2293 30.1545 12.3472 30.3991 12.4655 30.6242C12.5264 30.7359 12.5801 30.8456 12.6397 30.9456C12.6985 31.0469 12.7514 31.1432 12.8039 31.2295C12.8577 31.3158 12.9068 31.3946 12.951 31.4641C12.9939 31.535 13.0377 31.5917 13.0702 31.6409C13.1285 31.7268 13.1652 31.7789 13.1744 31.791C13.1673 31.7784 13.136 31.7209 13.0873 31.6301C13.0598 31.5784 13.0235 31.5171 12.9885 31.4425C12.9527 31.3691 12.9127 31.2866 12.8685 31.1949C12.826 31.1044 12.7839 31.0031 12.7372 30.8981C12.6897 30.7926 12.6481 30.6784 12.6001 30.5629C12.508 30.3287 12.4193 30.0761 12.3334 29.8231C12.323 29.7914 12.3126 29.7585 12.3026 29.7264C12.2301 29.5034 12.1618 29.282 12.1022 29.0711C12.0322 28.8302 11.973 28.6038 11.9234 28.41C11.9026 28.3283 11.8838 28.2512 11.8676 28.1824C11.6838 28.092 11.5026 27.9986 11.3254 27.904Z" fill="#674D21"/>
<path d="M13.7693 31.4987C13.348 31.1919 13.0288 30.7238 13.0572 30.4528C13.0855 30.1815 13.4497 30.2094 13.8705 30.5166C14.2927 30.823 14.611 31.2915 14.5831 31.562C14.5548 31.833 14.191 31.805 13.7693 31.4987ZM11.2803 33.2877C11.9491 34.6916 13.3414 35.4248 14.3893 34.925C15.4382 34.4256 15.7457 32.8821 15.0769 31.4778C14.4769 30.2186 13.2951 29.4987 12.3013 29.7251C12.2213 29.7434 12.1421 29.768 12.065 29.7988C12.0321 29.8117 12 29.8255 11.9679 29.8409C10.9191 30.3403 10.6119 31.883 11.2803 33.2877Z" fill="#030404"/>
<path d="M5.88094 24.5334C6.04927 24.7222 6.22305 24.9094 6.40265 25.094C6.46223 25.094 6.52557 25.0936 6.59185 25.0936C6.83228 25.0915 7.11144 25.0873 7.41192 25.0773C7.71108 25.0686 8.03152 25.0519 8.3503 25.0311C8.39072 25.0286 8.43201 25.0257 8.47326 25.0227C8.75075 25.0035 9.02662 24.9781 9.28539 24.9502C9.43417 24.9319 9.57793 24.9139 9.71461 24.8968C9.85002 24.8752 9.97796 24.8556 10.0967 24.8372C10.2147 24.8168 10.3222 24.7935 10.4176 24.7751C10.513 24.758 10.5951 24.7368 10.6626 24.7205C10.7809 24.6905 10.8551 24.673 10.8718 24.6688C10.8547 24.6713 10.7793 24.6805 10.658 24.6963C10.5893 24.7047 10.5059 24.718 10.4096 24.7243C10.3138 24.7314 10.2046 24.7422 10.0867 24.7493C9.96753 24.7551 9.8392 24.7605 9.70377 24.7668C9.5675 24.768 9.42416 24.7701 9.27582 24.7726C8.99289 24.7714 8.69158 24.7656 8.38906 24.7518C8.37408 24.7514 8.36115 24.751 8.34697 24.7501C8.03197 24.7351 7.7161 24.7155 7.42107 24.6922C7.1252 24.6693 6.85017 24.6421 6.61518 24.6184C6.25182 24.5805 5.98594 24.5463 5.88094 24.5334Z" fill="#674D21"/>
<path d="M9.65817 22.7056C10.1215 22.292 10.7482 22.0386 11.0575 22.1395C11.3658 22.2412 11.2408 22.6588 10.7774 23.0724C10.3141 23.4859 9.68732 23.7397 9.37897 23.638C9.06976 23.5371 9.1948 23.1194 9.65817 22.7056ZM8.3897 24.751C8.38929 24.7522 8.39012 24.7526 8.39012 24.7543C8.41179 24.8464 8.43972 24.9352 8.4739 25.0219C8.94226 26.199 10.5511 26.8218 12.233 26.4258C14.0381 26.001 15.2432 24.5629 14.9257 23.2145C14.6094 21.866 12.8884 21.117 11.0833 21.5421C9.2798 21.9673 8.07553 23.4029 8.3897 24.751Z" fill="#030404"/>
<path d="M7.61506 25.9353C7.61506 25.9353 7.61254 26.0104 7.60921 26.1408C7.60713 26.2701 7.60463 26.4543 7.60588 26.6748C7.60796 26.8961 7.61129 27.1529 7.62339 27.428C7.63171 27.6627 7.64588 27.9103 7.6638 28.1591C7.66755 28.2025 7.66963 28.2459 7.67341 28.2892C7.68672 28.4351 7.70048 28.5814 7.71341 28.7248C7.73088 28.8678 7.74381 29.0099 7.76423 29.145C7.78423 29.2817 7.79883 29.413 7.82174 29.5364C7.84341 29.6614 7.86257 29.7781 7.88341 29.8857C7.90674 29.9932 7.92757 30.0912 7.94549 30.1779C7.96342 30.265 7.98633 30.3404 8.00134 30.4013C8.02925 30.5097 8.04717 30.5772 8.05133 30.5926C8.04966 30.5772 8.04009 30.5072 8.02467 30.3971C8.0176 30.3338 8.00425 30.2583 7.9976 30.17C7.98883 30.082 7.98051 29.9824 7.97049 29.8736C7.96258 29.7657 7.95884 29.6473 7.9509 29.5234C7.94466 29.4001 7.94508 29.2684 7.94175 29.1329C7.93842 28.997 7.943 28.8565 7.943 28.7148C7.94716 28.5722 7.9509 28.428 7.95468 28.2834C7.95593 28.248 7.95801 28.2121 7.95967 28.1771C7.97298 27.9241 7.98841 27.6731 8.00841 27.4359C8.02966 27.1667 8.05718 26.9153 8.08093 26.7006C8.09594 26.5723 8.1105 26.4568 8.12301 26.358C7.96092 26.2196 7.8034 26.0804 7.64921 25.9391L7.61506 25.9353Z" fill="#674D21"/>
<path d="M8.76472 30.5243C8.45346 30.0549 8.30635 29.4609 8.43721 29.1971C8.5672 28.9328 8.92515 29.0987 9.23686 29.5673C9.54812 30.0366 9.69482 30.6302 9.56438 30.8949C9.43397 31.1583 9.0756 30.992 8.76472 30.5243ZM5.57193 31.398C5.72155 33.0716 6.85499 34.3375 8.10425 34.2258C9.35313 34.1145 10.2457 32.6685 10.0961 30.9949C9.96316 29.5001 9.04516 28.3317 7.95924 28.1783C7.86256 28.1642 7.7638 28.1583 7.66338 28.1604C7.63086 28.1617 7.59755 28.1637 7.5642 28.1671C6.31494 28.2788 5.42318 29.7257 5.57193 31.398Z" fill="#030404"/>
<path d="M2.37483 28.4686C2.74734 27.6091 3.01447 26.6466 3.16031 25.6224C3.41492 23.8388 2.64317 22.0147 2.17772 20.1302C2.35188 23.3344 2.63236 25.0559 1.6556 28.0047C1.95979 25.5403 1.97771 22.9417 1.7085 20.3274C1.23764 20.5162 0.903437 21.0297 0.655096 21.5925C0.12753 22.785 -0.0916575 24.2773 0.0350416 25.805C0.140043 27.0705 0.482569 28.3552 1.01471 29.5027C1.06803 29.6178 1.26971 30.1426 1.3614 30.1755C1.45974 30.211 1.67269 29.7812 1.73228 29.6878C1.97185 29.311 2.18688 28.9029 2.37483 28.4686Z" fill="#1C4E2B"/>
<path d="M11.9872 19.7509C11.0442 20.1856 9.9845 20.5066 8.85317 20.695C6.88381 21.0231 4.84238 20.2144 2.7422 19.7463C6.29752 19.8572 8.21228 20.124 11.4542 18.9652C8.73146 19.3657 5.85249 19.4528 2.94846 19.2215C3.14556 18.6946 3.70644 18.3107 4.32317 18.0206C5.63119 17.4054 7.27927 17.1232 8.97526 17.2249C10.3804 17.3086 11.813 17.6554 13.0981 18.2161C13.2269 18.2724 13.8136 18.4825 13.8523 18.5829C13.8944 18.6913 13.4236 18.9385 13.3215 19.0068C12.9102 19.2824 12.4635 19.5312 11.9872 19.7509Z" fill="#1C4E2B"/>
<path d="M20.3648 30.4241C19.5114 30.635 18.5797 30.733 17.6091 30.7092C15.9198 30.6676 14.3522 29.6701 12.6808 28.9465C15.6186 29.6051 17.1674 30.1323 20.0469 29.6859C17.72 29.5851 15.3131 29.1982 12.9363 28.5429C13.1838 28.1361 13.7109 27.9069 14.2701 27.7639C15.4556 27.4608 16.8703 27.4892 18.2638 27.8439C19.4185 28.1378 20.5536 28.6542 21.5324 29.3254C21.6307 29.3925 22.085 29.6609 22.1012 29.7505C22.1187 29.8472 21.6883 29.9777 21.5924 30.0185C21.2065 30.1819 20.7957 30.3174 20.3648 30.4241Z" fill="#1C4E2B"/>
<path d="M62.3594 34.6466C58.8999 34.5637 55.9213 36.9813 53.4211 41.8996C52.7122 43.2339 52.3585 44.4214 52.3585 45.4631C52.3585 46.5885 52.7539 47.1513 53.5457 47.1513C54.2961 47.1513 55.275 46.6511 56.4838 45.6506C58.6503 43.817 60.0671 41.9833 60.7342 40.1484C61.0251 38.0647 61.5672 36.231 62.3594 34.6466ZM77.9232 42.8995C73.0478 48.0687 68.9008 50.4651 65.4846 50.0899C64.3595 49.9649 63.3173 49.2771 62.3594 48.0266C61.4001 46.6098 60.8171 44.8378 60.6092 42.712C59.817 43.7962 59.0153 44.7861 58.2027 45.6819C57.3901 46.579 56.5251 47.4014 55.6087 48.1521C53.9415 49.4864 52.5664 50.1525 51.4834 50.1525C49.9412 50.1525 49.1707 49.1738 49.1707 47.2142C49.1707 45.5473 49.7549 43.817 50.9208 42.0242C53.629 37.8979 56.6713 35.043 60.0466 33.4586C61.5047 32.7921 62.8594 32.4582 64.1095 32.4582C64.4424 32.4582 64.8071 32.5108 65.2033 32.6145C65.5988 32.7187 65.9738 32.8642 66.3284 33.0522C66.6822 33.2398 66.9739 33.4586 67.2035 33.7087C67.4319 33.9584 67.5473 34.251 67.5473 34.5837C67.5473 34.7092 67.4739 34.8242 67.3285 34.928C67.1819 35.0326 67.016 35.1156 66.8285 35.1781C66.641 35.2406 66.4635 35.3136 66.2972 35.3969C66.1301 35.4807 66.0472 35.5432 66.0472 35.5845C64.5049 38.3773 63.7344 41.0454 63.7344 43.5873C63.7344 46.7557 64.9633 48.3393 67.4223 48.3393C70.0054 48.3393 73.2353 46.2759 77.1106 42.1496C77.4019 41.7741 77.6936 41.5869 77.9857 41.5869C78.1936 41.5869 78.2982 41.7332 78.2982 42.0242C78.2982 42.3585 78.1732 42.6494 77.9232 42.8995Z" fill="#674D21"/>
<path d="M112.364 42.6504C107.779 47.6525 103.904 50.1535 100.738 50.1535C97.3203 50.1535 95.778 46.9647 96.1122 40.5875C95.8201 40.8793 95.4559 41.2861 95.0184 41.8068C94.5808 42.3282 94.0279 43.0052 93.362 43.8384L89.6117 49.4657C88.8195 50.3819 88.1115 50.7162 87.4865 50.4661C86.8193 50.299 86.5693 49.883 86.7364 49.2156L86.9239 47.2152C87.0069 46.5487 87.0694 45.9234 87.1115 45.339C87.1523 44.7559 87.1944 44.2136 87.2365 43.7134C87.4023 40.2962 87.0069 38.5863 86.0489 38.5863C85.2567 38.5863 84.027 39.4621 82.361 41.2128C81.2359 42.3378 79.9642 44.151 78.5482 46.6521C77.2981 48.8621 76.548 50.0288 76.298 50.1535C76.048 50.2785 75.7979 50.3415 75.5479 50.3415C74.965 50.3415 74.6729 49.9455 74.6729 49.1531C74.6729 48.903 74.6945 48.7154 74.7354 48.5903C75.0271 47.9651 75.4229 47.0797 75.923 45.933C76.423 44.7871 77.0264 43.3803 77.7356 41.7126C79.4858 37.6701 80.3609 35.21 80.3609 34.335C80.4859 34.0849 81.1518 33.6685 82.361 33.0845C83.6941 32.4593 84.3612 32.626 84.3612 33.5843L82.361 39.7122C82.694 39.3787 83.1003 38.9932 83.5799 38.5555C84.0583 38.1174 84.5896 37.6484 85.1738 37.1486C85.8397 36.7322 86.5489 36.5234 87.299 36.5234C89.257 36.5234 90.3618 37.7326 90.6118 40.1494C90.6118 40.192 90.5901 40.7438 90.5493 41.8068C90.5072 42.8693 90.4447 44.4637 90.3618 46.5895C91.6527 44.5887 94.2154 41.0252 98.0499 35.8981C98.8 34.8973 99.633 34.3975 100.55 34.3975C101.008 34.3975 101.238 34.6476 101.238 35.1474C101.238 35.2729 101.227 35.3979 101.206 35.5226C101.185 35.648 101.154 35.7944 101.113 35.9607C100.071 39.4621 99.55 42.234 99.55 44.2761C99.55 46.9443 100.466 48.2777 102.3 48.2777C103.8 48.2777 105.488 47.5278 107.363 46.0268C107.696 45.7359 108.207 45.2561 108.894 44.5887C109.582 43.9226 110.426 43.0677 111.426 42.0252C111.717 41.7343 111.967 41.5879 112.176 41.5879C112.342 41.5879 112.467 41.7126 112.551 41.9631C112.634 42.2128 112.572 42.4425 112.364 42.6504Z" fill="#674D21"/>
<path d="M145.615 29.1439C145.656 28.6853 145.677 28.2373 145.677 27.7992V26.4549C145.677 19.2445 143.864 13.2621 140.239 8.51056C136.572 11.3034 134.739 14.3254 134.739 17.5767C134.739 21.6621 137.697 25.1635 143.615 28.0809C144.24 28.3727 144.905 28.7275 145.615 29.1439ZM141.677 7.51015C145.218 12.0957 146.99 17.9731 146.99 25.1418C146.99 25.9342 146.959 26.7158 146.896 27.4866C146.834 28.2585 146.76 29.0188 146.677 29.7691C151.886 32.9792 154.49 36.4389 154.49 40.1479C154.49 43.6914 152.198 47.0678 147.615 50.277C143.447 53.194 138.655 55.0697 133.239 55.9043C130.655 56.2798 128.238 56.467 125.988 56.467C121.404 56.467 117.778 55.695 115.112 54.1535C112.612 52.6529 111.362 50.7355 111.362 48.4012C111.362 46.4004 112.258 44.4417 114.049 42.5238C115.507 40.9403 118.112 39.3355 121.863 37.7094C125.988 35.9591 129.717 35.0838 133.051 35.0838C135.217 35.0838 137.01 35.4802 138.427 36.2718C138.718 36.4389 138.864 36.5844 138.864 36.709C138.864 37.0433 138.427 37.1058 137.551 36.897C136.51 36.6886 135.468 36.5844 134.427 36.5844C131.176 36.5844 127.591 37.3768 123.675 38.9599C121.841 39.7107 120.31 40.4922 119.081 41.3046C117.851 42.1179 116.862 42.9207 116.112 43.7119C115.362 44.5042 114.82 45.2858 114.487 46.0565C114.153 46.8285 113.987 47.5471 113.987 48.2137C113.987 49.9644 115.018 51.3086 117.081 52.2465C119.144 53.1844 122.008 53.6533 125.675 53.6533C126.883 53.6533 128.123 53.6008 129.395 53.497C130.665 53.3928 131.988 53.2365 133.364 53.0281C138.572 52.2357 142.739 50.5896 145.865 48.0886C148.74 45.7968 150.178 43.1491 150.178 40.1479C150.178 37.3968 148.865 34.8333 146.24 32.4577C145.156 37.7936 143.093 42.1704 140.052 45.5876C136.635 49.3812 132.447 51.465 127.488 51.8401C127.279 51.8814 127.134 51.7776 127.051 51.5275C127.051 51.3182 127.176 51.1732 127.426 51.0898C132.467 50.7147 136.572 48.6309 139.739 44.8373C142.614 41.4609 144.468 37.0641 145.302 31.6449C144.843 31.3114 144.365 30.968 143.864 30.6128C143.364 30.2593 142.822 29.9154 142.239 29.5811C138.947 27.7896 136.593 26.2052 135.177 24.8292C132.801 22.5787 131.614 20.099 131.614 17.3887C131.614 13.6372 134.009 10.1154 138.802 6.82239C135.468 3.36266 131.509 1.63278 126.926 1.63278C124.258 1.63278 121.613 2.25805 118.988 3.50854C116.903 4.46768 115.257 6.00955 114.049 8.1354C112.841 10.303 112.237 12.4913 112.237 14.7006C112.237 16.535 112.653 18.1186 113.487 19.4525C115.028 21.8701 117.362 23.0789 120.487 23.0789C123.279 23.0789 125.404 22.0156 126.863 19.8897C126.988 19.7238 127.134 19.6613 127.301 19.7026C127.467 19.7443 127.551 19.8697 127.551 20.0777C127.551 21.0777 126.592 21.9747 124.675 22.7663C122.925 23.4753 121.488 23.8292 120.362 23.8292C116.945 23.8292 114.362 22.5162 112.612 19.8897C111.737 18.4733 111.299 16.8056 111.299 14.8877C111.299 12.5122 111.965 10.1575 113.299 7.82279C114.674 5.48892 116.466 3.82118 118.675 2.82077C121.591 1.4448 124.571 0.75703 127.613 0.75703C132.696 0.75703 136.927 2.46687 140.302 5.8845C145.26 2.79993 149.823 1.02879 153.99 0.569851C154.241 0.528586 154.49 0.506913 154.741 0.506913H155.428C159.637 0.506913 162.012 2.02919 162.554 5.07166C162.594 5.23842 162.594 5.46808 162.554 5.75905C162.512 5.96828 162.491 6.15588 162.491 6.32218C162.491 6.44681 162.554 6.46848 162.679 6.38429C162.887 6.2184 163.106 6.07165 163.335 5.94703C163.564 5.82157 163.825 5.6761 164.116 5.50893C164.991 5.46808 165.429 5.78072 165.429 6.44681C165.429 7.23923 165.075 8.11456 164.366 9.07328C161.282 12.4084 159.386 14.0753 158.678 14.0753C158.47 14.0753 158.366 13.9498 158.366 13.7002C158.366 13.0336 159.012 11.4705 160.303 9.01076C160.804 8.00994 161.054 7.13499 161.054 6.38429C161.054 4.30054 159.303 3.25804 155.803 3.25804C155.469 3.25804 155.136 3.26886 154.803 3.2897C154.469 3.31096 154.116 3.34223 153.74 3.3835C149.323 3.80034 145.302 5.17632 141.677 7.51015Z" fill="#674D21"/>
<path d="M185.806 35.7104C185.597 37.8779 184.909 39.5457 183.743 40.7124C183.993 41.7549 184.503 42.6298 185.275 43.338C186.045 44.0475 186.931 44.401 187.931 44.401C189.389 44.401 190.764 43.6302 192.057 42.0875C192.515 41.5465 192.848 41.4423 193.057 41.7749C193.265 42.1922 193.16 42.5465 192.744 42.8378C191.077 44.5056 189.306 45.3388 187.431 45.3388C185.472 45.3388 183.931 44.4635 182.806 42.7128C181.889 45.0887 180.743 46.9645 179.368 48.34C177.993 49.716 176.701 50.4034 175.493 50.4034C173.658 50.4034 172.742 49.0278 172.742 46.2767C172.742 45.9853 172.752 45.7044 172.774 45.4326C172.794 45.1621 172.825 44.8807 172.867 44.5885C172.659 44.7978 171.825 45.9641 170.367 48.0899C169.283 49.6326 168.012 50.9135 166.554 51.9352C165.095 52.9561 163.782 53.4675 162.617 53.4675C160.657 53.4675 159.679 52.0915 159.679 49.3404C159.679 48.3821 159.846 47.1316 160.179 45.5889C160.595 43.7132 161.491 41.6715 162.867 39.4619C163.95 37.7108 165.095 36.2944 166.304 35.2098C167.137 34.4186 167.992 34.0222 168.867 34.0222C169.658 34.0222 170.055 34.314 170.055 34.8972C170.055 35.1064 169.971 35.294 169.805 35.4599C167.888 37.3781 165.929 40.421 163.929 44.5885C162.72 47.215 162.116 49.1116 162.116 50.2783C162.116 51.3621 162.554 51.9044 163.429 51.9044C165.137 51.9044 167.158 50.4242 169.492 47.4647C170.658 45.9641 171.69 44.3601 172.586 42.6502C173.482 40.9417 174.346 39.2539 175.18 37.5861C175.346 37.211 175.909 37.023 176.868 37.023C177.909 37.023 178.43 37.4198 178.43 38.2114C177.889 39.1705 177.43 40.0871 177.055 40.9625C176.68 41.8378 176.346 42.6719 176.055 43.4631C175.596 44.8386 175.368 45.9232 175.368 46.7144C175.368 47.8819 175.763 48.4655 176.555 48.4655C177.347 48.4655 178.305 47.8194 179.431 46.5268C180.597 45.2355 181.534 43.6098 182.243 41.6503C181.534 40.1918 181.284 38.524 181.493 36.6483C181.701 33.9393 182.534 32.5841 183.993 32.5841C184.576 32.5841 185.045 32.8651 185.4 33.4278C185.754 33.991 185.889 34.7517 185.806 35.7104Z" fill="#674D21"/>
<path d="M202.431 37.0196C203.223 35.6862 203.619 34.5403 203.619 33.5807C203.619 32.8309 203.369 32.4557 202.869 32.4557C201.994 32.4557 200.785 33.4774 199.244 35.519C197.743 37.604 196.555 39.6878 195.681 41.7716C198.972 40.7303 201.223 39.1459 202.431 37.0196ZM213.932 42.897C212.432 44.7315 210.057 46.4826 206.807 48.1495C203.223 50.0253 200.097 50.9632 197.431 50.9632C193.556 50.9632 191.618 48.8369 191.618 44.5852C191.618 43.0437 192.138 41.2093 193.181 39.0834C194.222 36.8325 195.534 34.9567 197.118 33.4561C198.909 31.7475 200.597 30.8926 202.181 30.8926C204.264 30.8926 205.306 31.9143 205.306 33.9559C205.306 35.2064 204.764 36.5411 203.681 37.9575C201.764 40.3339 198.972 41.9808 195.305 42.897C195.139 43.6065 195.056 44.3568 195.056 45.1479C195.056 47.9832 196.368 49.4001 198.994 49.4001C201.077 49.4001 203.66 48.546 206.744 46.8361C208.16 46.045 209.39 45.2634 210.432 44.4914C211.473 43.7207 212.348 42.9391 213.057 42.1471C213.848 41.3135 214.245 41.2718 214.245 42.0217C214.245 42.2718 214.14 42.564 213.932 42.897Z" fill="#674D21"/>
<path d="M223.557 37.0196C224.348 35.6862 224.745 34.5403 224.745 33.5807C224.745 32.8309 224.495 32.4557 223.995 32.4557C223.12 32.4557 221.91 33.4774 220.369 35.519C218.869 37.604 217.682 39.6878 216.806 41.7716C220.098 40.7303 222.348 39.1459 223.557 37.0196ZM235.058 42.897C233.558 44.7315 231.183 46.4826 227.932 48.1495C224.348 50.0253 221.223 50.9632 218.557 50.9632C214.682 50.9632 212.744 48.8369 212.744 44.5852C212.744 43.0437 213.264 41.2093 214.306 39.0834C215.347 36.8325 216.66 34.9567 218.244 33.4561C220.035 31.7475 221.723 30.8926 223.307 30.8926C225.39 30.8926 226.432 31.9143 226.432 33.9559C226.432 35.2064 225.89 36.5411 224.807 37.9575C222.89 40.3339 220.098 41.9808 216.431 42.897C216.264 43.6065 216.181 44.3568 216.181 45.1479C216.181 47.9832 217.494 49.4001 220.119 49.4001C222.202 49.4001 224.786 48.546 227.87 46.8361C229.286 46.045 230.516 45.2634 231.558 44.4914C232.599 43.7207 233.474 42.9391 234.183 42.1471C234.974 41.3135 235.37 41.2718 235.37 42.0217C235.37 42.2718 235.266 42.564 235.058 42.897Z" fill="#674D21"/>
<path d="M234.496 32.7711H235.402C235.714 32.7711 236.037 32.7502 236.371 32.7081C236.579 32.6673 236.84 32.6456 237.152 32.6456H238.121C238.412 32.1045 238.829 31.333 239.371 30.3326C239.912 29.3322 240.6 28.0817 241.434 26.5811C241.892 25.7474 242.434 24.8516 243.059 23.8921C243.684 22.9338 244.392 21.8708 245.184 20.7037C246.017 19.8705 247.143 19.4532 248.559 19.4532C249.768 19.4532 250.372 19.7658 250.372 20.3911C250.372 20.5157 250.31 20.6624 250.185 20.8283C249.309 22.038 248.205 23.6219 246.872 25.5807C245.537 27.5402 243.975 29.9162 242.184 32.7081H251.935C252.56 32.9174 252.872 33.1879 252.872 33.5214C252.872 34.1466 252.122 34.543 250.622 34.7094C250.372 34.751 249.455 34.7719 247.872 34.7719C246.288 34.7719 243.996 34.7931 240.996 34.834C238.954 38.6697 237.933 41.796 237.933 44.2128C237.933 46.9226 239.1 48.2769 241.434 48.2769C242.6 48.2769 243.85 47.9017 245.184 47.1514C246.1 46.61 247.048 45.9322 248.028 45.1194C249.007 44.3065 250.038 43.317 251.122 42.1498C251.538 41.7334 251.873 41.5458 252.122 41.5871C252.33 41.5871 252.435 41.7334 252.435 42.0244C252.435 42.2745 252.33 42.5458 252.122 42.8372C247.413 47.7984 243.371 50.2152 239.997 50.0901C237.329 50.0072 235.724 48.6316 235.184 45.9635C235.099 45.5474 235.037 45.1302 234.996 44.713C234.954 44.297 234.933 43.8797 234.933 43.4624C234.933 40.9206 235.641 38.0444 237.059 34.834C236.142 34.8765 235.485 34.8965 235.089 34.8965C234.693 34.8965 234.579 34.9182 234.746 34.9594C233.787 34.834 233.266 34.418 233.183 33.709C233.058 33.0837 233.496 32.7711 234.496 32.7711Z" fill="#674D21"/>
<path d="M256.436 48.5276C254.81 47.9866 253.414 47.1316 252.248 45.9641C252.248 46.8395 252.55 47.5585 253.154 48.1212C253.758 48.6839 254.414 48.9653 255.123 48.9653C255.706 48.9653 256.144 48.8198 256.436 48.5276ZM264.811 47.5897C268.353 46.7144 271.395 44.8387 273.937 41.9629C274.103 41.7124 274.333 41.5877 274.624 41.5877C274.875 41.5877 275 41.7549 275 42.0875C275 42.4218 274.853 42.7345 274.562 43.0254C271.062 46.4018 267.749 48.3617 264.624 48.9028C262.457 49.2779 260.436 49.32 258.561 49.0278C257.935 50.1533 256.977 50.716 255.686 50.716C254.726 50.716 253.851 50.4134 253.06 49.8094C252.268 49.2058 251.768 48.4655 251.56 47.5897C251.101 45.9232 251.039 44.9228 251.372 44.5885C251.414 44.0475 251.664 43.7757 252.122 43.7757C252.248 43.7757 252.351 43.8178 252.435 43.9008C253.643 45.3601 255.186 46.4643 257.061 47.215C257.102 46.7144 257.019 46.0687 256.81 45.2763C256.644 44.7349 256.445 44.2351 256.217 43.7757C255.987 43.3176 255.727 42.8799 255.435 42.4627C253.851 40.296 253.164 38.1076 253.373 35.898C253.748 31.4799 256.706 28.2491 262.249 26.2066C264.081 25.54 265.832 25.3104 267.499 25.5184C269.374 25.7685 270.312 26.7905 270.312 28.5821C270.312 29.9168 269.874 31.2086 268.999 32.4591C268.624 32.9589 268.29 33.2715 267.999 33.397C267.707 33.4386 267.562 33.314 267.562 33.0214C267.562 32.8555 267.665 32.5633 267.874 32.1464C268.332 31.3128 268.561 30.6046 268.561 30.0206C268.561 28.9789 267.874 28.4575 266.499 28.4575C266.332 28.4575 266.155 28.4683 265.968 28.4883C265.78 28.51 265.582 28.5412 265.374 28.5821C260.832 29.4166 257.789 32.0426 256.248 36.4603C256.039 37.211 255.936 37.8575 255.936 38.399C255.936 39.5665 256.436 40.9838 257.435 42.6502C258.477 44.3601 259.019 45.714 259.061 46.7144V47.2771C259.061 47.4443 259.039 47.6114 258.998 47.7773C260.873 48.1529 262.811 48.0899 264.811 47.5897Z" fill="#674D21"/>
</svg>
