<svg width="38" height="24" viewBox="0 0 38 24" fill="none" xmlns="http://www.w3.org/2000/svg">
<path d="M13.4364 2.79834H24.5684V21.1996H13.4364V2.79834Z" fill="#FF5F00"/>
<path d="M14.583 12.0008C14.5816 10.2289 14.9785 8.47995 15.7436 6.88624C16.5087 5.29252 17.622 3.89581 18.9992 2.80183C17.2934 1.44513 15.245 0.601477 13.0879 0.367294C10.9308 0.133112 8.75218 0.517847 6.80094 1.47753C4.84969 2.43721 3.20459 3.93311 2.05364 5.79428C0.902695 7.65544 0.292343 9.80678 0.292343 12.0024C0.292343 14.198 0.902695 16.3494 2.05364 18.2105C3.20459 20.0717 4.84969 21.5676 6.80094 22.5273C8.75218 23.487 10.9308 23.8717 13.0879 23.6375C15.245 23.4033 17.2934 22.5597 18.9992 21.203C17.6215 20.1087 16.508 18.7114 15.7429 17.1171C14.9778 15.5228 14.5811 13.7732 14.583 12.0007V12.0008Z" fill="#EB001B"/>
<path d="M36.6028 19.2524V18.8754H36.7634V18.7974H36.3813V18.8754H36.5322V19.2525L36.6028 19.2524ZM37.3448 19.2524V18.7974H37.2291L37.0943 19.1224L36.9593 18.7974H36.8437V19.2524H36.9272V18.9079L37.0525 19.2037H37.1392L37.2645 18.9079V19.2524H37.3448Z" fill="#F79E1B"/>
<path d="M37.7077 12.0008C37.7076 14.1966 37.0971 16.3481 35.946 18.2093C34.7948 20.0705 33.1495 21.5664 31.198 22.5259C29.2465 23.4855 27.0676 23.87 24.9104 23.6354C22.7532 23.4009 20.7047 22.5569 18.9991 21.1997C20.3758 20.1048 21.4887 18.7077 22.254 17.1139C23.0193 15.5201 23.417 13.7712 23.417 11.9991C23.417 10.2271 23.0193 8.47821 22.254 6.88441C21.4887 5.29061 20.3758 3.89353 18.9991 2.79857C20.7047 1.44143 22.7532 0.597364 24.9104 0.36284C27.0676 0.128317 29.2465 0.512804 31.198 1.47235C33.1495 2.4319 34.7949 3.92779 35.946 5.78903C37.0972 7.65027 37.7076 9.80175 37.7077 11.9975V12.0008Z" fill="#F79E1B"/>
</svg>
