<svg width="80" height="80" viewBox="0 0 80 80" fill="none" xmlns="http://www.w3.org/2000/svg">
<g clip-path="url(#clip0_95_93)">
<path d="M30.8191 37.6563H37.7479V44.6875C37.7479 46.7792 40.2446 47.8133 41.6912 46.3453L50.2521 37.6563H67.7728C69.0477 37.6563 70.0824 36.6063 70.0824 35.3125V7.1875C70.0824 5.89375 69.0477 4.84375 67.7728 4.84375H30.8191C29.5442 4.84375 28.5095 5.89375 28.5095 7.1875V35.3125C28.5095 36.6063 29.5442 37.6563 30.8191 37.6563ZM58.5344 18.9063C59.8093 18.9063 60.844 19.9563 60.844 21.25C60.844 22.5438 59.8093 23.5938 58.5344 23.5938C57.2595 23.5938 56.2248 22.5438 56.2248 21.25C56.2248 19.9563 57.2595 18.9063 58.5344 18.9063ZM49.296 18.9063C50.5709 18.9063 51.6056 19.9563 51.6056 21.25C51.6056 22.5438 50.5709 23.5938 49.296 23.5938C48.0211 23.5938 46.9863 22.5438 46.9863 21.25C46.9863 19.9563 48.0211 18.9063 49.296 18.9063ZM40.0575 18.9063C41.3324 18.9063 42.3671 19.9563 42.3671 21.25C42.3671 22.5438 41.3324 23.5938 40.0575 23.5938C38.7826 23.5938 37.7479 22.5438 37.7479 21.25C37.7479 19.9563 38.7826 18.9063 40.0575 18.9063Z" fill="#B88626"/>
<path d="M77.3192 65.7812H59.4582V58.75C59.4582 57.7422 58.8223 56.8469 57.88 56.5266L44.0563 51.8391C43.3788 51.6109 42.6366 51.7109 42.0423 52.1125L36.1651 56.0891C29.94 53.0766 22.5523 45.5797 19.5837 39.2625L23.5023 33.2984C23.898 32.6953 23.9966 31.9422 23.7718 31.2547L19.1526 17.2266C18.8369 16.2703 17.9547 15.625 16.9615 15.625H7.72312C3.90304 15.625 0.794312 18.7641 0.794312 22.6234C0.794312 35.5797 6.56678 48.8688 16.6336 59.0828C26.6988 69.2984 39.7943 75.1562 52.5618 75.1562C55.5596 75.1562 58.1156 73.1969 59.0641 70.4688H77.3192C78.5947 70.4688 79.6288 69.4194 79.6288 68.125C79.6288 66.8306 78.5947 65.7812 77.3192 65.7812Z" fill="#B88626"/>
</g>
<defs>
<clipPath id="clip0_95_93">
<rect width="78.8345" height="80" fill="white" transform="translate(0.794312)"/>
</clipPath>
</defs>
</svg>
