<svg width="80" height="80" viewBox="0 0 80 80" fill="none" xmlns="http://www.w3.org/2000/svg">
<g clip-path="url(#clip0_95_71)">
<path d="M74.3738 38.4436C74.1263 38.3909 73.8926 38.3412 73.6849 38.2864C71.3291 37.6647 70.254 37.324 69.459 35.7665L66.4478 29.5799C65.48 27.684 62.9811 26.1415 60.8773 26.1415H55.5163V18.9975C55.5163 17.7148 54.4878 16.6711 53.2235 16.6711L15.8841 16.7092C14.6539 16.7092 13.7261 17.7013 13.7261 19.0171V21.1286H4.16078C2.18549 21.1288 0.578369 22.7595 0.578369 24.7642C0.578369 26.7688 2.18549 28.3995 4.16078 28.3995H13.726V31.8839H7.46332C5.48803 31.8839 3.88091 33.5148 3.88091 35.5193C3.88091 37.5238 5.48803 39.1547 7.46332 39.1547H13.726V42.639H10.7659C8.79057 42.639 7.18344 44.2699 7.18344 46.2744C7.18344 48.2789 8.79057 49.9098 10.7659 49.9098H13.726V53.5542C13.726 54.8369 14.7544 55.8805 16.0184 55.8805H19.9025C20.5075 60.0876 24.0856 63.3291 28.397 63.3291C32.7087 63.3291 36.2871 60.0876 36.8921 55.8805H52.6112C52.6929 55.8805 52.7766 55.875 52.8601 55.8695C53.4604 60.0819 57.0408 63.3291 61.3559 63.3291C65.6676 63.3291 69.246 60.0876 69.851 55.8805H75.43C77.6262 55.8805 79.413 54.0675 79.413 51.839V44.9813C79.4128 39.5165 76.3803 38.8708 74.3738 38.4436ZM61.3559 51.4502C63.0774 51.4502 64.4779 52.8709 64.4779 54.6174C64.4779 56.3638 63.0774 57.7845 61.3559 57.7845C59.6351 57.7845 58.2351 56.3638 58.2351 54.6174C58.2351 52.8709 59.6351 51.4502 61.3559 51.4502ZM55.5163 37.951V29.5155H59.6131C61.1877 29.5155 63.1301 30.7145 63.851 32.1262L66.5306 37.6315C66.5874 37.7429 66.6463 37.8491 66.7075 37.9508H55.5163V37.951ZM31.519 54.6172C31.519 56.3634 30.1185 57.7844 28.397 57.7844C26.6762 57.7844 25.2763 56.3636 25.2763 54.6172C25.2763 52.8708 26.6762 51.45 28.397 51.45C30.1185 51.4502 31.519 52.8709 31.519 54.6172Z" fill="#CB9734"/>
</g>
<defs>
<clipPath id="clip0_95_71">
<rect width="78.8345" height="80" fill="white" transform="translate(0.578369)"/>
</clipPath>
</defs>
</svg>
