<svg width="50" height="50" viewBox="0 0 50 50" fill="none" xmlns="http://www.w3.org/2000/svg">
<path d="M49.9843 0H0V49.9843H49.9843V0Z"/>
<path d="M32.6828 30.481C30.8706 30.481 29.3962 31.9553 29.3962 33.7675C29.3962 35.5797 30.8706 37.054 32.6828 37.054C34.495 37.054 35.9693 35.5797 35.9693 33.7675C35.9693 31.9553 34.495 30.481 32.6828 30.481ZM32.6828 35.0821C31.9578 35.0821 31.3682 34.4925 31.3682 33.7675C31.3682 33.0425 31.9578 32.4529 32.6828 32.4529C33.4078 32.4529 33.9974 33.0425 33.9974 33.7675C33.9974 34.4925 33.4078 35.0821 32.6828 35.0821Z" fill="white"/>
<path d="M37.9615 17.7783C37.7749 17.5393 37.4886 17.4 37.1853 17.4H17.8991L17.0117 13.6872C16.9055 13.2435 16.5088 12.9303 16.0526 12.9303H12.799C12.2544 12.9303 11.813 13.3717 11.813 13.9162C11.813 14.4608 12.2544 14.9022 12.799 14.9022H15.2744L18.4788 28.31C18.5849 28.754 18.9816 29.0669 19.4378 29.0669H34.7861C35.2393 29.0669 35.6343 28.758 35.7431 28.3182L38.1423 18.6228C38.2149 18.3284 38.1482 18.0172 37.9615 17.7783ZM34.0147 27.095H20.2161L18.3703 19.3719H35.9255L34.0147 27.095Z" fill="white"/>
<path d="M20.7527 30.481C18.9404 30.481 17.4661 31.9553 17.4661 33.7675C17.4661 35.5797 18.9405 37.054 20.7527 37.054C22.5648 37.054 24.0392 35.5797 24.0392 33.7675C24.0392 31.9553 22.5648 30.481 20.7527 30.481ZM20.7527 35.0821C20.0277 35.0821 19.4381 34.4925 19.4381 33.7675C19.4381 33.0425 20.0277 32.4529 20.7527 32.4529C21.4777 32.4529 22.0673 33.0425 22.0673 33.7675C22.0673 34.4925 21.4777 35.0821 20.7527 35.0821Z" fill="white"/>
</svg>
